{
.appVersion = "3192";
.formatVersion = 3;
axes = (
{
name = Weight;
tag = wght;
}
);
customParameters = (
{
name = glyphOrder;
value = (
space,
exclam,
quotesingle,
quotedbl,
numbersign,
dollar,
percent,
ampersand,
parenleft,
parenright,
asterisk,
plus,
comma,
hyphen,
period,
slash,
zero,
one,
two,
three,
four,
five,
six,
seven,
eight,
nine,
colon,
semicolon,
less,
equal,
greater,
question,
at,
A,
B,
C,
D,
E,
F,
G,
H,
I,
J,
K,
L,
M,
N,
O,
P,
Q,
R,
S,
T,
U,
V,
W,
X,
Y,
Z,
bracketleft,
backslash,
bracketright,
asciicircum,
underscore,
grave,
a,
b,
c,
d,
e,
f,
g,
h,
i,
j,
k,
l,
m,
n,
o,
p,
q,
r,
s,
t,
u,
v,
w,
x,
y,
z,
braceleft,
bar,
braceright,
asciitilde,
exclamdown,
cent,
sterling,
currency,
yen,
brokenbar,
section,
dieresis,
copyright,
ordfeminine,
guillemetleft,
logicalnot,
registered,
macron,
degree,
plusminus,
twosuperior,
threesuperior,
acute,
mu,
paragraph,
periodcentered,
cedilla,
onesuperior,
ordmasculine,
guillemetright,
onequarter,
onehalf,
threequarters,
questiondown,
Agrave,
Aacute,
Acircumflex,
Atilde,
Adieresis,
Aring,
AE,
Ccedilla,
Egrave,
Eacute,
Ecircumflex,
Edieresis,
Igrave,
Iacute,
Icircumflex,
Idieresis,
Eth,
Ntilde,
Ograve,
Oacute,
Ocircumflex,
Otilde,
Odieresis,
multiply,
Oslash,
Ugrave,
Uacute,
Ucircumflex,
Udieresis,
Yacute,
Thorn,
germandbls,
agrave,
aacute,
acircumflex,
atilde,
adieresis,
aring,
ae,
ccedilla,
egrave,
eacute,
ecircumflex,
edieresis,
igrave,
iacute,
icircumflex,
idieresis,
eth,
ntilde,
ograve,
oacute,
ocircumflex,
otilde,
odieresis,
divide,
oslash,
ugrave,
uacute,
ucircumflex,
udieresis,
yacute,
thorn,
ydieresis,
dotlessi,
circumflex,
caron,
breve,
dotaccent,
ring,
ogonek,
tilde,
hungarumlaut,
quoteleft,
quoteright,
minus,
g.ss01,
a.ss01
);
}
);
date = "2021-06-10 23:41:42 +0000";
familyName = "Inclusive Sans";
fontMaster = (
{
axesValues = (
400
);
id = master01;
metricValues = (
{
pos = 720;
},
{
pos = 700;
},
{
pos = 500;
},
{
},
{
pos = -230;
},
{
pos = 512;
},
{
pos = -12;
},
{
pos = 712;
}
);
name = Regular;
}
);
glyphs = (
{
glyphname = exclam;
lastChange = "2021-08-26 07:34:26 +0000";
layers = (
{
layerId = master01;
shapes = (
{
closed = 1;
nodes = (
(213,215,l),
(224,720,l),
(121,720,l),
(135,215,l)
);
},
{
closed = 1;
nodes = (
(210,-11,o),
(240,21,o),
(240,56,cs),
(240,94,o),
(210,126,o),
(174,126,cs),
(136,126,o),
(105,94,o),
(105,56,cs),
(105,21,o),
(136,-11,o),
(174,-11,cs)
);
}
);
width = 345;
},
{
associatedMasterId = master01;
layerId = "A93029F6-5A44-47E5-8EBB-60AEDDECB850";
name = foreground;
shapes = (
{
closed = 1;
nodes = (
(205,215,l),
(218,720,l),
(89,720,l),
(105,215,l)
);
},
{
closed = 1;
nodes = (
(196,-12,o),
(229,23,o),
(229,62,cs),
(229,104,o),
(196,139,o),
(156,139,cs),
(115,139,o),
(80,104,o),
(80,62,cs),
(80,23,o),
(115,-12,o),
(156,-12,cs)
);
}
);
width = 309;
}
);
unicode = 33;
},
{
glyphname = quotesingle;
lastChange = "2022-12-27 04:58:39 +0000";
layers = (
{
layerId = master01;
shapes = (
{
closed = 1;
nodes = (
(155,586,o),
(160,586,o),
(162,587,c),
(162,515,o),
(88,500,o),
(88,500,c),
(88,500,o),
(87,467,o),
(88,467,cs),
(192,467,o),
(231,566,o),
(232,634,c),
(232,675,o),
(210,720,o),
(154,720,cs),
(118,720,o),
(88,685,o),
(88,650,cs),
(88,617,o),
(119,586,o),
(152,586,cs)
);
}
);
width = 320;
},
{
associatedMasterId = master01;
layerId = "9EC1078A-27A8-4ABD-A85E-C1F27DFD7ADE";
name = foreground;
shapes = (
{
closed = 1;
nodes = (
(158,459,l),
(191,579,o),
(205,624,o),
(205,651,cs),
(205,689,o),
(175,721,o),
(139,721,cs),
(102,721,o),
(70,689,o),
(70,651,cs),
(70,625,o),
(84,579,o),
(118,459,c)
);
}
);
width = 282;
}
);
unicode = 39;
},
{
glyphname = quotedbl;
lastChange = "2022-12-27 04:58:19 +0000";
layers = (
{
layerId = master01;
shapes = (
{
closed = 1;
nodes = (
(155,586,o),
(160,586,o),
(162,587,c),
(162,515,o),
(88,500,o),
(88,500,c),
(88,500,o),
(87,467,o),
(88,467,cs),
(192,467,o),
(231,566,o),
(232,634,c),
(232,675,o),
(210,720,o),
(154,720,cs),
(118,720,o),
(88,685,o),
(88,650,cs),
(88,617,o),
(119,586,o),
(152,586,cs)
);
},
{
closed = 1;
nodes = (
(345,586,o),
(350,586,o),
(352,587,c),
(352,515,o),
(278,500,o),
(278,500,c),
(278,500,o),
(277,467,o),
(278,467,cs),
(382,467,o),
(421,566,o),
(422,634,c),
(422,675,o),
(400,720,o),
(344,720,cs),
(308,720,o),
(278,685,o),
(278,650,cs),
(278,617,o),
(309,586,o),
(342,586,cs)
);
}
);
width = 510;
},
{
associatedMasterId = master01;
layerId = "24C34471-2878-49D9-AC64-055C689381E7";
name = foreground;
shapes = (
{
closed = 1;
nodes = (
(354,459,l),
(387,579,o),
(401,624,o),
(401,651,cs),
(401,689,o),
(371,721,o),
(335,721,cs),
(298,721,o),
(266,689,o),
(266,651,cs),
(266,625,o),
(280,579,o),
(314,459,c)
);
},
{
closed = 1;
nodes = (
(153,459,l),
(186,579,o),
(200,624,o),
(200,651,cs),
(200,689,o),
(170,721,o),
(134,721,cs),
(97,721,o),
(65,689,o),
(65,651,cs),
(65,625,o),
(79,579,o),
(113,459,c)
);
}
);
width = 473;
}
);
unicode = 34;
},
{
glyphname = numbersign;
lastChange = "2021-08-26 07:34:26 +0000";
layers = (
{
hints = (
{
horizontal = 1;
origin = (2,3);
target = (2,2);
type = Stem;
},
{
horizontal = 1;
origin = (1,3);
target = (1,2);
type = Stem;
},
{
origin = (2,3);
target = (1,0);
type = Stem;
}
);
layerId = master01;
shapes = (
{
closed = 1;
nodes = (
(454,0,l),
(627,720,l),
(554,720,l),
(381,0,l)
);
},
{
closed = 1;
nodes = (
(710,433,l),
(710,513,l),
(136,513,l),
(136,433,l)
);
},
{
closed = 1;
nodes = (
(647,208,l),
(646,288,l),
(72,288,l),
(73,208,l)
);
},
{
closed = 1;
nodes = (
(238,0,l),
(411,720,l),
(338,720,l),
(165,0,l)
);
}
);
width = 782;
},
{
associatedMasterId = master01;
layerId = "21C28542-C2BA-4EFE-9B17-DE8F14164D30";
name = foreground;
shapes = (
{
closed = 1;
nodes = (
(227,0,l),
(400,720,l),
(306,720,l),
(133,0,l)
);
},
{
closed = 1;
nodes = (
(462,0,l),
(635,720,l),
(541,720,l),
(368,0,l)
);
},
{
closed = 1;
nodes = (
(707,425,l),
(707,523,l),
(133,523,l),
(133,425,l)
);
},
{
closed = 1;
nodes = (
(644,199,l),
(644,297,l),
(70,297,l),
(70,199,l)
);
}
);
width = 777;
}
);
unicode = 35;
},
{
glyphname = dollar;
lastChange = "2021-08-26 07:34:26 +0000";
layers = (
{
layerId = master01;
shapes = (
{
closed = 1;
nodes = (
(370,-91,l),
(370,791,l),
(289,791,l),
(289,-91,l)
);
},
{
closed = 1;
nodes = (
(271,413,o),
(170,433,o),
(170,521,cs),
(170,591,o),
(247,632,o),
(322,632,cs),
(422,632,o),
(473,572,o),
(483,513,c),
(585,513,l),
(580,603,o),
(502,712,o),
(329,712,c),
(164,712,o),
(82,618,o),
(82,516,c),
(82,380,o),
(176,338,o),
(286,317,c),
(397,300,o),
(504,287,o),
(504,186,c),
(505,114,o),
(422,68,o),
(334,68,c),
(240,70,o),
(175,129,o),
(161,214,c),
(58,214,l),
(71,99,o),
(159,-12,o),
(334,-12,c),
(479,-12,o),
(592,58,o),
(592,195,c),
(592,340,o),
(493,370,o),
(364,395,c)
);
}
);
width = 643;
},
{
associatedMasterId = master01;
layerId = "B77E3584-C066-4B83-9C04-DBBF2850799D";
name = foreground;
shapes = (
{
closed = 1;
nodes = (
(271,420,o),
(184,434,o),
(184,522,cs),
(184,592,o),
(247,626,o),
(322,626,cs),
(422,626,o),
(473,573,o),
(483,514,c),
(585,514,l),
(580,604,o),
(502,713,o),
(329,713,c),
(164,713,o),
(82,619,o),
(82,517,c),
(82,369,o),
(176,335,o),
(286,314,c),
(397,297,o),
(492,288,o),
(492,187,c),
(493,115,o),
(422,78,o),
(334,78,c),
(240,80,o),
(175,130,o),
(161,215,c),
(58,215,l),
(71,100,o),
(159,-11,o),
(334,-11,c),
(479,-11,o),
(592,59,o),
(592,196,c),
(592,341,o),
(493,377,o),
(364,402,c)
);
},
{
closed = 1;
nodes = (
(370,-91,l),
(370,791,l),
(289,791,l),
(289,-91,l)
);
}
);
width = 643;
}
);
unicode = 36;
},
{
glyphname = percent;
lastChange = "2021-08-26 07:34:26 +0000";
layers = (
{
hints = (
{
horizontal = 1;
origin = (0,0);
target = (0,0);
type = Stem;
},
{
horizontal = 1;
place = (249,69);
type = Stem;
},
{
horizontal = 1;
origin = (1,11);
target = (2,5);
type = Stem;
},
{
horizontal = 1;
origin = (1,5);
target = (2,11);
type = Stem;
},
{
origin = (1,8);
target = (2,8);
type = Stem;
},
{
origin = (2,2);
target = (1,2);
type = Stem;
},
{
place = (525,10);
target = (0,2);
type = Stem;
},
{
place = (757,76);
type = Stem;
}
);
layerId = master01;
shapes = (
{
closed = 1;
nodes = (
(320,0,l),
(613,720,l),
(535,720,l),
(242,0,l)
);
},
{
closed = 1;
nodes = (
(292,391,o),
(366,450,o),
(366,556,cs),
(366,659,o),
(296,720,o),
(214,720,c),
(131,720,o),
(58,658,o),
(58,555,cs),
(58,449,o),
(128,391,o),
(210,391,c)
);
},
{
closed = 1;
nodes = (
(265,652,o),
(292,606,o),
(292,556,cs),
(292,509,o),
(262,458,o),
(211,458,c),
(159,458,o),
(132,507,o),
(132,555,cs),
(132,605,o),
(159,652,o),
(213,652,c)
);
},
{
closed = 1;
nodes = (
(729,-9,o),
(803,50,o),
(803,156,cs),
(803,259,o),
(733,320,o),
(651,320,c),
(568,320,o),
(495,258,o),
(495,155,cs),
(495,49,o),
(565,-9,o),
(647,-9,c)
);
},
{
closed = 1;
nodes = (
(702,252,o),
(729,206,o),
(729,156,cs),
(729,109,o),
(699,58,o),
(648,58,c),
(596,58,o),
(569,107,o),
(569,155,cs),
(569,205,o),
(596,252,o),
(650,252,c)
);
}
);
width = 861;
},
{
associatedMasterId = master01;
layerId = "B4672107-219B-492B-AE8A-C8526732ACAF";
name = foreground;
shapes = (
{
closed = 1;
nodes = (
(351,0,l),
(644,720,l),
(557,720,l),
(264,0,l)
);
},
{
closed = 1;
nodes = (
(323,391,o),
(397,450,o),
(397,556,cs),
(397,659,o),
(327,720,o),
(245,720,c),
(162,720,o),
(89,658,o),
(89,555,cs),
(89,449,o),
(159,391,o),
(241,391,c)
);
},
{
closed = 1;
nodes = (
(295,651,o),
(321,605,o),
(321,556,cs),
(321,510,o),
(292,460,o),
(242,460,c),
(191,460,o),
(166,508,o),
(166,555,cs),
(166,604,o),
(191,651,o),
(244,651,c)
);
},
{
closed = 1;
nodes = (
(759,-11,o),
(833,48,o),
(833,154,cs),
(833,257,o),
(763,318,o),
(681,318,c),
(598,318,o),
(525,256,o),
(525,153,cs),
(525,47,o),
(595,-11,o),
(677,-11,c)
);
},
{
closed = 1;
nodes = (
(731,249,o),
(757,203,o),
(757,154,cs),
(757,108,o),
(728,58,o),
(678,58,c),
(627,58,o),
(602,106,o),
(602,153,cs),
(602,202,o),
(627,249,o),
(680,249,c)
);
}
);
width = 918;
}
);
unicode = 37;
},
{
glyphname = ampersand;
lastChange = "2021-08-26 07:34:26 +0000";
layers = (
{
hints = (
{
horizontal = 1;
origin = (0,2);
target = (1,6);
type = Stem;
},
{
horizontal = 1;
origin = (2,2);
target = (0,29);
type = Stem;
},
{
horizontal = 1;
origin = (0,8);
target = (0,12);
type = Stem;
},
{
origin = (0,38);
target = (1,9);
type = Stem;
},
{
origin = (2,5);
target = (0,26);
type = Stem;
},
{
origin = (0,19);
target = (0,18);
type = Stem;
},
{
origin = (0,32);
target = (2,11);
type = Stem;
}
);
layerId = master01;
shapes = (
{
closed = 1;
nodes = (
(75,58,o),
(155,-12,o),
(285,-12,cs),
(363,-12,o),
(419,15,o),
(461,70,c),
(505,17,o),
(550,0,o),
(608,0,cs),
(615,0,o),
(615,0,o),
(624,0,c),
(624,70,l),
(562,70,o),
(540,85,o),
(503,128,c),
(534,182,o),
(559,262,o),
(560,332,c),
(488,332,l),
(488,285,o),
(473,226,o),
(452,186,c),
(323,359,l),
(419,423,o),
(473,478,o),
(473,564,cs),
(473,623,o),
(419,714,o),
(311,713,cs),
(196,712,o),
(135,629,o),
(135,549,cs),
(135,486,o),
(181,410,o),
(216,372,c),
(123,316,o),
(75,261,o),
(75,168,cs)
);
},
{
closed = 1;
nodes = (
(153,235,o),
(196,280,o),
(259,320,c),
(407,127,l),
(376,85,o),
(336,66,o),
(285,66,cs),
(203,66,o),
(153,115,o),
(153,179,cs)
);
},
{
closed = 1;
nodes = (
(213,602,o),
(246,641,o),
(310,641,cs),
(352,641,o),
(395,604,o),
(395,555,cs),
(395,503,o),
(363,468,o),
(279,412,c),
(245,458,o),
(213,492,o),
(213,551,cs)
);
}
);
width = 668;
},
{
associatedMasterId = master01;
layerId = "BC46DC87-AB29-432C-8E82-6AD56269F461";
name = foreground;
shapes = (
{
closed = 1;
nodes = (
(506,-1,l),
(628,-1,l),
(311,350,l),
(259,405,o),
(185,460,o),
(185,534,c),
(185,582,o),
(210,640,o),
(286,640,cs),
(344,640,o),
(381,596,o),
(381,547,cs),
(381,495,o),
(339,466,o),
(265,418,c),
(130,341,o),
(50,284,o),
(50,177,c),
(50,54,o),
(155,-11,o),
(284,-11,c),
(492,-11,o),
(570,203,o),
(575,333,c),
(486,333,l),
(486,196,o),
(382,79,o),
(284,79,c),
(204,79,o),
(144,107,o),
(144,180,c),
(144,277,o),
(257,312,o),
(352,378,c),
(417,423,o),
(470,481,o),
(470,560,c),
(470,619,o),
(414,713,o),
(287,713,c),
(150,713,o),
(89,621,o),
(89,541,c),
(89,471,o),
(117,424,o),
(211,323,c)
);
}
);
width = 648;
}
);
unicode = 38;
},
{
glyphname = parenleft;
lastChange = "2021-08-26 07:34:26 +0000";
layers = (
{
layerId = master01;
shapes = (
{
closed = 1;
nodes = (
(70,109,o),
(180,-60,o),
(180,-60,c),
(273,-60,l),
(276,-58,o),
(156,82,o),
(156,345,c),
(156,607,o),
(276,748,o),
(273,750,c),
(180,750,l),
(180,750,o),
(70,580,o),
(70,345,c)
);
}
);
width = 303;
},
{
associatedMasterId = master01;
layerId = "A003329C-BEC9-4397-9AAD-9155A5EADE70";
name = foreground;
shapes = (
{
closed = 1;
nodes = (
(62,109,o),
(172,-60,o),
(172,-60,c),
(280,-60,l),
(283,-58,o),
(163,82,o),
(163,345,c),
(163,607,o),
(283,748,o),
(280,750,c),
(172,750,l),
(172,750,o),
(62,580,o),
(62,345,c)
);
}
);
width = 313;
}
);
unicode = 40;
},
{
glyphname = parenright;
lastChange = "2021-08-26 07:34:26 +0000";
layers = (
{
layerId = master01;
shapes = (
{
closed = 1;
nodes = (
(232,580,o),
(122,750,o),
(122,750,c),
(30,750,l),
(27,748,o),
(147,607,o),
(147,345,c),
(147,82,o),
(27,-58,o),
(30,-60,c),
(122,-60,l),
(122,-60,o),
(232,109,o),
(232,345,c)
);
}
);
width = 302;
},
{
associatedMasterId = master01;
layerId = "FEA7CF8C-5847-4A35-8A6B-C76339FB953A";
name = foreground;
shapes = (
{
closed = 1;
nodes = (
(243,580,o),
(133,750,o),
(133,750,c),
(25,750,l),
(22,748,o),
(142,607,o),
(142,345,c),
(142,82,o),
(22,-58,o),
(25,-60,c),
(133,-60,l),
(133,-60,o),
(243,109,o),
(243,345,c)
);
}
);
width = 303;
}
);
unicode = 41;
},
{
glyphname = asterisk;
lastChange = "2021-08-26 07:34:26 +0000";
layers = (
{
layerId = master01;
shapes = (
{
closed = 1;
nodes = (
(211,564,l),
(86,622,l),
(58,561,l),
(191,499,l),
(86,374,l),
(138,330,l),
(244,455,l),
(350,330,l),
(402,374,l),
(297,499,l),
(431,562,l),
(403,624,l),
(279,567,l),
(279,712,l),
(211,712,l)
);
}
);
width = 489;
},
{
associatedMasterId = master01;
layerId = "52A87255-65B2-4E80-95F9-0AF50A018D84";
name = foreground;
shapes = (
{
closed = 1;
nodes = (
(146,321,l),
(246,438,l),
(344,320,l),
(407,374,l),
(310,489,l),
(436,553,l),
(400,624,l),
(287,568,l),
(287,714,l),
(204,714,l),
(204,568,l),
(92,624,l),
(55,553,l),
(180,490,l),
(83,374,l)
);
}
);
width = 491;
}
);
unicode = 42;
},
{
glyphname = plus;
lastChange = "2021-08-26 07:34:26 +0000";
layers = (
{
hints = (
{
horizontal = 1;
origin = (0,3);
target = (0,2);
type = Stem;
},
{
origin = (1,2);
target = (1,3);
type = Stem;
}
);
layerId = master01;
shapes = (
{
closed = 1;
nodes = (
(457,258,l),
(457,338,l),
(60,338,l),
(60,258,l)
);
},
{
closed = 1;
nodes = (
(303,512,l),
(215,512,l),
(215,84,l),
(303,84,l)
);
}
);
width = 517;
},
{
associatedMasterId = master01;
layerId = "A5CB3561-8809-4C40-98EF-8A07A48E9182";
name = foreground;
shapes = (
{
closed = 1;
nodes = (
(457,249,l),
(457,347,l),
(60,347,l),
(60,249,l)
);
},
{
closed = 1;
nodes = (
(307,512,l),
(209,512,l),
(209,84,l),
(307,84,l)
);
}
);
width = 517;
}
);
unicode = 43;
},
{
glyphname = comma;
lastChange = "2021-08-26 07:34:26 +0000";
layers = (
{
layerId = master01;
shapes = (
{
closed = 1;
nodes = (
(135,0,o),
(140,0,o),
(142,1,c),
(142,-71,o),
(68,-86,o),
(68,-86,c),
(68,-86,o),
(67,-119,o),
(68,-119,cs),
(172,-119,o),
(211,-20,o),
(212,48,c),
(212,89,o),
(190,134,o),
(134,134,cs),
(98,134,o),
(68,99,o),
(68,64,cs),
(68,31,o),
(99,0,o),
(132,0,cs)
);
}
);
width = 282;
},
{
associatedMasterId = master01;
layerId = "7090993E-1050-418C-BDF4-9BE23E3E6164";
name = foreground;
shapes = (
{
closed = 1;
nodes = (
(132,0,o),
(136,0,o),
(139,1,c),
(139,-76,o),
(60,-92,o),
(60,-92,c),
(60,-92,o),
(59,-131,o),
(60,-131,cs),
(171,-131,o),
(214,-21,o),
(214,50,c),
(214,94,o),
(190,142,o),
(131,142,cs),
(91,142,o),
(60,105,o),
(60,67,cs),
(60,32,o),
(92,0,o),
(129,0,cs)
);
}
);
width = 274;
}
);
unicode = 44;
},
{
glyphname = hyphen;
lastChange = "2021-08-26 07:34:26 +0000";
layers = (
{
hints = (
{
horizontal = 1;
origin = (0,3);
target = (0,2);
type = Stem;
},
{
origin = (0,3);
target = (0,0);
type = Stem;
}
);
layerId = master01;
shapes = (
{
closed = 1;
nodes = (
(418,255,l),
(418,335,l),
(70,335,l),
(70,255,l)
);
}
);
width = 488;
},
{
associatedMasterId = master01;
layerId = "A4E3A6E5-E339-49A3-BA7C-5350A83F40F5";
name = foreground;
shapes = (
{
closed = 1;
nodes = (
(428,247,l),
(428,345,l),
(80,345,l),
(80,247,l)
);
}
);
width = 508;
}
);
unicode = 45;
},
{
glyphname = period;
lastChange = "2021-08-26 07:34:26 +0000";
layers = (
{
layerId = master01;
shapes = (
{
closed = 1;
nodes = (
(190,-12,o),
(218,17,o),
(218,51,cs),
(218,86,o),
(190,115,o),
(156,115,cs),
(121,115,o),
(92,86,o),
(92,51,cs),
(92,17,o),
(121,-12,o),
(156,-12,cs)
);
}
);
width = 309;
},
{
associatedMasterId = master01;
layerId = "2626C257-C8D1-4BEC-A76B-04061BD798F2";
name = foreground;
shapes = (
{
closed = 1;
nodes = (
(196,-12,o),
(229,23,o),
(229,62,cs),
(229,104,o),
(196,139,o),
(156,139,cs),
(115,139,o),
(80,104,o),
(80,62,cs),
(80,23,o),
(115,-12,o),
(156,-12,cs)
);
}
);
width = 309;
}
);
unicode = 46;
},
{
glyphname = slash;
lastChange = "2021-08-26 07:34:26 +0000";
layers = (
{
layerId = master01;
shapes = (
{
closed = 1;
nodes = (
(103,0,l),
(396,720,l),
(312,720,l),
(19,0,l)
);
}
);
width = 400;
},
{
associatedMasterId = master01;
layerId = "B6C497E8-57DB-4813-80B4-1FC1C004D65A";
name = foreground;
shapes = (
{
closed = 1;
nodes = (
(97,0,l),
(390,720,l),
(303,720,l),
(10,0,l)
);
}
);
width = 385;
}
);
unicode = 47;
},
{
glyphname = zero;
lastChange = "2021-08-26 07:34:26 +0000";
layers = (
{
layerId = master01;
shapes = (
{
closed = 1;
nodes = (
(130,-13,o),
(66,173,o),
(66,358,cs),
(66,553,o),
(132,720,o),
(342,720,c),
(550,720,o),
(616,553,o),
(616,358,cs),
(616,173,o),
(552,-13,o),
(342,-13,c)
);
},
{
closed = 1;
nodes = (
(202,639,o),
(153,522,o),
(153,359,cs),
(153,199,o),
(202,68,o),
(342,68,c),
(478,68,o),
(529,199,o),
(529,359,cs),
(529,522,o),
(478,639,o),
(343,639,c)
);
},
{
closed = 1;
nodes = (
(376,290,o),
(404,319,o),
(404,353,cs),
(404,388,o),
(376,417,o),
(342,417,cs),
(307,417,o),
(278,388,o),
(278,353,cs),
(278,319,o),
(307,290,o),
(342,290,cs)
);
}
);
width = 682;
},
{
associatedMasterId = master01;
layerId = "13DCC383-82AB-442C-BFC2-C1F1611A1FF5";
name = foreground;
shapes = (
{
closed = 1;
nodes = (
(148,-13,o),
(84,173,o),
(84,358,cs),
(84,553,o),
(150,719,o),
(360,719,c),
(568,719,o),
(634,553,o),
(634,358,cs),
(634,173,o),
(570,-13,o),
(360,-13,c)
);
},
{
closed = 1;
nodes = (
(235,618,o),
(188,513,o),
(188,360,cs),
(188,200,o),
(230,89,o),
(359,89,c),
(488,89,o),
(530,200,o),
(530,360,cs),
(530,513,o),
(483,618,o),
(360,618,c)
);
},
{
closed = 1;
nodes = (
(395,295,o),
(424,325,o),
(424,358,cs),
(424,394,o),
(395,424,o),
(361,424,cs),
(326,424,o),
(296,394,o),
(296,358,cs),
(296,325,o),
(326,295,o),
(361,295,cs)
);
}
);
width = 718;
}
);
unicode = 48;
},
{
glyphname = one;
lastChange = "2021-08-26 07:34:26 +0000";
layers = (
{
hints = (
{
horizontal = 1;
origin = (0,2);
target = (0,5);
type = Stem;
},
{
horizontal = 1;
origin = (0,11);
target = (0,10);
type = Stem;
},
{
horizontal = 1;
origin = (0,2);
target = (0,1);
type = Stem;
},
{
origin = (0,0);
target = (0,5);
type = Stem;
},
{
origin = (0,7);
target = (0,5);
type = Stem;
}
);
layerId = master01;
shapes = (
{
closed = 1;
nodes = (
(201,80,l),
(74,80,l),
(74,0,l),
(422,0,l),
(422,80,l),
(289,80,l),
(289,699,l),
(214,699,l),
(214,606,o),
(193,592,o),
(76,592,c),
(76,512,l),
(201,512,l)
);
}
);
width = 513;
},
{
associatedMasterId = master01;
layerId = "E47BB55E-6434-4EFE-8F9A-CD219E7F6C54";
name = foreground;
shapes = (
{
closed = 1;
nodes = (
(196,94,l),
(69,94,l),
(69,0,l),
(441,0,l),
(441,96,l),
(308,96,l),
(308,699,l),
(221,699,l),
(221,598,o),
(163,593,o),
(71,593,c),
(71,512,l),
(196,512,l)
);
}
);
width = 496;
}
);
unicode = 49;
},
{
glyphname = two;
lastChange = "2021-08-26 07:34:26 +0000";
layers = (
{
hints = (
{
horizontal = 1;
origin = (0,22);
target = (0,25);
type = Stem;
},
{
horizontal = 1;
origin = (0,15);
target = (0,5);
type = Stem;
},
{
origin = (0,22);
target = (0,25);
type = Stem;
},
{
origin = (0,18);
target = (0,2);
type = Stem;
},
{
origin = (0,11);
target = (0,12);
type = Stem;
}
);
layerId = master01;
shapes = (
{
closed = 1;
nodes = (
(161,274,o),
(490,284,o),
(490,528,cs),
(490,647,o),
(399,712,o),
(284,712,c),
(204,712,o),
(132,677,o),
(96,615,c),
(81,589,o),
(72,555,o),
(72,519,c),
(160,519,l),
(160,576,o),
(205,632,o),
(283,632,c),
(361,632,o),
(404,584,o),
(404,528,cs),
(404,335,o),
(75,332,o),
(75,81,cs),
(75,1,l),
(501,1,l),
(501,81,l),
(161,81,l)
);
}
);
width = 576;
},
{
associatedMasterId = master01;
layerId = "BC9AB10E-C11D-48D7-ACCF-502BD9D7D8B4";
name = foreground;
shapes = (
{
closed = 1;
nodes = (
(184,257,o),
(500,284,o),
(500,530,cs),
(500,649,o),
(404,719,o),
(289,719,c),
(209,719,o),
(137,685,o),
(101,623,c),
(86,597,o),
(77,566,o),
(77,530,c),
(174,530,l),
(174,587,o),
(210,636,o),
(288,636,c),
(366,636,o),
(405,592,o),
(405,536,cs),
(405,343,o),
(80,308,o),
(80,87,cs),
(80,1,l),
(511,1,l),
(511,93,l),
(184,93,l)
);
}
);
width = 587;
}
);
unicode = 50;
},
{
glyphname = three;
lastChange = "2021-08-26 07:34:26 +0000";
layers = (
{
layerId = master01;
shapes = (
{
closed = 1;
nodes = (
(465,423,o),
(541,324,o),
(541,208,cs),
(541,69,o),
(429,-12,o),
(300,-12,cs),
(191,-12,o),
(94,43,o),
(67,144,c),
(63,162,o),
(60,182,o),
(60,203,c),
(144,210,l),
(144,198,o),
(146,185,o),
(149,173,c),
(169,94,o),
(228,68,o),
(301,68,cs),
(390,68,o),
(455,128,o),
(455,212,cs),
(455,309,o),
(385,355,o),
(286,355,cs),
(191,355,l),
(191,423,l),
(396,620,l),
(114,620,l),
(114,700,l),
(502,700,l),
(502,615,l),
(309,423,l)
);
}
);
width = 609;
},
{
associatedMasterId = master01;
layerId = "EB8DBBAE-32D2-41E0-8962-5175497312F2";
name = foreground;
shapes = (
{
closed = 1;
nodes = (
(469,429,o),
(530,330,o),
(530,203,cs),
(530,64,o),
(418,-12,o),
(289,-12,c),
(180,-12,o),
(83,43,o),
(56,144,c),
(52,162,o),
(49,182,o),
(49,203,c),
(156,210,l),
(156,198,o),
(158,185,o),
(161,173,c),
(174,121,o),
(217,78,o),
(290,78,c),
(379,78,o),
(423,140,o),
(423,207,cs),
(423,271,o),
(399,358,o),
(265,358,c),
(183,358,l),
(183,441,l),
(379,611,l),
(110,611,l),
(110,700,l),
(496,700,l),
(496,606,l),
(313,441,l)
);
}
);
width = 587;
}
);
unicode = 51;
},
{
glyphname = four;
lastChange = "2021-08-26 07:34:26 +0000";
layers = (
{
hints = (
{
horizontal = 1;
origin = (0,9);
target = (0,7);
type = Stem;
},
{
origin = (0,10);
target = (0,0);
type = Stem;
}
);
layerId = master01;
shapes = (
{
closed = 1;
nodes = (
(460,1,l),
(460,167,l),
(564,167,l),
(564,248,l),
(460,248,l),
(460,701,l),
(374,701,l),
(65,248,l),
(64,169,l),
(374,168,l),
(374,1,l)
);
},
{
closed = 1;
nodes = (
(374,559,l),
(374,248,l),
(157,248,l)
);
}
);
width = 613;
},
{
associatedMasterId = master01;
layerId = "343D4897-1185-4756-95B8-BCD83EF9873F";
name = foreground;
shapes = (
{
closed = 1;
nodes = (
(460,1,l),
(460,702,l),
(354,702,l),
(354,1,l)
);
},
{
closed = 1;
nodes = (
(557,158,l),
(557,250,l),
(63,250,l),
(63,158,l)
);
},
{
closed = 1;
nodes = (
(354,701,l),
(64,248,l),
(169,248,l),
(452,690,l)
);
}
);
width = 582;
}
);
unicode = 52;
},
{
glyphname = five;
lastChange = "2021-08-26 07:34:26 +0000";
layers = (
{
hints = (
{
horizontal = 1;
origin = (0,16);
target = (0,9);
type = Stem;
},
{
horizontal = 1;
origin = (0,3);
target = (0,22);
type = Stem;
},
{
horizontal = 1;
origin = (0,29);
target = (0,26);
type = Stem;
},
{
origin = (0,6);
target = (0,19);
type = Stem;
}
);
layerId = master01;
shapes = (
{
closed = 1;
nodes = (
(188,322,l),
(210,361,o),
(253,388,o),
(305,388,cs),
(396,388,o),
(465,330,o),
(465,234,cs),
(465,126,o),
(400,68,o),
(311,68,cs),
(237,68,o),
(169,123,o),
(158,195,c),
(78,163,l),
(105,49,o),
(201,-12,o),
(310,-12,cs),
(439,-12,o),
(551,77,o),
(551,234,cs),
(551,387,o),
(444,469,o),
(322,469,cs),
(265,469,o),
(204,443,o),
(184,407,c),
(223,620,l),
(505,620,l),
(505,700,l),
(158,700,l),
(96,348,l)
);
}
);
width = 621;
},
{
associatedMasterId = master01;
layerId = "141C748C-D320-4F67-ACD8-1A49E620755D";
name = foreground;
shapes = (
{
closed = 1;
nodes = (
(84,49,o),
(180,-12,o),
(289,-12,c),
(418,-12,o),
(530,83,o),
(530,240,cs),
(530,393,o),
(418,484,o),
(289,484,c),
(255,484,o),
(191,469,o),
(174,442,c),
(209,627,l),
(484,627,l),
(484,720,l),
(129,720,l),
(60,321,l),
(59,316,o),
(166,315,o),
(165,310,c),
(183,355,o),
(224,393,o),
(288,393,c),
(379,393,o),
(427,314,o),
(427,242,cs),
(427,166,o),
(379,80,o),
(290,80,c),
(216,80,o),
(170,133,o),
(156,195,c),
(57,163,l)
);
}
);
width = 587;
}
);
unicode = 53;
},
{
glyphname = six;
lastChange = "2021-08-26 07:34:26 +0000";
layers = (
{
hints = (
{
horizontal = 1;
origin = (0,17);
target = (1,5);
type = Stem;
},
{
horizontal = 1;
origin = (1,11);
target = (0,5);
type = Stem;
},
{
origin = (0,14);
target = (1,8);
type = Stem;
},
{
origin = (1,2);
target = (0,2);
type = Stem;
}
);
layerId = master01;
shapes = (
{
closed = 1;
nodes = (
(447,-12,o),
(535,88,o),
(535,227,cs),
(535,354,o),
(432,452,o),
(315,452,cs),
(284,452,o),
(248,442,o),
(236,427,c),
(410,700,l),
(311,700,l),
(136,404,ls),
(106,354,o),
(76,292,o),
(76,227,cs),
(76,88,o),
(162,-12,o),
(307,-12,c)
);
},
{
closed = 1;
nodes = (
(395,376,o),
(447,299,o),
(447,228,cs),
(447,134,o),
(395,68,o),
(308,68,c),
(211,68,o),
(163,140,o),
(163,228,cs),
(163,299,o),
(211,376,o),
(304,376,c)
);
}
);
width = 595;
},
{
associatedMasterId = master01;
layerId = "D6D6E878-2182-488D-B392-1DFFB86B72D8";
name = foreground;
shapes = (
{
closed = 1;
nodes = (
(417,-12,o),
(529,75,o),
(529,235,cs),
(529,392,o),
(413,476,o),
(318,476,c),
(271,476,o),
(246,464,o),
(241,464,c),
(413,720,l),
(297,720,l),
(91,384,ls),
(65,342,o),
(48,287,o),
(48,235,cs),
(48,75,o),
(159,-12,o),
(288,-12,c)
);
},
{
closed = 1;
nodes = (
(378,392,o),
(426,310,o),
(426,236,cs),
(426,159,o),
(378,81,o),
(289,81,c),
(200,81,o),
(151,159,o),
(151,236,cs),
(151,310,o),
(196,392,o),
(287,392,c)
);
}
);
width = 586;
}
);
unicode = 54;
},
{
glyphname = seven;
lastChange = "2021-08-26 07:34:26 +0000";
layers = (
{
hints = (
{
horizontal = 1;
origin = (0,5);
target = (0,6);
type = Stem;
},
{
origin = (0,6);
target = (0,3);
type = Stem;
}
);
layerId = master01;
shapes = (
{
closed = 1;
nodes = (
(410,620,l),
(111,1,l),
(200,1,l),
(499,622,l),
(499,700,l),
(55,700,l),
(55,620,l)
);
}
);
width = 527;
},
{
associatedMasterId = master01;
layerId = "838B41D5-9F30-4BE4-913F-336DAFA8DCAA";
name = foreground;
shapes = (
{
closed = 1;
nodes = (
(378,608,l),
(79,1,l),
(200,1,l),
(499,610,l),
(499,700,l),
(55,700,l),
(55,608,l)
);
}
);
width = 525;
}
);
unicode = 55;
},
{
glyphname = eight;
lastChange = "2021-08-26 07:34:26 +0000";
layers = (
{
layerId = master01;
shapes = (
{
closed = 1;
nodes = (
(374,636,o),
(417,586,o),
(417,530,cs),
(417,465,o),
(374,418,o),
(300,418,cs),
(225,418,o),
(182,465,o),
(182,530,cs),
(182,586,o),
(222,636,o),
(298,636,cs)
);
},
{
closed = 1;
nodes = (
(64,64,o),
(171,-12,o),
(300,-12,cs),
(428,-12,o),
(537,64,o),
(537,203,cs),
(537,286,o),
(494,348,o),
(431,384,c),
(473,416,o),
(501,465,o),
(501,530,cs),
(501,649,o),
(412,712,o),
(299,712,cs),
(188,712,o),
(98,649,o),
(98,530,cs),
(98,465,o),
(128,415,o),
(168,384,c),
(106,348,o),
(64,286,o),
(64,203,cs)
);
},
{
closed = 1;
nodes = (
(152,278,o),
(208,340,o),
(299,340,cs),
(390,340,o),
(449,278,o),
(449,203,cs),
(449,123,o),
(390,68,o),
(301,68,cs),
(213,68,o),
(152,123,o),
(152,203,cs)
);
}
);
width = 611;
},
{
associatedMasterId = master01;
layerId = "91AF98D4-6337-4809-84E9-869B365A9A81";
name = foreground;
shapes = (
{
closed = 1;
nodes = (
(404,342,o),
(503,408,o),
(503,530,cs),
(503,649,o),
(404,719,o),
(289,719,c),
(175,719,o),
(77,649,o),
(77,530,cs),
(77,408,o),
(175,342,o),
(289,342,c)
);
},
{
closed = 1;
nodes = (
(366,642,o),
(405,586,o),
(405,530,cs),
(405,474,o),
(366,418,o),
(290,418,c),
(213,418,o),
(174,474,o),
(174,530,cs),
(174,586,o),
(210,642,o),
(288,642,c)
);
},
{
closed = 1;
nodes = (
(418,-12,o),
(530,64,o),
(530,203,cs),
(530,339,o),
(418,419,o),
(289,419,c),
(160,419,o),
(49,339,o),
(49,203,cs),
(49,64,o),
(160,-12,o),
(289,-12,c)
);
},
{
closed = 1;
nodes = (
(379,341,o),
(423,274,o),
(423,210,cs),
(423,143,o),
(379,78,o),
(290,78,c),
(201,78,o),
(156,143,o),
(156,210,cs),
(156,274,o),
(197,341,o),
(288,341,c)
);
}
);
width = 587;
},
{
associatedMasterId = master01;
layerId = "594B591A-42ED-4B4B-A577-75D6A89A309A";
name = "2 Aug 21, 17:38";
shapes = (
{
closed = 1;
nodes = (
(404,342,o),
(503,408,o),
(503,530,cs),
(503,649,o),
(404,719,o),
(289,719,c),
(175,719,o),
(77,649,o),
(77,530,cs),
(77,408,o),
(175,342,o),
(289,342,c)
);
},
{
closed = 1;
nodes = (
(366,642,o),
(405,586,o),
(405,530,cs),
(405,474,o),
(366,418,o),
(290,418,c),
(213,418,o),
(174,474,o),
(174,530,cs),
(174,586,o),
(210,642,o),
(288,642,c)
);
},
{
closed = 1;
nodes = (
(418,-12,o),
(530,64,o),
(530,203,cs),
(530,339,o),
(418,419,o),
(289,419,c),
(160,419,o),
(49,339,o),
(49,203,cs),
(49,64,o),
(160,-12,o),
(289,-12,c)
);
},
{
closed = 1;
nodes = (
(379,341,o),
(423,274,o),
(423,210,cs),
(423,143,o),
(379,78,o),
(290,78,c),
(201,78,o),
(156,143,o),
(156,210,cs),
(156,274,o),
(197,341,o),
(288,341,c)
);
}
);
width = 587;
}
);
unicode = 56;
},
{
glyphname = nine;
lastChange = "2021-08-26 07:34:26 +0000";
layers = (
{
layerId = master01;
shapes = (
{
closed = 1;
nodes = (
(164,712,o),
(76,612,o),
(76,473,cs),
(76,346,o),
(179,248,o),
(296,248,cs),
(327,248,o),
(363,258,o),
(375,273,c),
(201,0,l),
(300,0,l),
(475,296,ls),
(505,346,o),
(535,408,o),
(535,473,cs),
(535,612,o),
(449,712,o),
(304,712,c)
);
},
{
closed = 1;
nodes = (
(216,324,o),
(164,401,o),
(164,472,cs),
(164,566,o),
(216,632,o),
(303,632,c),
(400,632,o),
(448,560,o),
(448,472,cs),
(448,401,o),
(400,324,o),
(307,324,c)
);
}
);
width = 594;
},
{
associatedMasterId = master01;
layerId = "DE9DA14C-A867-4145-8585-487AFC56B204";
name = foreground;
shapes = (
{
closed = 1;
nodes = (
(160,732,o),
(48,645,o),
(48,485,cs),
(48,328,o),
(164,244,o),
(259,244,c),
(306,244,o),
(331,256,o),
(336,256,c),
(164,0,l),
(280,0,l),
(486,336,ls),
(512,378,o),
(529,433,o),
(529,485,cs),
(529,645,o),
(418,732,o),
(289,732,c)
);
},
{
closed = 1;
nodes = (
(199,328,o),
(151,410,o),
(151,484,cs),
(151,561,o),
(199,639,o),
(288,639,c),
(377,639,o),
(426,561,o),
(426,484,cs),
(426,410,o),
(381,328,o),
(290,328,c)
);
}
);
width = 586;
}
);
unicode = 57;
},
{
glyphname = colon;
lastChange = "2021-08-26 07:34:26 +0000";
layers = (
{
layerId = master01;
shapes = (
{
closed = 1;
nodes = (
(188,-12,o),
(216,17,o),
(216,51,cs),
(216,86,o),
(188,115,o),
(154,115,cs),
(119,115,o),
(90,86,o),
(90,51,cs),
(90,17,o),
(119,-12,o),
(154,-12,cs)
);
},
{
closed = 1;
nodes = (
(188,300,o),
(216,329,o),
(216,363,cs),
(216,398,o),
(188,427,o),
(154,427,cs),
(119,427,o),
(90,398,o),
(90,363,cs),
(90,329,o),
(119,300,o),
(154,300,cs)
);
}
);
width = 306;
},
{
associatedMasterId = master01;
layerId = "1129757A-F034-4623-96F5-2C126444C93D";
name = foreground;
shapes = (
{
closed = 1;
nodes = (
(196,-12,o),
(229,23,o),
(229,62,cs),
(229,104,o),
(196,139,o),
(156,139,cs),
(115,139,o),
(80,104,o),
(80,62,cs),
(80,23,o),
(115,-12,o),
(156,-12,cs)
);
},
{
closed = 1;
nodes = (
(196,289,o),
(229,324,o),
(229,363,cs),
(229,405,o),
(196,440,o),
(156,440,cs),
(115,440,o),
(80,405,o),
(80,363,cs),
(80,324,o),
(115,289,o),
(156,289,cs)
);
}
);
width = 309;
}
);
unicode = 58;
},
{
glyphname = semicolon;
lastChange = "2021-08-26 07:34:26 +0000";
layers = (
{
layerId = master01;
shapes = (
{
closed = 1;
nodes = (
(103,0,o),
(108,0,o),
(110,1,c),
(110,-71,o),
(36,-86,o),
(36,-86,c),
(36,-86,o),
(35,-119,o),
(36,-119,cs),
(140,-119,o),
(179,-20,o),
(180,48,c),
(180,89,o),
(158,134,o),
(102,134,cs),
(66,134,o),
(36,99,o),
(36,64,cs),
(36,31,o),
(67,0,o),
(100,0,cs)
);
},
{
closed = 1;
nodes = (
(143,300,o),
(171,329,o),
(171,363,cs),
(171,398,o),
(143,427,o),
(109,427,cs),
(74,427,o),
(45,398,o),
(45,363,cs),
(45,329,o),
(74,300,o),
(109,300,cs)
);
}
);
width = 270;
},
{
associatedMasterId = master01;
layerId = "7C7B3130-D28B-462C-85A7-59917ACED75E";
name = foreground;
shapes = (
{
closed = 1;
nodes = (
(180,289,o),
(213,324,o),
(213,363,cs),
(213,405,o),
(180,440,o),
(140,440,cs),
(99,440,o),
(64,405,o),
(64,363,cs),
(64,324,o),
(99,289,o),
(140,289,cs)
);
},
{
closed = 1;
nodes = (
(132,0,o),
(136,0,o),
(139,1,c),
(139,-76,o),
(60,-92,o),
(60,-92,c),
(60,-92,o),
(59,-131,o),
(60,-131,cs),
(171,-131,o),
(214,-21,o),
(214,50,c),
(214,94,o),
(190,142,o),
(131,142,cs),
(91,142,o),
(60,105,o),
(60,67,cs),
(60,32,o),
(92,0,o),
(129,0,cs)
);
}
);
width = 274;
}
);
unicode = 59;
},
{
glyphname = equal;
lastChange = "2021-08-26 07:34:26 +0000";
layers = (
{
hints = (
{
horizontal = 1;
place = (134,192);
target = (0,3);
type = Stem;
},
{
horizontal = 1;
origin = (0,3);
target = (0,2);
type = Stem;
},
{
origin = (0,3);
target = (0,0);
type = Stem;
}
);
layerId = master01;
shapes = (
{
closed = 1;
nodes = (
(476,326,l),
(476,406,l),
(101,406,l),
(101,326,l)
);
},
{
closed = 1;
nodes = (
(475,136,l),
(475,216,l),
(100,216,l),
(100,136,l)
);
}
);
width = 576;
},
{
associatedMasterId = master01;
layerId = "FCFF93B1-7D38-4FD5-A711-74071FE2EC06";
name = foreground;
shapes = (
{
closed = 1;
nodes = (
(443,320,l),
(443,418,l),
(68,418,l),
(68,320,l)
);
},
{
closed = 1;
nodes = (
(443,134,l),
(443,232,l),
(68,232,l),
(68,134,l)
);
}
);
width = 508;
}
);
unicode = 61;
},
{
glyphname = question;
lastChange = "2021-08-26 07:34:26 +0000";
layers = (
{
hints = (
{
horizontal = 1;
origin = (0,15);
target = (0,5);
type = Stem;
},
{
horizontal = 1;
origin = (1,11);
target = (1,5);
type = Stem;
},
{
origin = (0,11);
target = (0,12);
type = Stem;
},
{
origin = (0,21);
target = (0,24);
type = Stem;
},
{
origin = (0,18);
target = (0,2);
type = Stem;
},
{
origin = (1,8);
target = (1,2);
type = Stem;
}
);
layerId = master01;
shapes = (
{
closed = 1;
nodes = (
(279,380,o),
(463,311,o),
(463,530,cs),
(463,649,o),
(371,719,o),
(256,719,cs),
(180,719,o),
(108,685,o),
(72,623,c),
(57,597,o),
(48,566,o),
(48,530,c),
(130,530,l),
(130,587,o),
(181,639,o),
(255,639,cs),
(333,639,o),
(381,592,o),
(381,536,cs),
(381,372,o),
(188,437,o),
(188,216,cs),
(188,216,o),
(279,216,o),
(279,216,c)
);
},
{
closed = 1;
nodes = (
(258,-12,o),
(286,17,o),
(286,51,cs),
(286,86,o),
(258,115,o),
(224,115,cs),
(189,115,o),
(160,86,o),
(160,51,cs),
(160,17,o),
(189,-12,o),
(224,-12,cs)
);
}
);
width = 511;
},
{
associatedMasterId = master01;
layerId = "CB6FE323-AA22-456B-834C-E280C3EC3E3D";
name = foreground;
shapes = (
{
closed = 1;
nodes = (
(312,380,o),
(500,311,o),
(500,530,cs),
(500,649,o),
(404,719,o),
(289,719,c),
(209,719,o),
(137,685,o),
(101,623,c),
(86,597,o),
(77,566,o),
(77,530,c),
(174,530,l),
(174,587,o),
(210,636,o),
(288,636,c),
(366,636,o),
(405,592,o),
(405,536,cs),
(405,372,o),
(208,437,o),
(208,216,cs),
(208,216,o),
(312,216,o),
(312,216,c)
);
},
{
closed = 1;
nodes = (
(308,-12,o),
(341,23,o),
(341,62,cs),
(341,104,o),
(308,139,o),
(268,139,cs),
(227,139,o),
(192,104,o),
(192,62,cs),
(192,23,o),
(227,-12,o),
(268,-12,cs)
);
}
);
width = 587;
}
);
unicode = 63;
},
{
glyphname = at;
lastChange = "2021-08-26 07:34:26 +0000";
layers = (
{
layerId = master01;
shapes = (
{
closed = 1;
nodes = (
(367,144,o),
(339,218,o),
(348,292,cs),
(357,366,o),
(403,437,o),
(483,437,cs),
(564,437,o),
(594,362,o),
(586,288,cs),
(577,214,o),
(532,144,o),
(449,144,cs)
);
},
{
closed = 1;
nodes = (
(770,8,l),
(686,-45,o),
(608,-77,o),
(502,-77,cs),
(289,-77,o),
(165,84,o),
(165,281,cs),
(165,478,o),
(289,638,o),
(502,638,cs),
(711,638,o),
(821,512,o),
(821,348,cs),
(821,264,o),
(796,149,o),
(712,149,cs),
(686,149,o),
(659,171,o),
(661,207,c),
(696,502,l),
(618,502,l),
(608,419,l),
(591,479,o),
(533,512,o),
(480,512,cs),
(351,512,o),
(280,402,o),
(266,294,cs),
(251,169,o),
(313,67,o),
(426,67,cs),
(484,67,o),
(557,99,o),
(583,144,c),
(596,103,o),
(633,67,o),
(701,67,cs),
(866,67,o),
(905,249,o),
(905,348,cs),
(905,539,o),
(781,712,o),
(502,712,cs),
(223,712,o),
(81,512,o),
(81,279,cs),
(81,57,o),
(222,-151,o),
(502,-151,cs),
(639,-151,o),
(712,-112,o),
(808,-56,c)
);
}
);
width = 977;
}
);
unicode = 64;
},
{
glyphname = A;
lastChange = "2021-09-05 06:50:40 +0000";
layers = (
{
anchors = (
{
name = top;
pos = (307,712);
}
);
layerId = master01;
shapes = (
{
closed = 1;
nodes = (
(511,0,l),
(595,0,l),
(346,700,l),
(262,700,l)
);
},
{
closed = 1;
nodes = (
(261,700,l),
(12,0,l),
(96,0,l),
(345,700,l)
);
},
{
closed = 1;
nodes = (
(134,195,l),
(455,195,l),
(455,275,l),
(134,275,l)
);
}
);
width = 607;
}
);
unicode = 65;
},
{
glyphname = B;
lastChange = "2021-08-26 07:34:26 +0000";
layers = (
{
hints = (
{
horizontal = 1;
origin = (1,0);
target = (2,9);
type = Stem;
},
{
horizontal = 1;
origin = (2,10);
target = (0,9);
type = Stem;
},
{
horizontal = 1;
origin = (0,10);
target = (1,14);
type = Stem;
},
{
origin = (1,0);
target = (2,9);
type = Stem;
},
{
origin = (2,5);
target = (1,4);
type = Stem;
},
{
origin = (0,5);
target = (1,10);
type = Stem;
}
);
layerId = master01;
shapes = (
{
closed = 1;
nodes = (
(185,621,o),
(341,621,o),
(341,621,cs),
(414,621,o),
(468,591,o),
(468,524,cs),
(468,455,o),
(415,415,o),
(342,415,cs),
(185,415,l),
(185,621,l)
);
},
{
closed = 1;
nodes = (
(97,0,l),
(354,0,ls),
(514,0,o),
(598,79,o),
(598,206,cs),
(598,309,o),
(550,360,o),
(456,382,c),
(515,400,o),
(559,444,o),
(559,525,cs),
(559,641,o),
(483,701,o),
(346,701,cs),
(97,701,l)
);
},
{
closed = 1;
nodes = (
(185,335,o),
(364,335,o),
(364,335,c),
(456,335,o),
(506,289,o),
(506,206,cs),
(506,126,o),
(446,80,o),
(354,80,cs),
(185,80,l),
(185,335,l)
);
}
);
width = 652;
},
{
associatedMasterId = master01;
layerId = "B2778AA9-272F-47DA-B672-36E0A49462E6";
name = foreground;
shapes = (
{
closed = 1;
nodes = (
(201,608,o),
(362,608,o),
(362,608,c),
(428,608,o),
(473,575,o),
(473,515,cs),
(473,461,o),
(427,419,o),
(362,419,cs),
(201,419,l),
(201,608,l)
);
},
{
closed = 1;
nodes = (
(95,0,l),
(394,0,ls),
(546,0,o),
(621,101,o),
(621,194,cs),
(621,315,o),
(554,363,o),
(486,382,c),
(529,387,o),
(582,456,o),
(582,536,cs),
(582,620,o),
(516,701,o),
(379,701,cs),
(95,701,l)
);
},
{
closed = 1;
nodes = (
(201,326,o),
(374,326,o),
(374,326,c),
(461,326,o),
(506,283,o),
(506,209,cs),
(506,146,o),
(459,93,o),
(374,93,cs),
(201,93,l),
(201,326,l)
);
}
);
width = 671;
}
);
unicode = 66;
},
{
glyphname = C;
lastChange = "2021-08-26 07:34:26 +0000";
layers = (
{
anchors = (
{
name = bottom;
pos = (366,0);
},
{
name = top;
pos = (364,713);
}
);
layerId = master01;
shapes = (
{
closed = 1;
nodes = (
(523,-13,o),
(625,75,o),
(653,198,c),
(564,216,l),
(541,130,o),
(469,67,o),
(364,67,cs),
(220,67,o),
(145,194,o),
(145,357,cs),
(145,512,o),
(220,633,o),
(364,633,c),
(469,633,o),
(541,570,o),
(564,484,c),
(653,502,l),
(625,625,o),
(523,713,o),
(364,713,c),
(145,713,o),
(55,548,o),
(55,355,cs),
(55,171,o),
(144,-13,o),
(364,-13,cs)
);
}
);
width = 697;
},
{
associatedMasterId = master01;
layerId = "B03B6E58-C7A4-4549-B5DA-7F61DFFF8AA1";
name = foreground;
shapes = (
{
closed = 1;
nodes = (
(50,540,o),
(156,713,o),
(386,713,c),
(551,713,o),
(653,623,o),
(683,503,c),
(574,481,l),
(548,565,o),
(477,616,o),
(386,616,c),
(252,616,o),
(164,504,o),
(164,349,c),
(164,194,o),
(252,86,o),
(386,86,c),
(477,86,o),
(549,147,o),
(576,223,c),
(683,198,l),
(648,82,o),
(551,-12,o),
(386,-12,c),
(156,-12,o),
(50,158,o),
(50,347,c)
);
}
);
width = 718;
}
);
unicode = 67;
},
{
glyphname = D;
lastChange = "2021-08-26 07:34:26 +0000";
layers = (
{
anchors = (
{
name = top;
pos = (323,712);
}
);
layerId = master01;
shapes = (
{
closed = 1;
nodes = (
(534,507,o),
(453,620,o),
(292,620,cs),
(183,620,l),
(183,80,l),
(292,80,ls),
(453,80,o),
(534,192,o),
(534,350,cs)
);
},
{
closed = 1;
nodes = (
(626,141,o),
(519,0,o),
(289,0,cs),
(97,0,l),
(97,700,l),
(289,700,ls),
(519,700,o),
(626,560,o),
(626,349,cs)
);
}
);
width = 676;
},
{
associatedMasterId = master01;
layerId = "06695B29-B584-4CFA-B58E-873EFBF25244";
name = foreground;
shapes = (
{
closed = 1;
nodes = (
(535,700,o),
(646,542,o),
(646,356,cs),
(646,178,o),
(539,0,o),
(308,0,cs),
(95,0,l),
(95,700,l),
(305,700,ls)
);
},
{
closed = 1;
nodes = (
(445,91,o),
(532,200,o),
(532,356,cs),
(532,504,o),
(441,609,o),
(308,609,cs),
(205,609,l),
(205,91,l),
(308,91,ls)
);
}
);
width = 696;
}
);
unicode = 68;
},
{
glyphname = E;
lastChange = "2021-08-26 07:34:26 +0000";
layers = (
{
anchors = (
{
name = top;
pos = (305,712);
}
);
layerId = master01;
shapes = (
{
closed = 1;
nodes = (
(97,700,l),
(507,700,l),
(507,620,l),
(185,620,l),
(185,400,l),
(446,400,l),
(446,320,l),
(185,320,l),
(185,80,l),
(507,80,l),
(507,0,l),
(97,0,l)
);
}
);
width = 564;
},
{
associatedMasterId = master01;
layerId = "A977A26C-359E-4C6D-9AFD-AF1AE6B4AD04";
name = foreground;
shapes = (
{
closed = 1;
nodes = (
(90,700,l),
(546,700,l),
(546,608,l),
(196,608,l),
(196,405,l),
(485,405,l),
(485,313,l),
(196,313,l),
(196,92,l),
(546,92,l),
(546,0,l),
(90,0,l)
);
}
);
width = 596;
}
);
unicode = 69;
},
{
glyphname = F;
lastChange = "2021-08-26 07:34:26 +0000";
layers = (
{
layerId = master01;
shapes = (
{
closed = 1;
nodes = (
(97,700,l),
(507,700,l),
(507,620,l),
(185,620,l),
(185,400,l),
(446,400,l),
(446,320,l),
(185,320,l),
(185,0,l),
(97,0,l)
);
}
);
width = 541;
},
{
associatedMasterId = master01;
layerId = "A8DBB783-FE60-44AC-AE41-AD44FD5FD283";
name = foreground;
shapes = (
{
closed = 1;
nodes = (
(95,0,l),
(95,700,l),
(551,700,l),
(551,608,l),
(201,608,l),
(201,404,l),
(490,404,l),
(490,312,l),
(201,312,l),
(201,0,l)
);
}
);
width = 581;
}
);
unicode = 70;
},
{
glyphname = G;
lastChange = "2021-08-26 07:34:26 +0000";
layers = (
{
anchors = (
{
name = top;
pos = (363,724);
}
);
layerId = master01;
shapes = (
{
closed = 1;
nodes = (
(55,548,o),
(145,713,o),
(364,713,c),
(523,713,o),
(625,625,o),
(653,502,c),
(564,484,l),
(541,570,o),
(469,633,o),
(364,633,c),
(220,633,o),
(145,512,o),
(145,357,cs),
(145,194,o),
(217,67,o),
(361,67,cs),
(466,67,o),
(568,158,o),
(568,284,c),
(410,284,l),
(410,368,l),
(657,368,l),
(657,0,l),
(588,0,l),
(588,0,o),
(575,107,o),
(575,107,c),
(535,30,o),
(458,-12,o),
(374,-12,c),
(147,-12,o),
(55,158,o),
(55,355,cs)
);
}
);
width = 723;
},
{
associatedMasterId = master01;
layerId = "CB3D37D9-D998-4BEF-81F7-6BF9414937DB";
name = foreground;
shapes = (
{
closed = 1;
nodes = (
(156,-12,o),
(50,158,o),
(50,347,c),
(50,540,o),
(156,713,o),
(386,713,c),
(551,713,o),
(652,623,o),
(683,503,c),
(570,481,l),
(548,553,o),
(477,618,o),
(386,618,c),
(252,618,o),
(165,504,o),
(165,349,c),
(165,194,o),
(250,94,o),
(391,94,c),
(487,94,o),
(577,179,o),
(577,274,c),
(419,274,l),
(419,368,l),
(704,368,l),
(704,0,l),
(608,0,l),
(608,0,o),
(608,143,o),
(608,143,c),
(583,27,o),
(467,-12,o),
(383,-12,c)
);
}
);
width = 768;
}
);
unicode = 71;
},
{
glyphname = H;
lastChange = "2021-08-26 07:34:26 +0000";
layers = (
{
hints = (
{
horizontal = 1;
origin = (0,10);
target = (0,5);
type = Stem;
},
{
origin = (0,8);
target = (0,9);
type = Stem;
},
{
origin = (0,0);
target = (0,1);
type = Stem;
}
);
layerId = master01;
shapes = (
{
closed = 1;
nodes = (
(517,0,l),
(605,0,l),
(605,700,l),
(517,700,l),
(517,404,l),
(183,404,l),
(183,700,l),
(95,700,l),
(95,0,l),
(183,0,l),
(183,324,l),
(517,324,l)
);
}
);
width = 700;
},
{
associatedMasterId = master01;
layerId = "767EE966-09EE-4F15-A2D2-031D2049D6EC";
name = foreground;
shapes = (
{
closed = 1;
nodes = (
(534,0,l),
(640,0,l),
(640,700,l),
(534,700,l),
(534,404,l),
(196,404,l),
(196,700,l),
(90,700,l),
(90,0,l),
(196,0,l),
(196,312,l),
(534,312,l)
);
}
);
width = 730;
}
);
unicode = 72;
},
{
glyphname = I;
lastChange = "2021-08-26 07:34:26 +0000";
layers = (
{
anchors = (
{
name = top;
pos = (238,712);
}
);
hints = (
{
horizontal = 1;
origin = (0,10);
target = (0,9);
type = Stem;
},
{
horizontal = 1;
origin = (0,5);
target = (0,6);
type = Stem;
},
{
horizontal = 1;
origin = (0,10);
target = (0,1);
type = Stem;
},
{
origin = (0,8);
target = (0,11);
type = Stem;
},
{
origin = (0,8);
target = (0,1);
type = Stem;
},
{
origin = (0,10);
target = (0,1);
type = Stem;
}
);
layerId = master01;
shapes = (
{
closed = 1;
nodes = (
(401,76,l),
(282,76,l),
(282,624,l),
(401,624,l),
(401,700,l),
(75,700,l),
(75,624,l),
(194,624,l),
(194,74,l),
(75,74,l),
(75,0,l),
(401,0,l)
);
}
);
width = 476;
},
{
associatedMasterId = master01;
layerId = "7531A638-AF93-42CE-98F8-0983E097DA89";
name = foreground;
shapes = (
{
closed = 1;
nodes = (
(416,94,l),
(306,94,l),
(306,608,l),
(416,608,l),
(416,700,l),
(90,700,l),
(90,608,l),
(200,608,l),
(200,92,l),
(90,92,l),
(90,0,l),
(416,0,l)
);
}
);
width = 506;
}
);
unicode = 73;
},
{
glyphname = J;
lastChange = "2021-08-26 07:34:26 +0000";
layers = (
{
anchors = (
{
name = top;
pos = (368,720);
}
);
layerId = master01;
shapes = (
{
closed = 1;
nodes = (
(108,120,o),
(142,72,o),
(207,72,c),
(298,72,o),
(325,133,o),
(325,240,cs),
(325,700,l),
(413,700,l),
(413,241,ls),
(413,70,o),
(357,-12,o),
(211,-12,c),
(97,-12,o),
(28,56,o),
(10,173,c),
(94,200,l)
);
}
);
width = 495;
},
{
associatedMasterId = master01;
layerId = "7D5A962D-9C0D-4DF1-88D2-B6BD600C45BA";
name = foreground;
shapes = (
{
closed = 1;
nodes = (
(126,118,o),
(160,85,o),
(214,86,c),
(307,86,o),
(327,162,o),
(327,229,cs),
(327,700,l),
(433,700,l),
(433,230,ls),
(433,134,o),
(410,-12,o),
(218,-12,c),
(113,-12,o),
(29,48,o),
(10,164,c),
(109,197,l)
);
}
);
width = 513;
}
);
unicode = 74;
},
{
glyphname = K;
lastChange = "2021-08-26 07:34:26 +0000";
layers = (
{
hints = (
{
horizontal = 1;
origin = (0,0);
target = (0,11);
type = Stem;
},
{
origin = (0,0);
target = (0,1);
type = Stem;
}
);
layerId = master01;
shapes = (
{
closed = 1;
nodes = (
(95,0,l),
(183,0,l),
(183,242,l),
(271,343,l),
(488,0,l),
(600,0,l),
(332,404,l),
(582,700,l),
(475,700,l),
(183,361,l),
(183,700,l),
(95,700,l)
);
}
);
width = 615;
},
{
associatedMasterId = master01;
layerId = "08AA5D7D-8610-445E-8CED-4DCF5FBF5B32";
name = foreground;
shapes = (
{
closed = 1;
nodes = (
(94,0,l),
(200,0,l),
(200,248,l),
(278,333,l),
(515,0,l),
(645,0,l),
(349,408,l),
(621,700,l),
(491,700,l),
(200,381,l),
(200,700,l),
(94,700,l)
);
}
);
width = 655;
}
);
unicode = 75;
},
{
glyphname = L;
lastChange = "2021-08-26 07:34:26 +0000";
layers = (
{
anchors = (
{
name = top;
pos = (139,712);
}
);
hints = (
{
horizontal = 1;
origin = (0,2);
target = (0,3);
type = Stem;
},
{
origin = (0,2);
target = (0,1);
type = Stem;
}
);
layerId = master01;
shapes = (
{
closed = 1;
nodes = (
(506,80,l),
(506,0,l),
(95,0,l),
(95,700,l),
(183,700,l),
(183,80,l)
);
}
);
width = 524;
},
{
associatedMasterId = master01;
layerId = "709592C3-DB4C-47AA-8876-5A583F256C89";
name = foreground;
shapes = (
{
closed = 1;
nodes = (
(513,96,l),
(513,0,l),
(90,0,l),
(90,700,l),
(196,700,l),
(196,96,l)
);
}
);
width = 528;
}
);
unicode = 76;
},
{
glyphname = M;
lastChange = "2021-08-26 07:34:26 +0000";
layers = (
{
hints = (
{
horizontal = 1;
origin = (0,9);
target = (0,8);
type = Stem;
},
{
origin = (0,9);
target = (0,10);
type = Stem;
},
{
place = (672,88);
type = Stem;
}
);
layerId = master01;
shapes = (
{
closed = 1;
nodes = (
(484,62,l),
(685,562,l),
(685,0,l),
(773,0,l),
(773,700,l),
(651,700,l),
(434,164,l),
(217,700,l),
(95,700,l),
(95,0,l),
(183,0,l),
(183,562,l),
(389,62,l)
);
}
);
width = 868;
},
{
associatedMasterId = master01;
layerId = "CA1B1FD6-294F-47BB-99AD-78D1808B8BBA";
name = foreground;
shapes = (
{
closed = 1;
nodes = (
(200,0,l),
(200,538,l),
(368,137,l),
(481,137,l),
(649,535,l),
(649,0,l),
(755,0,l),
(755,700,l),
(607,700,l),
(426,268,l),
(243,700,l),
(94,700,l),
(94,0,l)
);
}
);
width = 849;
}
);
unicode = 77;
},
{
glyphname = N;
lastChange = "2021-08-26 07:34:26 +0000";
layers = (
{
anchors = (
{
name = top;
pos = (363,712);
}
);
hints = (
{
horizontal = 1;
origin = (0,9);
target = (0,8);
type = Stem;
},
{
origin = (0,9);
target = (0,0);
type = Stem;
},
{
origin = (0,6);
target = (0,3);
type = Stem;
}
);
layerId = master01;
shapes = (
{
closed = 1;
nodes = (
(183,0,l),
(183,578,l),
(503,0,l),
(618,0,l),
(618,700,l),
(530,700,l),
(530,126,l),
(223,700,l),
(95,700,l),
(95,0,l)
);
}
);
width = 713;
},
{
associatedMasterId = master01;
layerId = "0588BE4C-E1DC-4D10-B2ED-A5B0C3E90302";
name = foreground;
shapes = (
{
closed = 1;
nodes = (
(200,0,l),
(200,542,l),
(502,0,l),
(635,0,l),
(635,700,l),
(529,700,l),
(529,158,l),
(240,700,l),
(94,700,l),
(94,0,l)
);
}
);
width = 729;
}
);
unicode = 78;
},
{
glyphname = O;
lastChange = "2021-08-26 07:34:26 +0000";
layers = (
{
anchors = (
{
name = top;
pos = (372,721);
}
);
hints = (
{
horizontal = 1;
origin = (0,11);
target = (2,11);
type = Stem;
},
{
horizontal = 1;
origin = (2,5);
target = (0,5);
type = Stem;
},
{
origin = (0,8);
target = (2,2);
type = Stem;
},
{
origin = (2,8);
target = (0,2);
type = Stem;
}
);
layerId = master01;
shapes = (
{
closed = 1;
nodes = (
(596,-11,o),
(689,158,o),
(689,351,cs),
(689,544,o),
(596,713,o),
(372,713,cs),
(148,713,o),
(55,544,o),
(55,351,cs),
(55,158,o),
(148,-11,o),
(372,-11,cs)
);
},
{
closed = 0;
nodes = (
(372,-11,l)
);
},
{
closed = 1;
nodes = (
(225,69,o),
(147,196,o),
(147,351,cs),
(147,506,o),
(225,633,o),
(372,633,cs),
(529,633,o),
(597,506,o),
(597,351,cs),
(597,196,o),
(529,69,o),
(372,69,cs)
);
},
{
closed = 0;
nodes = (
(372,713,l)
);
}
);
width = 744;
},
{
associatedMasterId = master01;
layerId = "1E35F290-6AA7-4BE9-AB09-67F845E701DA";
name = foreground;
shapes = (
{
closed = 1;
nodes = (
(155,-13,o),
(50,171,o),
(50,355,cs),
(50,548,o),
(156,713,o),
(386,713,c),
(616,713,o),
(722,548,o),
(722,355,cs),
(722,171,o),
(617,-13,o),
(386,-13,c)
);
},
{
closed = 1;
nodes = (
(252,617,o),
(162,512,o),
(162,357,cs),
(162,194,o),
(248,83,o),
(386,83,c),
(524,83,o),
(610,194,o),
(610,357,cs),
(610,512,o),
(520,617,o),
(386,617,c)
);
}
);
width = 772;
}
);
unicode = 79;
},
{
glyphname = P;
lastChange = "2021-08-26 07:34:26 +0000";
layers = (
{
hints = (
{
horizontal = 1;
origin = (1,9);
target = (0,7);
type = Stem;
},
{
horizontal = 1;
origin = (0,8);
target = (1,6);
type = Stem;
},
{
origin = (1,7);
target = (0,7);
type = Stem;
},
{
origin = (0,3);
target = (1,2);
type = Stem;
},
{
origin = (1,7);
target = (1,8);
type = Stem;
}
);
layerId = master01;
shapes = (
{
closed = 1;
nodes = (
(344,621,ls),
(417,621,o),
(477,573,o),
(477,473,cs),
(477,376,o),
(417,332,o),
(343,332,cs),
(183,332,l),
(183,621,l)
);
},
{
closed = 1;
nodes = (
(485,252,o),
(567,342,o),
(567,471,cs),
(567,615,o),
(476,701,o),
(346,701,cs),
(95,701,l),
(95,-1,l),
(185,-1,l),
(185,252,l),
(344,252,l)
);
}
);
width = 602;
},
{
associatedMasterId = master01;
layerId = "7FCCACBF-61D8-41EB-96D9-CCFCE935C285";
name = foreground;
shapes = (
{
closed = 1;
nodes = (
(335,614,ls),
(408,614,o),
(463,573,o),
(463,473,cs),
(463,376,o),
(408,343,o),
(334,343,cs),
(200,343,l),
(200,614,l)
);
},
{
closed = 1;
nodes = (
(491,252,o),
(573,342,o),
(573,471,cs),
(573,615,o),
(482,701,o),
(352,701,cs),
(94,701,l),
(94,-1,l),
(202,-1,l),
(202,252,l),
(350,252,l)
);
}
);
width = 603;
}
);
unicode = 80;
},
{
glyphname = Q;
lastChange = "2021-08-26 07:34:26 +0000";
layers = (
{
layerId = master01;
shapes = (
{
closed = 1;
nodes = (
(702,37,l),
(492,264,l),
(438,217,l),
(437,216,o),
(646,-8,o),
(646,-12,c)
);
},
{
closed = 1;
nodes = (
(596,-11,o),
(689,158,o),
(689,351,cs),
(689,544,o),
(596,713,o),
(372,713,cs),
(148,713,o),
(55,544,o),
(55,351,cs),
(55,158,o),
(148,-11,o),
(372,-11,cs)
);
},
{
closed = 0;
nodes = (
(372,-11,l)
);
},
{
closed = 1;
nodes = (
(215,69,o),
(147,196,o),
(147,351,cs),
(147,506,o),
(215,633,o),
(372,633,cs),
(529,633,o),
(597,506,o),
(597,351,cs),
(597,196,o),
(529,69,o),
(372,69,cs)
);
},
{
closed = 0;
nodes = (
(372,713,l)
);
}
);
width = 752;
},
{
associatedMasterId = master01;
layerId = "EFBC5A6F-D367-4A7A-A5FC-DD2D16B712CA";
name = foreground;
shapes = (
{
closed = 1;
nodes = (
(410,270,l),
(486,340,l),
(758,54,l),
(681,-12,l)
);
},
{
closed = 1;
nodes = (
(155,-13,o),
(50,171,o),
(50,355,cs),
(50,548,o),
(156,713,o),
(386,713,c),
(616,713,o),
(722,548,o),
(722,355,cs),
(722,171,o),
(617,-13,o),
(386,-13,c)
);
},
{
closed = 1;
nodes = (
(252,617,o),
(162,512,o),
(162,357,cs),
(162,194,o),
(248,83,o),
(386,83,c),
(524,83,o),
(610,194,o),
(610,357,cs),
(610,512,o),
(520,617,o),
(386,617,c)
);
}
);
width = 817;
}
);
unicode = 81;
},
{
glyphname = R;
lastChange = "2021-08-26 07:34:26 +0000";
layers = (
{
anchors = (
{
name = top;
pos = (309,720);
}
);
hints = (
{
horizontal = 1;
origin = (1,12);
target = (0,7);
type = Stem;
},
{
horizontal = 1;
origin = (1,9);
target = (0,8);
type = Stem;
},
{
origin = (1,10);
target = (0,7);
type = Stem;
},
{
origin = (0,3);
target = (1,5);
type = Stem;
},
{
origin = (1,10);
target = (1,11);
type = Stem;
}
);
layerId = master01;
shapes = (
{
closed = 1;
nodes = (
(349,620,ls),
(423,620,o),
(475,561,o),
(475,498,c),
(475,427,o),
(421,372,o),
(348,372,cs),
(183,372,l),
(183,620,l)
);
},
{
closed = 1;
nodes = (
(500,0,l),
(604,0,l),
(426,306,l),
(520,340,o),
(565,421,o),
(565,498,cs),
(565,588,o),
(515,700,o),
(348,700,cs),
(95,700,l),
(95,0,l),
(185,0,l),
(185,292,l),
(336,292,l)
);
}
);
width = 646;
},
{
associatedMasterId = master01;
layerId = "AC853CD9-4D5C-4A9A-82EA-746798F3E6E3";
name = foreground;
shapes = (
{
closed = 1;
nodes = (
(346,606,ls),
(420,606,o),
(463,561,o),
(463,498,c),
(463,427,o),
(418,386,o),
(345,386,cs),
(200,386,l),
(200,606,l)
);
},
{
closed = 1;
nodes = (
(487,0,l),
(612,0,l),
(434,306,l),
(528,340,o),
(573,421,o),
(573,498,cs),
(573,588,o),
(523,700,o),
(356,700,cs),
(94,700,l),
(94,0,l),
(202,0,l),
(202,292,l),
(323,292,l)
);
}
);
width = 652;
}
);
unicode = 82;
},
{
glyphname = S;
lastChange = "2021-09-30 21:37:25 +0000";
layers = (
{
anchors = (
{
name = top;
pos = (314,720);
}
);
hints = (
{
horizontal = 1;
origin = (0,28);
target = (0,21);
type = Stem;
},
{
horizontal = 1;
origin = (0,12);
target = (0,5);
type = Stem;
},
{
origin = (0,15);
target = (0,2);
type = Stem;
},
{
origin = (0,18);
target = (0,31);
type = Stem;
}
);
layerId = master01;
shapes = (
{
closed = 1;
nodes = (
(564,462,o),
(162,336,o),
(162,521,cs),
(162,591,o),
(231,632,o),
(306,632,cs),
(406,632,o),
(454,572,o),
(464,513,c),
(557,513,l),
(552,603,o),
(466,712,o),
(313,712,c),
(148,712,o),
(74,618,o),
(74,516,c),
(74,240,o),
(476,375,o),
(476,186,c),
(477,114,o),
(404,68,o),
(316,68,c),
(222,70,o),
(161,129,o),
(147,214,c),
(50,214,l),
(63,99,o),
(141,-12,o),
(316,-12,c),
(461,-12,o),
(564,58,o),
(564,195,c)
);
}
);
width = 621;
},
{
associatedMasterId = master01;
layerId = "917E4443-A1CA-4121-BF2B-9D5AF53FD226";
name = foreground;
shapes = (
{
closed = 1;
nodes = (
(271,419,o),
(184,433,o),
(184,521,cs),
(184,591,o),
(247,623,o),
(322,623,cs),
(422,623,o),
(473,572,o),
(483,513,c),
(585,513,l),
(580,603,o),
(502,712,o),
(329,712,c),
(164,712,o),
(82,618,o),
(82,516,c),
(82,368,o),
(176,334,o),
(286,313,c),
(397,296,o),
(492,287,o),
(492,186,c),
(493,114,o),
(422,79,o),
(334,79,c),
(240,81,o),
(175,129,o),
(161,214,c),
(58,214,l),
(71,99,o),
(159,-12,o),
(334,-12,c),
(479,-12,o),
(592,58,o),
(592,195,c),
(592,340,o),
(493,376,o),
(364,401,c)
);
}
);
width = 643;
},
{
associatedMasterId = master01;
layerId = "C07C9857-C18C-48E6-9123-EFA8357277D3";
name = "8 Jul 21, 13:25";
shapes = (
{
closed = 1;
nodes = (
(271,419,o),
(184,433,o),
(184,521,cs),
(184,591,o),
(247,623,o),
(322,623,cs),
(422,623,o),
(473,572,o),
(483,513,c),
(585,513,l),
(580,603,o),
(502,712,o),
(329,712,c),
(164,712,o),
(82,618,o),
(82,516,c),
(82,368,o),
(176,334,o),
(286,313,c),
(397,296,o),
(492,287,o),
(492,186,c),
(493,114,o),
(422,79,o),
(334,79,c),
(240,81,o),
(175,129,o),
(161,214,c),
(58,214,l),
(71,99,o),
(159,-12,o),
(334,-12,c),
(479,-12,o),
(592,58,o),
(592,195,c),
(592,340,o),
(493,376,o),
(364,401,c)
);
},
{
closed = 1;
nodes = (
(271,419,o),
(184,433,o),
(184,521,cs),
(184,591,o),
(247,623,o),
(322,623,cs),
(422,623,o),
(473,572,o),
(483,513,c),
(585,513,l),
(580,603,o),
(502,712,o),
(329,712,c),
(164,712,o),
(82,618,o),
(82,516,c),
(82,368,o),
(176,334,o),
(286,313,c),
(397,296,o),
(492,287,o),
(492,186,c),
(493,114,o),
(422,79,o),
(334,79,c),
(240,81,o),
(175,129,o),
(161,214,c),
(58,214,l),
(71,99,o),
(159,-12,o),
(334,-12,c),
(479,-12,o),
(592,58,o),
(592,195,c),
(592,340,o),
(493,376,o),
(364,401,c)
);
}
);
width = 643;
},
{
anchors = (
{
name = top;
pos = (311,720);
}
);
associatedMasterId = master01;
hints = (
{
horizontal = 1;
origin = (0,31);
target = (0,24);
type = Stem;
},
{
horizontal = 1;
origin = (0,12);
target = (0,5);
type = Stem;
},
{
origin = (0,15);
target = (0,2);
type = Stem;
},
{
origin = (0,21);
target = (0,34);
type = Stem;
}
);
layerId = "AA6848CB-AEE8-43E1-A86C-A0496DF06434";
name = "1 Oct 21, 07:21";
shapes = (
{
closed = 1;
nodes = (
(253,413,o),
(162,433,o),
(162,521,cs),
(162,591,o),
(231,632,o),
(306,632,cs),
(406,632,o),
(451,572,o),
(461,513,c),
(557,513,l),
(552,603,o),
(486,712,o),
(313,712,c),
(148,712,o),
(74,618,o),
(74,516,c),
(74,380,o),
(168,338,o),
(268,317,c),
(379,291,o),
(476,287,o),
(476,186,c),
(477,114,o),
(404,68,o),
(316,68,c),
(222,70,o),
(161,129,o),
(147,214,c),
(50,214,l),
(63,99,o),
(141,-12,o),
(316,-12,c),
(461,-12,o),
(564,58,o),
(564,195,c),
(564,340,o),
(465,370,o),
(346,395,c)
);
},
{
closed = 1;
nodes = (
(253,413,o),
(162,433,o),
(162,521,cs),
(162,591,o),
(231,632,o),
(306,632,cs),
(406,632,o),
(451,572,o),
(461,513,c),
(557,513,l),
(552,603,o),
(486,712,o),
(313,712,c),
(148,712,o),
(74,618,o),
(74,516,c),
(74,380,o),
(168,338,o),
(268,317,c),
(379,291,o),
(476,287,o),
(476,186,c),
(477,114,o),
(404,68,o),
(316,68,c),
(222,70,o),
(161,129,o),
(147,214,c),
(50,214,l),
(63,99,o),
(141,-12,o),
(316,-12,c),
(461,-12,o),
(564,58,o),
(564,195,c),
(564,340,o),
(465,370,o),
(346,395,c)
);
}
);
visible = 1;
width = 621;
}
);
unicode = 83;
},
{
glyphname = T;
lastChange = "2021-08-26 07:34:26 +0000";
layers = (
{
anchors = (
{
name = bottom;
pos = (247,0);
},
{
name = top;
pos = (248,712);
}
);
hints = (
{
horizontal = 1;
origin = (0,3);
target = (0,4);
type = Stem;
},
{
origin = (0,6);
target = (0,7);
type = Stem;
}
);
layerId = master01;
shapes = (
{
closed = 1;
nodes = (
(293,620,l),
(483,620,l),
(483,700,l),
(15,700,l),
(15,620,l),
(205,620,l),
(205,0,l),
(293,0,l)
);
}
);
width = 498;
},
{
associatedMasterId = master01;
layerId = "B6AB5140-E37C-42F2-A30F-777986DD981C";
name = foreground;
shapes = (
{
closed = 1;
nodes = (
(318,608,l),
(517,608,l),
(517,700,l),
(5,700,l),
(5,608,l),
(212,608,l),
(212,0,l),
(318,0,l)
);
}
);
width = 522;
}
);
unicode = 84;
},
{
glyphname = U;
lastChange = "2021-08-26 07:34:26 +0000";
layers = (
{
anchors = (
{
name = top;
pos = (341,712);
}
);
hints = (
{
horizontal = 1;
origin = (0,8);
target = (0,0);
type = Stem;
},
{
origin = (0,5);
target = (0,2);
type = Stem;
},
{
place = (507,113);
type = Stem;
}
);
layerId = master01;
shapes = (
{
closed = 1;
nodes = (
(240,73,o),
(170,139,o),
(170,275,cs),
(170,701,l),
(82,701,l),
(82,275,ls),
(82,98,o),
(178,-12,o),
(341,-12,cs),
(507,-12,o),
(592,98,o),
(592,275,cs),
(592,701,l),
(504,701,l),
(504,275,ls),
(504,139,o),
(430,73,o),
(337,73,cs)
);
}
);
width = 674;
},
{
associatedMasterId = master01;
layerId = "5FB1FA1A-EB05-444A-B8AE-D1ED2DC196B0";
name = foreground;
shapes = (
{
closed = 1;
nodes = (
(258,91,o),
(181,142,o),
(181,278,cs),
(181,701,l),
(70,701,l),
(70,278,ls),
(70,101,o),
(156,-12,o),
(356,-12,c),
(523,-12,o),
(620,102,o),
(620,280,cs),
(620,700,l),
(507,700,l),
(507,279,ls),
(507,142,o),
(447,91,o),
(352,91,c)
);
}
);
width = 690;
}
);
unicode = 85;
},
{
glyphname = V;
lastChange = "2021-08-26 07:34:26 +0000";
layers = (
{
layerId = master01;
shapes = (
{
closed = 1;
nodes = (
(338,0,l),
(582,700,l),
(498,700,l),
(254,0,l)
);
},
{
closed = 1;
nodes = (
(92,700,l),
(8,700,l),
(253,0,l),
(337,0,l)
);
}
);
width = 590;
},
{
associatedMasterId = master01;
layerId = "0FF30111-47E3-4533-B04A-7E0F4FCC8B75";
name = foreground;
shapes = (
{
closed = 1;
nodes = (
(246,0,l),
(356,0,l),
(120,701,l),
(10,701,l)
);
},
{
closed = 1;
nodes = (
(515,701,l),
(279,0,l),
(385,0,l),
(621,701,l)
);
}
);
width = 631;
}
);
unicode = 86;
},
{
glyphname = W;
lastChange = "2021-08-26 07:34:26 +0000";
layers = (
{
anchors = (
{
name = top;
pos = (463,712);
}
);
layerId = master01;
shapes = (
{
closed = 1;
nodes = (
(409,700,l),
(238,116,l),
(121,700,l),
(28,700,l),
(178,0,l),
(293,0,l),
(463,569,l),
(633,0,l),
(748,0,l),
(898,700,l),
(805,700,l),
(688,116,l),
(517,700,l)
);
}
);
width = 926;
},
{
associatedMasterId = master01;
layerId = "D6814062-5E09-4D1C-9A77-973156DD01C6";
name = foreground;
shapes = (
{
closed = 1;
nodes = (
(347,563,l),
(209,162,l),
(127,700,l),
(24,700,l),
(137,0,l),
(260,0,l),
(398,432,l),
(536,0,l),
(659,0,l),
(772,700,l),
(671,700,l),
(591,162,l),
(451,563,l)
);
}
);
width = 796;
}
);
unicode = 87;
},
{
glyphname = X;
lastChange = "2021-08-26 07:34:26 +0000";
layers = (
{
layerId = master01;
shapes = (
{
closed = 1;
nodes = (
(557,0,l),
(128,700,l),
(27,700,l),
(457,0,l)
);
},
{
closed = 1;
nodes = (
(546,700,l),
(446,700,l),
(17,0,l),
(116,0,l)
);
}
);
width = 574;
},
{
associatedMasterId = master01;
layerId = "246BAF68-6253-4F28-9414-8F7B7433EFF2";
name = foreground;
shapes = (
{
closed = 1;
nodes = (
(620,0,l),
(149,700,l),
(22,700,l),
(494,0,l)
);
},
{
closed = 1;
nodes = (
(620,700,l),
(497,700,l),
(26,0,l),
(148,0,l)
);
}
);
width = 649;
}
);
unicode = 88;
},
{
glyphname = Y;
lastChange = "2021-09-05 06:50:22 +0000";
layers = (
{
anchors = (
{
name = top;
pos = (299,712);
}
);
hints = (
{
horizontal = 1;
origin = (0,8);
target = (0,6);
type = Stem;
},
{
origin = (0,8);
target = (0,0);
type = Stem;
}
);
layerId = master01;
shapes = (
{
closed = 1;
nodes = (
(339,0,l),
(336,309,l),
(577,700,l),
(484,700,l),
(293,390,l),
(105,700,l),
(5,700,l),
(254,309,l),
(251,0,l)
);
}
);
width = 582;
},
{
associatedMasterId = master01;
layerId = "8B946DEB-BFC8-4419-BD29-DE4D27CA2D95";
name = foreground;
shapes = (
{
closed = 1;
nodes = (
(345,0,l),
(345,309,l),
(580,700,l),
(462,700,l),
(296,404,l),
(127,700,l),
(2,700,l),
(239,309,l),
(239,0,l)
);
}
);
width = 582;
}
);
unicode = 89;
},
{
glyphname = Z;
lastChange = "2021-08-26 07:34:26 +0000";
layers = (
{
anchors = (
{
name = top;
pos = (280,712);
}
);
hints = (
{
horizontal = 1;
origin = (0,9);
target = (0,2);
type = Stem;
},
{
horizontal = 1;
origin = (0,5);
target = (0,6);
type = Stem;
},
{
origin = (0,9);
target = (0,0);
type = Stem;
}
);
layerId = master01;
shapes = (
{
closed = 1;
nodes = (
(504,1,l),
(504,81,l),
(149,81,l),
(504,618,l),
(504,700,l),
(45,700,l),
(45,620,l),
(400,620,l),
(45,83,l),
(45,1,l)
);
}
);
width = 554;
},
{
associatedMasterId = master01;
layerId = "2E06CB95-C68F-4397-AF31-B6A751E83E1E";
name = foreground;
shapes = (
{
closed = 1;
nodes = (
(529,1,l),
(529,93,l),
(162,93,l),
(529,606,l),
(529,700,l),
(40,700,l),
(40,608,l),
(407,608,l),
(40,95,l),
(40,1,l)
);
}
);
width = 569;
}
);
unicode = 90;
},
{
glyphname = bracketleft;
lastChange = "2021-08-26 07:34:26 +0000";
layers = (
{
layerId = master01;
shapes = (
{
closed = 1;
nodes = (
(95,-51,l),
(344,-51,l),
(344,25,l),
(175,25,l),
(175,678,l),
(345,678,l),
(345,754,l),
(95,753,l)
);
}
);
width = 383;
}
);
unicode = 91;
},
{
glyphname = backslash;
lastChange = "2021-08-26 07:34:26 +0000";
layers = (
{
layerId = master01;
shapes = (
{
closed = 1;
nodes = (
(88,720,l),
(4,720,l),
(297,0,l),
(381,0,l)
);
}
);
width = 400;
},
{
associatedMasterId = master01;
layerId = "343D6EAE-1DF2-4E0E-B6B5-032545DCA862";
name = foreground;
shapes = (
{
closed = 1;
nodes = (
(82,720,l),
(-5,720,l),
(288,0,l),
(375,0,l)
);
}
);
width = 385;
}
);
unicode = 92;
},
{
glyphname = bracketright;
lastChange = "2021-08-26 07:34:26 +0000";
layers = (
{
layerId = master01;
shapes = (
{
closed = 1;
nodes = (
(38,754,l),
(38,678,l),
(208,678,l),
(208,25,l),
(39,25,l),
(39,-51,l),
(288,-51,l),
(288,753,l)
);
}
);
width = 383;
}
);
unicode = 93;
},
{
glyphname = underscore;
lastChange = "2021-08-26 07:34:26 +0000";
layers = (
{
hints = (
{
horizontal = 1;
origin = (0,3);
target = (0,2);
type = Stem;
},
{
origin = (0,3);
target = (0,0);
type = Stem;
}
);
layerId = master01;
shapes = (
{
closed = 1;
nodes = (
(516,0,l),
(516,80,l),
(30,80,l),
(30,0,l)
);
}
);
width = 546;
},
{
associatedMasterId = master01;
layerId = "1AB4D43C-2735-4A3F-815D-32BCD16357D5";
name = foreground;
shapes = (
{
closed = 1;
nodes = (
(546,0,l),
(546,98,l),
(60,98,l),
(60,0,l)
);
}
);
width = 606;
}
);
unicode = 95;
},
{
glyphname = a;
lastChange = "2022-12-27 04:56:28 +0000";
layers = (
{
anchors = (
{
name = top;
pos = (286,516);
}
);
hints = (
{
horizontal = 1;
place = (-12,76);
type = Stem;
},
{
horizontal = 1;
place = (239,76);
type = Stem;
},
{
horizontal = 1;
place = (512,76);
type = Stem;
},
{
horizontal = 1;
place = (0,95);
type = Stem;
},
{
place = (56,84);
type = Stem;
},
{
place = (365,84);
type = Stem;
}
);
layerId = master01;
shapes = (
{
closed = 1;
nodes = (
(186,63,o),
(138,148,o),
(138,252,cs),
(138,356,o),
(186,437,o),
(284,437,cs),
(383,437,o),
(437,360,o),
(437,250,cs),
(437,148,o),
(383,65,o),
(287,64,cs)
);
},
{
closed = 1;
nodes = (
(521,0,l),
(522,500,l),
(441,500,l),
(441,402,l),
(420,457,o),
(368,512,o),
(280,512,cs),
(149,512,o),
(54,419,o),
(54,250,cs),
(54,86,o),
(144,-12,o),
(275,-12,cs),
(344,-12,o),
(417,27,o),
(438,96,c),
(438,0,l)
);
},
{
closed = 1;
nodes = (
(438,0,l),
(521,0,l)
);
}
);
width = 607;
},
{
associatedMasterId = master01;
layerId = "3B5242A6-E9B9-4106-A318-25CEEEEB8629";
name = foreground;
shapes = (
{
closed = 1;
nodes = (
(131,199,o),
(196,247,o),
(349,247,c),
(349,226,ls),
(349,127,o),
(247,78,o),
(195,78,cs),
(152,78,o),
(131,114,o),
(131,148,cs)
);
},
{
closed = 1;
nodes = (
(355,67,o),
(377,0,o),
(448,0,cs),
(473,0,o),
(496,6,o),
(510,16,c),
(510,95,l),
(470,91,o),
(447,107,o),
(447,147,c),
(447,340,ls),
(447,414,o),
(408,512,o),
(257,512,cs),
(115,512,o),
(56,404,o),
(56,404,cs),
(132,355,l),
(132,355,o),
(167,425,o),
(250,426,cs),
(315,427,o),
(347,388,o),
(349,344,c),
(349,328,l),
(165,328,o),
(40,262,o),
(40,135,cs),
(40,43,o),
(103,-12,o),
(192,-12,cs),
(318,-12,o),
(356,106,o),
(356,106,c)
);
}
);
width = 550;
}
);
unicode = 97;
},
{
glyphname = b;
lastChange = "2021-08-26 07:34:26 +0000";
layers = (
{
hints = (
{
horizontal = 1;
origin = (1,2);
target = (0,5);
type = Stem;
},
{
horizontal = 1;
origin = (1,8);
target = (0,11);
type = Stem;
},
{
horizontal = 1;
origin = (1,14);
target = (0,5);
type = Stem;
},
{
origin = (1,14);
target = (0,8);
type = Stem;
},
{
origin = (0,2);
target = (1,5);
type = Stem;
},
{
origin = (1,14);
target = (1,11);
type = Stem;
},
{
origin = (1,14);
target = (1,15);
type = Stem;
}
);
layerId = master01;
shapes = (
{
closed = 1;
nodes = (
(428,437,o),
(476,352,o),
(476,248,cs),
(476,144,o),
(428,63,o),
(330,63,cs),
(231,63,o),
(177,140,o),
(177,250,cs),
(177,352,o),
(231,435,o),
(327,436,cs)
);
},
{
closed = 1;
nodes = (
(194,43,o),
(246,-12,o),
(334,-12,cs),
(465,-12,o),
(560,81,o),
(560,250,cs),
(560,414,o),
(470,512,o),
(339,512,cs),
(270,512,o),
(197,473,o),
(176,404,c),
(176,720,l),
(92,720,l),
(92,0,l),
(173,0,l),
(173,98,l)
);
}
);
width = 614;
},
{
associatedMasterId = master01;
hints = (
{
horizontal = 1;
origin = (1,11);
target = (0,5);
type = Stem;
},
{
horizontal = 1;
origin = (1,5);
target = (0,11);
type = Stem;
},
{
horizontal = 1;
origin = (1,11);
target = (0,5);
type = Stem;
},
{
origin = (1,8);
target = (0,8);
type = Stem;
},
{
origin = (0,2);
target = (1,2);
type = Stem;
},
{
origin = (1,8);
target = (0,8);
type = Stem;
}
);
layerId = "67A6802E-0ADA-4E35-B6DE-2FB806E7B19C";
name = "21 Jul 21, 11:33";
shapes = (
{
closed = 1;
nodes = (
(419,436,o),
(473,339,o),
(473,252,cs),
(473,165,o),
(421,64,o),
(327,64,c),
(231,64,o),
(173,165,o),
(173,252,cs),
(173,339,o),
(223,436,o),
(321,436,c)
);
},
{
closed = 1;
nodes = (
(460,-13,o),
(576,81,o),
(576,250,cs),
(576,414,o),
(465,512,o),
(336,512,c),
(207,512,o),
(92,412,o),
(92,248,cs),
(92,79,o),
(202,-13,o),
(331,-13,c)
);
}
);
width = 613;
}
);
unicode = 98;
},
{
glyphname = c;
lastChange = "2021-08-26 07:34:26 +0000";
layers = (
{
anchors = (
{
name = top;
pos = (292,521);
}
);
layerId = master01;
shapes = (
{
closed = 1;
nodes = (
(54,87,o),
(166,-13,o),
(292,-13,c),
(378,-13,o),
(455,35,o),
(490,118,c),
(414,148,l),
(393,97,o),
(350,63,o),
(290,63,c),
(189,63,o),
(138,147,o),
(138,251,cs),
(138,355,o),
(189,436,o),
(290,436,c),
(350,436,o),
(393,402,o),
(414,351,c),
(490,381,l),
(455,464,o),
(380,512,o),
(292,512,c),
(166,512,o),
(54,412,o),
(54,248,cs)
);
}
);
width = 536;
},
{
associatedMasterId = master01;
layerId = "D5044F65-6BC5-444E-BECC-015FB8AF7D9F";
name = foreground;
shapes = (
{
closed = 1;
nodes = (
(150,338,o),
(200,429,o),
(294,429,c),
(356,429,o),
(397,384,o),
(413,331,c),
(502,360,l),
(479,465,o),
(389,512,o),
(293,512,c),
(162,512,o),
(50,421,o),
(50,251,c),
(50,81,o),
(162,-12,o),
(293,-12,c),
(389,-12,o),
(481,38,o),
(506,147,c),
(417,176,l),
(401,123,o),
(356,72,o),
(294,72,c),
(200,72,o),
(150,164,o),
(150,250,c)
);
}
);
width = 550;
},
{
associatedMasterId = master01;
layerId = "5E179671-36B7-481B-ACDA-F3411599AAD9";
name = "22 Jul 21, 10:29";
shapes = (
{
closed = 1;
nodes = (
(54,87,o),
(166,-13,o),
(292,-13,c),
(380,-13,o),
(457,35,o),
(492,118,c),
(416,148,l),
(395,97,o),
(350,63,o),
(290,63,c),
(189,63,o),
(137,147,o),
(137,251,cs),
(137,355,o),
(189,436,o),
(290,436,c),
(350,436,o),
(395,402,o),
(416,351,c),
(492,381,l),
(457,464,o),
(380,512,o),
(292,512,c),
(166,512,o),
(54,412,o),
(54,248,cs)
);
}
);
width = 536;
}
);
unicode = 99;
},
{
glyphname = d;
lastChange = "2021-08-26 07:34:26 +0000";
layers = (
{
layerId = master01;
shapes = (
{
closed = 1;
nodes = (
(442,27,o),
(481,-1,o),
(533,-1,cs),
(558,-1,o),
(571,3,o),
(585,11,c),
(585,79,l),
(536,68,o),
(522,86,o),
(522,126,cs),
(522,720,l),
(438,720,l),
(438,404,l),
(417,473,o),
(344,512,o),
(275,512,cs),
(144,512,o),
(54,414,o),
(54,250,cs),
(54,81,o),
(149,-12,o),
(280,-12,cs),
(368,-12,o),
(420,43,o),
(442,98,c)
);
},
{
closed = 1;
nodes = (
(383,436,o),
(437,352,o),
(437,250,cs),
(437,140,o),
(383,63,o),
(284,63,cs),
(186,63,o),
(138,144,o),
(138,248,cs),
(138,352,o),
(186,436,o),
(287,436,cs)
);
}
);
width = 627;
},
{
associatedMasterId = master01;
layerId = "7399E59F-C8CF-444F-A145-6D2B7F7CF480";
name = foreground;
shapes = (
{
closed = 1;
nodes = (
(397,426,o),
(440,339,o),
(440,252,cs),
(440,165,o),
(391,75,o),
(299,75,c),
(205,75,o),
(156,165,o),
(156,252,cs),
(156,339,o),
(203,426,o),
(299,426,c)
);
},
{
closed = 1;
nodes = (
(443,62,o),
(477,2,o),
(536,1,cs),
(578,0,o),
(614,18,o),
(614,18,c),
(614,18,o),
(614,101,o),
(614,101,cs),
(564,90,o),
(537,105,o),
(537,150,c),
(537,720,l),
(437,720,l),
(437,422,l),
(414,475,o),
(343,512,o),
(274,512,c),
(141,512,o),
(54,397,o),
(54,250,cs),
(54,123,o),
(122,-12,o),
(274,-11,c),
(349,-11,o),
(419,25,o),
(444,101,c)
);
}
);
width = 664;
}
);
unicode = 100;
},
{
glyphname = e;
lastChange = "2021-09-05 06:49:14 +0000";
layers = (
{
anchors = (
{
name = top;
pos = (291,515);
}
);
hints = (
{
horizontal = 1;
origin = (0,12);
target = (0,19);
type = Stem;
},
{
horizontal = 1;
origin = (0,1);
target = (0,28);
type = Stem;
},
{
horizontal = 1;
origin = (0,6);
target = (0,25);
type = Stem;
},
{
origin = (0,9);
target = (0,22);
type = Stem;
},
{
origin = (0,28);
target = (0,2);
type = Stem;
}
);
layerId = master01;
shapes = (
{
closed = 1;
nodes = (
(134,304,l),
(134,230,l),
(519,230,l),
(519,261,l),
(519,434,o),
(418,512,o),
(291,512,c),
(165,512,o),
(54,412,o),
(54,248,cs),
(54,87,o),
(165,-13,o),
(291,-13,c),
(392,-13,o),
(462,30,o),
(503,113,c),
(429,143,l),
(401,92,o),
(349,63,o),
(289,63,c),
(188,63,o),
(137,141,o),
(137,245,cs),
(137,349,o),
(188,436,o),
(289,436,c),
(386,436,o),
(435,360,o),
(435,304,c)
);
}
);
width = 569;
},
{
associatedMasterId = master01;
layerId = "169FF446-F214-45AF-87EB-12250BF5A1D5";
name = foreground;
visible = 1;
width = 543;
},
{
associatedMasterId = master01;
layerId = "E0E72D27-D989-452C-96DA-744C8CBAEC4B";
name = "10 Jul 21, 15:30";
shapes = (
{
closed = 1;
nodes = (
(41,87,o),
(153,-13,o),
(279,-13,c),
(367,-13,o),
(444,35,o),
(479,118,c),
(403,148,l),
(382,97,o),
(337,63,o),
(277,63,c),
(176,63,o),
(124,147,o),
(124,251,cs),
(124,355,o),
(176,436,o),
(277,436,c),
(337,436,o),
(382,402,o),
(403,351,c),
(479,381,l),
(444,464,o),
(367,512,o),
(279,512,c),
(153,512,o),
(41,412,o),
(41,248,cs)
);
},
{
closed = 1;
nodes = (
(406,-13,o),
(521,81,o),
(521,250,cs),
(521,414,o),
(411,512,o),
(283,512,c),
(156,512,o),
(42,412,o),
(42,248,cs),
(42,79,o),
(151,-13,o),
(278,-13,c)
);
},
{
closed = 1;
nodes = (
(377,435,o),
(437,352,o),
(437,250,cs),
(437,140,o),
(377,63,o),
(278,63,c),
(179,63,o),
(126,144,o),
(126,248,cs),
(126,352,o),
(179,436,o),
(281,436,c)
);
}
);
visible = 1;
width = 543;
}
);
unicode = 101;
},
{
glyphname = f;
lastChange = "2021-08-26 07:34:26 +0000";
layers = (
{
hints = (
{
horizontal = 1;
origin = (0,26);
target = (0,27);
type = Stem;
},
{
horizontal = 1;
origin = (0,15);
target = (0,19);
type = Stem;
},
{
origin = (0,1);
target = (0,2);
type = Stem;
}
);
layerId = master01;
shapes = (
{
closed = 1;
nodes = (
(143,424,l),
(143,0,l),
(227,0,l),
(227,424,l),
(355,424,l),
(355,500,l),
(227,500,l),
(227,500,o),
(227,575,o),
(227,575,cs),
(227,629,o),
(254,648,o),
(303,648,cs),
(316,648,o),
(333,647,o),
(349,644,c),
(350,712,l),
(333,717,o),
(310,720,o),
(294,720,cs),
(185,720,o),
(144,669,o),
(144,576,cs),
(144,576,o),
(143,500,o),
(143,500,c),
(47,500,l),
(47,424,l)
);
}
);
width = 365;
},
{
associatedMasterId = master01;
layerId = "05947023-CF81-4962-BA32-552EF9D46824";
name = foreground;
shapes = (
{
closed = 1;
nodes = (
(134,409,l),
(134,0,l),
(233,0,l),
(233,409,l),
(365,409,l),
(365,500,l),
(233,500,l),
(232,602,o),
(245,630,o),
(294,635,cs),
(332,639,o),
(364,630,o),
(364,630,c),
(364,720,l),
(349,725,o),
(321,728,o),
(305,728,cs),
(164,728,o),
(134,664,o),
(134,500,c),
(40,500,l),
(40,409,l)
);
}
);
width = 375;
}
);
unicode = 102;
},
{
glyphname = g;
lastChange = "2021-08-26 07:34:26 +0000";
layers = (
{
layerId = master01;
shapes = (
{
closed = 1;
nodes = (
(438,-96,o),
(391,-156,o),
(281,-156,cs),
(214,-156,o),
(163,-125,o),
(138,-66,c),
(72,-107,l),
(111,-195,o),
(193,-229,o),
(280,-230,cs),
(412,-232,o),
(521,-171,o),
(521,17,cs),
(522,500,l),
(441,500,l),
(441,402,l),
(420,457,o),
(368,512,o),
(280,512,cs),
(149,512,o),
(54,419,o),
(54,250,cs),
(54,86,o),
(144,-12,o),
(275,-12,cs),
(344,-12,o),
(417,27,o),
(438,96,c),
(438,17,ls)
);
},
{
closed = 1;
nodes = (
(186,63,o),
(138,148,o),
(138,252,cs),
(138,356,o),
(186,437,o),
(284,437,cs),
(383,437,o),
(437,360,o),
(437,250,cs),
(437,148,o),
(383,65,o),
(287,64,cs)
);
}
);
width = 607;
},
{
associatedMasterId = master01;
layerId = "79240F66-912C-4E1A-A3E4-4F79DFA0CFDD";
name = foreground;
shapes = (
{
closed = 1;
nodes = (
(394,426,o),
(437,339,o),
(437,252,cs),
(437,165,o),
(392,75,o),
(296,75,c),
(202,75,o),
(160,165,o),
(160,252,cs),
(160,339,o),
(200,426,o),
(296,426,c)
);
},
{
closed = 1;
nodes = (
(534,499,l),
(434,499,l),
(434,422,l),
(411,475,o),
(340,512,o),
(271,512,c),
(138,512,o),
(51,397,o),
(51,250,cs),
(51,123,o),
(119,-13,o),
(271,-12,c),
(346,-12,o),
(406,27,o),
(434,98,c),
(434,5,ls),
(434,-112,o),
(388,-165,o),
(275,-166,cs),
(201,-167,o),
(153,-122,o),
(128,-63,c),
(50,-106,l),
(95,-207,o),
(187,-249,o),
(274,-250,cs),
(390,-252,o),
(534,-200,o),
(534,-12,cs)
);
}
);
width = 614;
}
);
unicode = 103;
},
{
glyphname = h;
lastChange = "2021-08-26 07:34:26 +0000";
layers = (
{
hints = (
{
horizontal = 1;
origin = (0,16);
target = (0,7);
type = Stem;
},
{
place = (92,84);
type = Stem;
},
{
place = (421,84);
type = Stem;
}
);
layerId = master01;
shapes = (
{
closed = 1;
nodes = (
(176,712,l),
(92,712,l),
(92,2,l),
(176,2,l),
(176,272,ls),
(176,368,o),
(223,438,o),
(315,438,cs),
(382,438,o),
(427,405,o),
(427,318,cs),
(427,2,l),
(511,2,l),
(511,330,ls),
(511,450,o),
(440,514,o),
(343,514,cs),
(231,514,o),
(185,443,o),
(176,408,c)
);
}
);
width = 597;
},
{
associatedMasterId = master01;
layerId = "CD505587-AC72-48CE-8408-6BA3826A3B3C";
name = foreground;
shapes = (
{
closed = 1;
nodes = (
(185,0,l),
(185,259,ls),
(185,355,o),
(232,425,o),
(314,425,cs),
(371,425,o),
(423,392,o),
(423,306,c),
(423,0,l),
(523,0,l),
(523,328,ls),
(523,448,o),
(439,512,o),
(352,512,cs),
(249,512,o),
(205,455,o),
(185,402,c),
(185,720,l),
(85,720,l),
(85,0,l)
);
}
);
width = 603;
}
);
unicode = 104;
},
{
glyphname = i;
lastChange = "2021-08-26 07:34:26 +0000";
layers = (
{
anchors = (
{
name = top;
pos = (126,500);
}
);
hints = (
{
horizontal = 1;
origin = (0,11);
target = (0,5);
type = Stem;
},
{
origin = (0,3);
target = (0,0);
type = Stem;
},
{
origin = (0,8);
target = (0,2);
type = Stem;
}
);
layerId = master01;
shapes = (
{
closed = 1;
nodes = (
(162,595,o),
(188,622,o),
(188,653,cs),
(188,685,o),
(162,712,o),
(131,712,cs),
(99,712,o),
(72,685,o),
(72,653,cs),
(72,622,o),
(99,595,o),
(131,595,cs)
);
},
{
ref = idotless;
}
);
width = 260;
},
{
associatedMasterId = master01;
layerId = "6625A516-8D1C-4BE4-BEF2-383D9616A379";
name = foreground;
shapes = (
{
closed = 1;
nodes = (
(193,0,l),
(193,500,l),
(93,500,l),
(93,0,l)
);
},
{
closed = 1;
nodes = (
(178,571,o),
(206,600,o),
(206,634,cs),
(206,669,o),
(178,698,o),
(144,698,cs),
(109,698,o),
(80,669,o),
(80,634,cs),
(80,600,o),
(109,571,o),
(144,571,cs)
);
}
);
width = 286;
}
);
unicode = 105;
},
{
glyphname = j;
lastChange = "2021-08-26 07:34:26 +0000";
layers = (
{
hints = (
{
horizontal = 1;
place = (-249,94);
type = Stem;
},
{
horizontal = 1;
origin = (0,5);
target = (0,11);
type = Stem;
},
{
origin = (0,8);
target = (0,2);
type = Stem;
},
{
origin = (0,8);
target = (0,2);
type = Stem;
}
);
layerId = master01;
shapes = (
{
closed = 1;
nodes = (
(201,593,o),
(229,622,o),
(229,656,cs),
(229,691,o),
(201,720,o),
(167,720,cs),
(132,720,o),
(103,691,o),
(103,656,cs),
(103,622,o),
(132,593,o),
(167,593,cs)
);
},
{
closed = 1;
nodes = (
(211,500,c),
(127,500,l),
(127,-85,l),
(127,-139,o),
(100,-158,o),
(51,-158,cs),
(38,-158,o),
(21,-157,o),
(5,-154,c),
(4,-222,l),
(21,-227,o),
(44,-230,o),
(60,-230,cs),
(169,-230,o),
(210,-179,o),
(210,-86,cs),
(210,-86,o),
(211,0,o)
);
}
);
width = 301;
},
{
associatedMasterId = master01;
layerId = "D21705D2-9FF0-49F0-B103-525AAF3570C8";
name = foreground;
shapes = (
{
closed = 1;
nodes = (
(187,593,o),
(215,622,o),
(215,656,cs),
(215,691,o),
(187,720,o),
(153,720,cs),
(118,720,o),
(89,691,o),
(89,656,cs),
(89,622,o),
(118,593,o),
(153,593,cs)
);
},
{
closed = 1;
nodes = (
(106,499,l),
(106,-6,ls),
(106,-108,o),
(94,-152,o),
(41,-156,cs),
(3,-159,o),
(-25,-151,o),
(-25,-151,c),
(-25,-243,l),
(-10,-248,o),
(18,-251,o),
(34,-251,cs),
(175,-251,o),
(205,-176,o),
(205,-12,cs),
(205,499,l)
);
}
);
width = 275;
}
);
unicode = 106;
},
{
glyphname = k;
lastChange = "2021-08-26 07:34:26 +0000";
layers = (
{
hints = (
{
place = (93,84);
type = Stem;
}
);
layerId = master01;
shapes = (
{
closed = 1;
nodes = (
(241,256,l),
(265,266,l),
(494,500,l),
(390,500,l),
(114,225,l),
(115,131,l)
);
},
{
closed = 1;
nodes = (
(176,0,l),
(176,712,l),
(92,712,l),
(92,0,l)
);
},
{
closed = 1;
nodes = (
(510,0,l),
(281,302,l),
(215,249,l),
(404,0,l)
);
}
);
width = 525;
},
{
associatedMasterId = master01;
layerId = "45831B20-6849-4EF6-BE83-8DDAD9BE09E7";
name = foreground;
shapes = (
{
closed = 1;
nodes = (
(804,256,l),
(828,266,l),
(1049,500,l),
(941,500,l),
(681,225,l),
(686,131,l)
);
},
{
closed = 1;
nodes = (
(747,0,l),
(747,712,l),
(663,712,l),
(663,0,l)
);
},
{
closed = 1;
nodes = (
(1069,0,l),
(840,302,l),
(778,249,l),
(967,0,l)
);
}
);
width = 537;
},
{
associatedMasterId = master01;
hints = (
{
horizontal = 1;
origin = (0,8);
target = (0,1);
type = Stem;
},
{
origin = (0,9);
target = (0,10);
type = Stem;
}
);
layerId = "F5153F53-BD19-4DEE-BBF1-244D87F5AFFD";
name = "22 Jul 21, 10:33";
shapes = (
{
closed = 1;
nodes = (
(210,252,l),
(395,-1,l),
(498,-1,l),
(267,308,l),
(479,500,l),
(371,500,l),
(177,325,l),
(176,712,l),
(92,712,l),
(93,0,l),
(177,0,l),
(177,223,l)
);
},
{
closed = 1;
nodes = (
(219,252,l),
(409,-1,l),
(528,-1,l),
(291,315,l),
(503,500,l),
(365,500,l),
(186,344,l),
(186,720,l),
(86,720,l),
(86,0,l),
(186,0,l),
(186,223,l)
);
}
);
width = 513;
}
);
unicode = 107;
},
{
glyphname = l;
lastChange = "2021-08-26 07:34:26 +0000";
layers = (
{
anchors = (
{
name = bottom;
pos = (133,0);
},
{
name = top;
pos = (129,725);
}
);
hints = (
{
horizontal = 1;
origin = (0,3);
target = (0,2);
type = Stem;
},
{
origin = (0,3);
target = (0,0);
type = Stem;
}
);
layerId = master01;
shapes = (
{
closed = 1;
nodes = (
(174,0,l),
(174,712,l),
(90,712,l),
(90,0,l)
);
}
);
width = 258;
},
{
associatedMasterId = master01;
layerId = "9184F1DE-F07E-494E-9C47-EEC1A903CA2E";
name = foreground;
shapes = (
{
closed = 1;
nodes = (
(180,0,l),
(180,720,l),
(80,720,l),
(80,0,l)
);
}
);
width = 260;
}
);
unicode = 108;
},
{
glyphname = m;
lastChange = "2021-08-26 07:34:26 +0000";
layers = (
{
layerId = master01;
shapes = (
{
closed = 1;
nodes = (
(176,500,l),
(92,500,l),
(92,0,l),
(176,0,l),
(176,270,ls),
(176,366,o),
(223,436,o),
(315,436,cs),
(382,436,o),
(427,403,o),
(427,316,cs),
(427,0,l),
(511,0,l),
(511,328,ls),
(511,448,o),
(440,512,o),
(343,512,cs),
(231,512,o),
(185,441,o),
(176,406,c)
);
},
{
closed = 1;
nodes = (
(494,0,l),
(511,0,l),
(511,270,ls),
(511,366,o),
(558,436,o),
(650,436,cs),
(717,436,o),
(762,403,o),
(762,316,cs),
(762,0,l),
(846,0,l),
(846,328,ls),
(846,448,o),
(775,512,o),
(678,512,cs),
(566,512,o),
(511,433,o),
(502,398,c)
);
}
);
width = 934;
},
{
associatedMasterId = master01;
layerId = "2AB4FA2C-6E87-475E-BC95-C87BA88E814C";
name = foreground;
shapes = (
{
closed = 1;
nodes = (
(524,355,o),
(571,425,o),
(653,425,cs),
(710,425,o),
(762,392,o),
(762,306,c),
(762,0,l),
(862,0,l),
(862,328,ls),
(862,448,o),
(778,512,o),
(691,512,cs),
(589,512,o),
(535,445,o),
(514,392,c),
(490,471,o),
(422,512,o),
(352,512,cs),
(249,512,o),
(205,455,o),
(185,402,c),
(185,501,l),
(85,501,l),
(85,0,l),
(185,0,l),
(185,259,ls),
(185,355,o),
(232,425,o),
(314,425,cs),
(371,425,o),
(423,392,o),
(423,306,c),
(423,0,l),
(524,0,l),
(524,259,ls)
);
}
);
width = 942;
}
);
unicode = 109;
},
{
glyphname = n;
lastChange = "2021-08-26 07:34:26 +0000";
layers = (
{
anchors = (
{
name = top;
pos = (315,525);
}
);
hints = (
{
origin = (0,2);
target = (0,3);
type = Stem;
},
{
origin = (0,11);
target = (0,12);
type = Stem;
}
);
layerId = master01;
shapes = (
{
closed = 1;
nodes = (
(176,500,l),
(92,500,l),
(92,0,l),
(176,0,l),
(176,270,ls),
(176,366,o),
(223,436,o),
(315,436,cs),
(382,436,o),
(427,403,o),
(427,316,cs),
(427,0,l),
(511,0,l),
(511,328,ls),
(511,448,o),
(440,512,o),
(343,512,cs),
(231,512,o),
(185,441,o),
(176,406,c)
);
}
);
width = 597;
},
{
associatedMasterId = master01;
layerId = "9DAFEF19-BC7E-4592-BC8A-958FBEEA9065";
name = foreground;
shapes = (
{
closed = 1;
nodes = (
(176,500,l),
(92,500,l),
(92,0,l),
(176,0,l),
(176,270,ls),
(176,366,o),
(223,436,o),
(315,436,cs),
(382,436,o),
(421,403,o),
(421,316,cs),
(421,0,l),
(505,0,l),
(505,328,ls),
(505,448,o),
(440,512,o),
(343,512,cs),
(231,512,o),
(163,445,o),
(163,320,c),
(176,320,l)
);
}
);
width = 603;
},
{
associatedMasterId = master01;
layerId = "4E993862-6A8B-4F58-BA63-F4C2183B2AD6";
name = "22 Jul 21, 09:48";
shapes = (
{
closed = 1;
nodes = (
(176,500,l),
(92,500,l),
(92,0,l),
(176,0,l),
(176,270,ls),
(176,366,o),
(223,436,o),
(315,436,cs),
(382,436,o),
(421,403,o),
(421,316,cs),
(421,0,l),
(505,0,l),
(505,328,ls),
(505,448,o),
(440,512,o),
(343,512,cs),
(231,512,o),
(163,445,o),
(163,320,c),
(176,320,l)
);
},
{
closed = 1;
nodes = (
(176,0,l),
(176,259,ls),
(176,355,o),
(228,425,o),
(310,425,cs),
(379,425,o),
(426,392,o),
(426,306,c),
(426,0,l),
(510,0,l),
(510,324,ls),
(510,432,o),
(443,512,o),
(348,512,cs),
(245,512,o),
(196,455,o),
(176,402,c),
(176,500,l),
(92,500,l),
(92,0,l)
);
}
);
width = 603;
},
{
associatedMasterId = master01;
layerId = "093DBDD9-08D0-4671-954B-3775BA1B0BE1";
name = "22 Jul 21, 09:45";
shapes = (
{
closed = 1;
nodes = (
(170,500,l),
(86,500,l),
(86,0,l),
(170,0,l),
(170,270,ls),
(170,366,o),
(217,436,o),
(309,436,cs),
(376,436,o),
(415,403,o),
(415,316,cs),
(415,0,l),
(499,0,l),
(499,328,ls),
(499,448,o),
(434,512,o),
(337,512,cs),
(225,512,o),
(179,441,o),
(170,406,c)
);
}
);
width = 591;
},
{
associatedMasterId = master01;
layerId = "47444D12-A43B-4A04-A14E-0473975F487A";
name = "22 Jul 21, 09:45";
shapes = (
{
closed = 1;
nodes = (
(176,500,l),
(92,500,l),
(92,0,l),
(176,0,l),
(176,270,ls),
(176,366,o),
(223,436,o),
(315,436,cs),
(382,436,o),
(421,403,o),
(421,316,cs),
(421,0,l),
(505,0,l),
(505,328,ls),
(505,448,o),
(440,512,o),
(343,512,cs),
(231,512,o),
(163,445,o),
(163,320,c),
(176,320,l)
);
}
);
width = 603;
}
);
unicode = 110;
},
{
glyphname = o;
lastChange = "2021-09-05 06:49:30 +0000";
layers = (
{
anchors = (
{
name = top;
pos = (290,516);
}
);
hints = (
{
horizontal = 1;
origin = (0,11);
target = (1,11);
type = Stem;
},
{
horizontal = 1;
origin = (0,5);
target = (1,5);
type = Stem;
},
{
origin = (0,8);
target = (1,2);
type = Stem;
},
{
origin = (1,8);
target = (0,2);
type = Stem;
}
);
layerId = master01;
shapes = (
{
closed = 1;
nodes = (
(414,-12,o),
(526,78,o),
(526,250,cs),
(526,422,o),
(414,512,o),
(290,512,cs),
(166,512,o),
(54,422,o),
(54,250,cs),
(54,78,o),
(166,-12,o),
(290,-12,cs)
);
},
{
closed = 1;
nodes = (
(190,64,o),
(138,133,o),
(138,250,cs),
(138,367,o),
(190,436,o),
(290,436,cs),
(390,436,o),
(442,367,o),
(442,250,cs),
(442,133,o),
(390,64,o),
(290,64,cs)
);
}
);
width = 580;
},
{
associatedMasterId = master01;
layerId = "75CEC0A4-E86C-4BAB-AB20-41EC8FFB0C18";
name = foreground;
shapes = (
{
closed = 1;
nodes = (
(422,-13,o),
(540,81,o),
(540,250,cs),
(540,414,o),
(427,512,o),
(296,512,c),
(165,512,o),
(48,412,o),
(48,248,cs),
(48,79,o),
(160,-13,o),
(291,-13,c)
);
},
{
closed = 1;
nodes = (
(389,426,o),
(436,338,o),
(436,250,cs),
(436,164,o),
(384,72,o),
(291,72,c),
(197,72,o),
(149,162,o),
(149,248,cs),
(149,336,o),
(198,426,o),
(294,426,c)
);
}
);
width = 587;
}
);
unicode = 111;
},
{
glyphname = p;
lastChange = "2021-08-26 07:34:26 +0000";
layers = (
{
layerId = master01;
shapes = (
{
closed = 1;
nodes = (
(231,65,o),
(177,148,o),
(177,250,cs),
(177,360,o),
(231,437,o),
(330,437,cs),
(428,437,o),
(476,356,o),
(476,252,cs),
(476,148,o),
(428,63,o),
(327,64,cs)
);
},
{
closed = 1;
nodes = (
(173,500,l),
(92,500,l),
(92,-230,l),
(176,-230,l),
(176,96,l),
(197,27,o),
(270,-12,o),
(339,-12,cs),
(470,-12,o),
(560,86,o),
(560,250,cs),
(560,419,o),
(465,512,o),
(334,512,cs),
(246,512,o),
(194,457,o),
(173,402,c)
);
}
);
width = 614;
},
{
associatedMasterId = master01;
layerId = "111F6626-3440-438D-AC91-776452057215";
name = foreground;
shapes = (
{
closed = 1;
nodes = (
(226,74,o),
(183,161,o),
(183,248,cs),
(183,335,o),
(228,425,o),
(324,425,c),
(418,425,o),
(467,335,o),
(467,248,cs),
(467,161,o),
(420,74,o),
(324,74,c)
);
},
{
closed = 1;
nodes = (
(482,-11,o),
(569,103,o),
(569,250,cs),
(569,377,o),
(501,513,o),
(349,512,c),
(274,512,o),
(214,473,o),
(186,402,c),
(186,500,l),
(86,500,l),
(86,-249,l),
(186,-249,l),
(186,78,l),
(209,25,o),
(280,-11,o),
(349,-11,c)
);
}
);
width = 624;
}
);
unicode = 112;
},
{
glyphname = q;
lastChange = "2021-09-05 06:50:49 +0000";
layers = (
{
layerId = master01;
shapes = (
{
closed = 1;
nodes = (
(186,63,o),
(138,148,o),
(138,252,cs),
(138,356,o),
(186,437,o),
(284,437,cs),
(383,437,o),
(437,360,o),
(437,250,cs),
(437,148,o),
(383,65,o),
(287,64,cs)
);
},
{
closed = 1;
nodes = (
(438,-204,o),
(480,-230,o),
(532,-230,cs),
(557,-230,o),
(570,-226,o),
(584,-218,c),
(584,-150,l),
(535,-161,o),
(521,-143,o),
(521,-103,cs),
(522,500,l),
(441,500,l),
(441,402,l),
(420,457,o),
(368,512,o),
(280,512,cs),
(149,512,o),
(54,419,o),
(54,250,cs),
(54,86,o),
(144,-12,o),
(275,-12,cs),
(344,-12,o),
(417,27,o),
(438,96,c),
(438,-124,ls)
);
}
);
width = 624;
},
{
associatedMasterId = master01;
layerId = "5B836CBD-5A05-4F3B-A39F-8D74CF5805A4";
name = foreground;
shapes = (
{
closed = 1;
nodes = (
(443,-207,o),
(486,-247,o),
(536,-248,cs),
(578,-249,o),
(620,-231,o),
(620,-231,c),
(620,-231,o),
(620,-148,o),
(620,-148,cs),
(570,-159,o),
(543,-144,o),
(543,-99,c),
(543,500,l),
(443,500,l),
(443,402,l),
(415,473,o),
(353,512,o),
(278,512,c),
(126,513,o),
(60,377,o),
(60,250,cs),
(60,103,o),
(147,-11,o),
(280,-11,c),
(349,-11,o),
(420,25,o),
(443,78,c),
(443,-140,l)
);
},
{
closed = 1;
nodes = (
(209,74,o),
(162,161,o),
(162,248,cs),
(162,335,o),
(211,425,o),
(305,425,c),
(401,425,o),
(446,335,o),
(446,248,cs),
(446,161,o),
(403,74,o),
(305,74,c)
);
}
);
width = 630;
}
);
unicode = 113;
},
{
glyphname = r;
lastChange = "2021-08-26 07:34:26 +0000";
layers = (
{
anchors = (
{
name = top;
pos = (207,527);
}
);
hints = (
{
horizontal = 1;
origin = (0,11);
target = (0,4);
type = Stem;
},
{
horizontal = 1;
origin = (0,16);
target = (0,4);
type = Stem;
},
{
origin = (0,17);
target = (0,0);
type = Stem;
}
);
layerId = master01;
shapes = (
{
closed = 1;
nodes = (
(176,0,l),
(176,270,ls),
(176,366,o),
(221,420,o),
(302,436,cs),
(327,441,o),
(362,436,o),
(382,430,c),
(382,508,l),
(373,509,o),
(349,512,o),
(339,512,cs),
(236,512,o),
(196,454,o),
(176,401,c),
(176,500,l),
(92,500,l),
(92,0,l)
);
},
{
closed = 0;
nodes = (
(369,509,l)
);
}
);
width = 402;
},
{
associatedMasterId = master01;
layerId = "4E6D224B-E0A5-4955-882F-1582C38B5E9B";
name = foreground;
shapes = (
{
closed = 1;
nodes = (
(185,0,l),
(185,258,ls),
(185,354,o),
(230,408,o),
(311,424,cs),
(336,429,o),
(371,424,o),
(391,414,c),
(391,508,l),
(382,509,o),
(358,512,o),
(348,512,cs),
(245,512,o),
(205,454,o),
(185,401,c),
(185,500,l),
(85,500,l),
(85,0,l)
);
},
{
closed = 0;
nodes = (
(378,509,l)
);
}
);
width = 406;
}
);
unicode = 114;
},
{
glyphname = s;
lastChange = "2021-09-30 21:37:35 +0000";
layers = (
{
anchors = (
{
name = top;
pos = (243,520);
}
);
layerId = master01;
shapes = (
{
closed = 1;
nodes = (
(50,57,o),
(145,-12,o),
(246,-12,c),
(385,-12,o),
(448,56,o),
(448,137,cs),
(448,330,o),
(145,253,o),
(145,365,cs),
(145,407,o),
(177,436,o),
(242,436,cs),
(314,436,o),
(352,400,o),
(352,367,c),
(438,367,l),
(438,429,o),
(388,512,o),
(243,512,cs),
(121,512,o),
(61,435,o),
(61,362,cs),
(61,168,o),
(363,270,o),
(363,137,cs),
(363,87,o),
(319,64,o),
(253,64,cs),
(203,64,o),
(140,94,o),
(140,157,c),
(50,156,l)
);
}
);
width = 503;
},
{
associatedMasterId = master01;
layerId = "387FA4A7-73FF-4D97-8FCB-952702749138";
name = foreground;
shapes = (
{
closed = 1;
nodes = (
(88,39,o),
(165,-12,o),
(259,-12,cs),
(387,-12,o),
(459,56,o),
(457,137,cs),
(458,190,o),
(442,253,o),
(303,292,cs),
(203,320,o),
(164,339,o),
(163,380,cs),
(163,416,o),
(202,436,o),
(263,436,cs),
(314,436,o),
(352,413,o),
(365,373,c),
(440,408,l),
(416,470,o),
(360,512,o),
(266,512,cs),
(140,512,o),
(78,445,o),
(78,372,cs),
(78,310,o),
(99,266,o),
(205,233,cs),
(288,207,o),
(371,191,o),
(371,132,cs),
(371,82,o),
(317,65,o),
(266,65,cs),
(207,65,o),
(155,92,o),
(139,155,c),
(134,155,l),
(59,118,l)
);
}
);
width = 494;
},
{
associatedMasterId = master01;
layerId = "7E27A0BC-C66B-4AEC-96DE-E66ACE9A3214";
name = "21 Jul 21, 11:57";
shapes = (
{
closed = 1;
nodes = (
(65,56,o),
(151,-12,o),
(249,-12,c),
(387,-12,o),
(459,56,o),
(457,137,c),
(458,190,o),
(442,253,o),
(303,292,cs),
(203,320,o),
(154,339,o),
(153,372,c),
(153,416,o),
(192,436,o),
(251,436,cs),
(311,436,o),
(343,403,o),
(352,370,c),
(437,370,l),
(426,423,o),
(393,512,o),
(252,512,cs),
(130,512,o),
(68,445,o),
(68,372,cs),
(68,310,o),
(99,266,o),
(205,233,cs),
(288,207,o),
(371,191,o),
(371,140,c),
(371,82,o),
(317,65,o),
(256,65,c),
(207,65,o),
(155,92,o),
(139,155,c),
(50,155,l)
);
},
{
closed = 1;
nodes = (
(65,56,o),
(151,-12,o),
(249,-12,c),
(387,-12,o),
(459,56,o),
(457,137,c),
(458,190,o),
(442,253,o),
(303,292,cs),
(203,320,o),
(154,339,o),
(153,372,c),
(153,416,o),
(192,436,o),
(251,436,cs),
(311,436,o),
(343,403,o),
(352,370,c),
(437,370,l),
(426,423,o),
(393,512,o),
(252,512,cs),
(130,512,o),
(68,445,o),
(68,372,cs),
(68,310,o),
(99,266,o),
(205,233,cs),
(288,207,o),
(371,191,o),
(371,140,c),
(371,82,o),
(317,65,o),
(256,65,c),
(207,65,o),
(155,92,o),
(139,155,c),
(50,155,l)
);
}
);
width = 512;
},
{
associatedMasterId = master01;
layerId = "16A2ED11-E800-4B00-98DC-B709ECAC59BA";
name = "1 Oct 21, 07:26";
shapes = (
{
closed = 1;
nodes = (
(50,57,o),
(145,-12,o),
(246,-12,c),
(385,-12,o),
(448,56,o),
(448,137,cs),
(448,218,o),
(417,254,o),
(291,292,cs),
(174,327,o),
(146,342,o),
(145,375,cs),
(144,408,o),
(177,436,o),
(242,436,cs),
(314,436,o),
(352,400,o),
(352,367,c),
(438,367,l),
(438,429,o),
(388,512,o),
(243,512,cs),
(121,512,o),
(61,445,o),
(61,372,cs),
(61,303,o),
(102,255,o),
(199,229,cs),
(284,206,o),
(363,195,o),
(363,137,cs),
(363,87,o),
(319,64,o),
(253,64,cs),
(203,64,o),
(140,94,o),
(140,157,c),
(50,156,l)
);
},
{
closed = 1;
nodes = (
(50,57,o),
(145,-12,o),
(246,-12,c),
(385,-12,o),
(448,56,o),
(448,137,cs),
(448,218,o),
(417,254,o),
(291,292,cs),
(174,327,o),
(146,342,o),
(145,375,cs),
(144,408,o),
(177,436,o),
(242,436,cs),
(314,436,o),
(352,400,o),
(352,367,c),
(438,367,l),
(438,429,o),
(388,512,o),
(243,512,cs),
(121,512,o),
(61,445,o),
(61,372,cs),
(61,303,o),
(102,255,o),
(199,229,cs),
(284,206,o),
(363,195,o),
(363,137,cs),
(363,87,o),
(319,64,o),
(253,64,cs),
(203,64,o),
(140,94,o),
(140,157,c),
(50,156,l)
);
}
);
width = 503;
}
);
unicode = 115;
},
{
glyphname = t;
lastChange = "2021-11-02 21:27:12 +0000";
layers = (
{
anchors = (
{
name = bottom;
pos = (210,-4);
}
);
hints = (
{
horizontal = 1;
place = (0,423);
target = (0,0);
type = Stem;
},
{
horizontal = 1;
origin = (0,10);
target = (0,11);
type = Stem;
},
{
horizontal = 1;
origin = (0,11);
target = (0,3);
type = Stem;
},
{
origin = (0,0);
target = (0,0);
type = Stem;
}
);
layerId = master01;
shapes = (
{
closed = 1;
nodes = (
(200,423,l),
(329,423,l),
(329,499,l),
(200,499,l),
(200,627,l),
(116,627,l),
(116,570,ls),
(116,512,o),
(103,500,o),
(49,500,cs),
(26,500,l),
(26,423,l),
(116,423,l),
(116,132,ls),
(116,39,o),
(157,-12,o),
(266,-12,cs),
(282,-12,o),
(305,-9,o),
(322,-4,c),
(321,64,l),
(305,61,o),
(288,60,o),
(275,60,cs),
(226,60,o),
(200,78,o),
(200,132,cs)
);
}
);
width = 366;
},
{
associatedMasterId = master01;
layerId = "4BC6D785-7F25-40CD-8B35-2CDB36DE77EE";
name = foreground;
shapes = (
{
closed = 1;
nodes = (
(97,500,o),
(43,500,cs),
(20,500,l),
(20,408,l),
(110,408,l),
(110,137,ls),
(110,56,o),
(145,0,o),
(260,0,c),
(282,0,o),
(321,2,o),
(336,4,c),
(336,98,l),
(322,97,o),
(287,96,o),
(271,96,cs),
(225,97,o),
(210,127,o),
(210,166,cs),
(210,408,l),
(339,408,l),
(339,499,l),
(210,499,l),
(210,629,l),
(110,629,l),
(110,572,ls),
(110,512,o)
);
}
);
width = 379;
}
);
unicode = 116;
},
{
glyphname = u;
lastChange = "2021-09-05 06:51:56 +0000";
layers = (
{
anchors = (
{
name = top;
pos = (288,515);
}
);
layerId = master01;
shapes = (
{
closed = 1;
nodes = (
(421,0,l),
(505,0,l),
(505,500,l),
(421,500,l),
(421,230,ls),
(421,134,o),
(374,64,o),
(282,64,cs),
(215,64,o),
(170,97,o),
(170,184,cs),
(170,500,l),
(86,500,l),
(86,172,ls),
(86,52,o),
(157,-12,o),
(254,-12,cs),
(366,-12,o),
(412,59,o),
(421,94,c)
);
}
);
width = 597;
},
{
associatedMasterId = master01;
layerId = "58AB66D5-CBBE-4AAE-8E7A-6B076E516B66";
name = foreground;
shapes = (
{
closed = 1;
nodes = (
(418,500,l),
(418,241,ls),
(418,145,o),
(371,75,o),
(289,75,cs),
(232,75,o),
(180,108,o),
(180,194,c),
(180,500,l),
(80,500,l),
(80,172,ls),
(80,52,o),
(164,-12,o),
(251,-12,cs),
(354,-12,o),
(398,45,o),
(418,98,c),
(418,-1,l),
(518,-1,l),
(518,500,l)
);
}
);
width = 603;
}
);
unicode = 117;
},
{
glyphname = v;
lastChange = "2021-11-02 21:27:47 +0000";
layers = (
{
layerId = master01;
shapes = (
{
closed = 1;
nodes = (
(198,0,l),
(17,500,l),
(101,500,l),
(252,84,l),
(403,500,l),
(483,500,l),
(302,0,l)
);
}
);
width = 500;
},
{
associatedMasterId = master01;
layerId = "6A8EB27F-0274-4B16-855B-6672B7F2D5F0";
name = foreground;
shapes = (
{
closed = 1;
nodes = (
(506,500,l),
(324,0,l),
(193,0,l),
(12,500,l),
(124,500,l),
(258,101,l),
(392,500,l)
);
}
);
width = 518;
}
);
unicode = 118;
},
{
glyphname = w;
lastChange = "2022-12-27 04:55:27 +0000";
layers = (
{
anchors = (
{
name = top;
pos = (387,512);
}
);
layerId = master01;
shapes = (
{
closed = 1;
nodes = (
(483,0,l),
(596,0,l),
(735,499,l),
(644,499,l),
(539,60,l),
(550,60,l),
(431,499,l),
(339,499,l),
(219,60,l),
(231,60,l),
(126,499,l),
(35,499,l),
(174,0,l),
(283,0,l),
(393,394,l),
(378,394,l)
);
}
);
width = 770;
},
{
associatedMasterId = master01;
layerId = "A8781FE5-F585-44A1-B1ED-7854B8098763";
name = foreground;
shapes = (
{
closed = 1;
nodes = (
(456,0,l),
(573,0,l),
(704,499,l),
(606,499,l),
(511,66,l),
(530,66,l),
(424,499,l),
(320,499,l),
(214,66,l),
(233,66,l),
(138,499,l),
(30,499,l),
(161,0,l),
(278,0,l),
(375,374,l),
(359,374,l)
);
}
);
width = 734;
}
);
unicode = 119;
},
{
glyphname = x;
lastChange = "2021-08-26 07:34:26 +0000";
layers = (
{
layerId = master01;
shapes = (
{
closed = 1;
nodes = (
(335,0,l),
(429,0,l),
(121,500,l),
(27,500,l)
);
},
{
closed = 1;
nodes = (
(335,0,l),
(429,0,l),
(121,500,l),
(27,500,l)
);
},
{
closed = 1;
nodes = (
(326,500,l),
(18,0,l),
(112,0,l),
(420,500,l)
);
}
);
width = 447;
},
{
associatedMasterId = master01;
layerId = "B47364CB-B425-460E-96EC-C79310290C0B";
name = foreground;
shapes = (
{
closed = 1;
nodes = (
(247,166,l),
(363,0,l),
(485,0,l),
(308,251,l),
(480,500,l),
(363,500,l),
(250,335,l),
(135,500,l),
(13,500,l),
(188,250,l),
(13,0,l),
(130,0,l)
);
}
);
width = 493;
}
);
unicode = 120;
},
{
glyphname = y;
lastChange = "2021-11-02 21:27:36 +0000";
layers = (
{
anchors = (
{
name = top;
pos = (262,516);
}
);
layerId = master01;
shapes = (
{
closed = 1;
nodes = (
(236,-164,o),
(207,-230,o),
(113,-230,cs),
(92,-230,o),
(72,-226,o),
(59,-222,c),
(60,-146,l),
(72,-149,o),
(89,-150,o),
(107,-150,c),
(153,-150,o),
(187,-126,o),
(223,3,c),
(15,500,l),
(101,500,l),
(262,119,l),
(397,500,l),
(486,500,l),
(285,-34,ls)
);
}
);
width = 498;
},
{
associatedMasterId = master01;
layerId = "C02C67DD-6A80-4F27-B5CB-F7E47F86019A";
name = foreground;
shapes = (
{
closed = 1;
nodes = (
(185,-251,o),
(89,-251,cs),
(78,-251,o),
(45,-248,o),
(30,-243,c),
(30,-151,l),
(30,-151,o),
(58,-159,o),
(96,-156,c),
(141,-156,o),
(181,-118,o),
(202,-24,cs),
(208,3,l),
(10,500,l),
(127,500,l),
(266,119,l),
(391,500,l),
(497,500,l),
(306,-34,ls),
(248,-196,o)
);
}
);
width = 502;
}
);
unicode = 121;
},
{
glyphname = z;
lastChange = "2021-08-26 07:34:26 +0000";
layers = (
{
anchors = (
{
name = top;
pos = (219,521);
}
);
hints = (
{
horizontal = 1;
origin = (0,9);
target = (0,2);
type = Stem;
},
{
horizontal = 1;
origin = (0,6);
target = (0,5);
type = Stem;
},
{
origin = (0,9);
target = (0,0);
type = Stem;
}
);
layerId = master01;
shapes = (
{
closed = 1;
nodes = (
(381,1,l),
(381,77,l),
(137,77,l),
(379,425,l),
(379,501,l),
(50,501,l),
(50,425,l),
(292,425,l),
(50,78,l),
(50,1,l)
);
}
);
width = 427;
},
{
associatedMasterId = master01;
layerId = "9FF03EA6-08B8-46BD-92BE-77D8C33F9469";
name = foreground;
shapes = (
{
closed = 1;
nodes = (
(390,1,l),
(390,86,l),
(148,86,l),
(390,419,l),
(390,501,l),
(40,501,l),
(40,419,l),
(282,419,l),
(40,87,l),
(40,1,l)
);
}
);
width = 430;
}
);
unicode = 122;
},
{
glyphname = braceleft;
lastChange = "2021-08-26 07:34:26 +0000";
layers = (
{
layerId = master01;
shapes = (
{
closed = 1;
nodes = (
(114,353,o),
(133,371,o),
(133,422,cs),
(133,625,ls),
(133,693,o),
(155,725,o),
(221,725,cs),
(268,725,l),
(268,644,l),
(246,644,ls),
(226,644,o),
(214,633,o),
(214,608,cs),
(214,395,ls),
(214,340,o),
(191,325,o),
(150,316,c),
(191,307,o),
(214,290,o),
(214,232,cs),
(214,24,ls),
(214,-1,o),
(226,-12,o),
(246,-12,cs),
(268,-12,l),
(268,-93,l),
(221,-93,ls),
(155,-93,o),
(133,-61,o),
(133,7,cs),
(133,209,ls),
(133,260,o),
(114,278,o),
(62,278,c),
(62,353,l)
);
}
);
width = 296;
}
);
unicode = 123;
},
{
glyphname = bar;
lastChange = "2021-08-26 07:34:26 +0000";
layers = (
{
layerId = master01;
shapes = (
{
closed = 1;
nodes = (
(97,-12,l),
(185,-12,l),
(185,720,l),
(97,720,l)
);
}
);
width = 282;
}
);
unicode = 124;
},
{
glyphname = braceright;
lastChange = "2021-08-26 07:34:26 +0000";
layers = (
{
layerId = master01;
shapes = (
{
closed = 1;
nodes = (
(234,278,l),
(182,278,o),
(163,260,o),
(163,209,cs),
(163,7,ls),
(163,-61,o),
(141,-93,o),
(75,-93,cs),
(28,-93,l),
(28,-12,l),
(50,-12,ls),
(70,-12,o),
(82,-1,o),
(82,24,cs),
(82,232,ls),
(82,290,o),
(105,307,o),
(146,316,c),
(105,325,o),
(82,340,o),
(82,395,cs),
(82,608,ls),
(82,633,o),
(70,644,o),
(50,644,cs),
(28,644,l),
(28,725,l),
(75,725,ls),
(141,725,o),
(163,693,o),
(163,625,cs),
(163,422,ls),
(163,371,o),
(182,353,o),
(234,353,c)
);
}
);
width = 296;
}
);
unicode = 125;
},
{
glyphname = exclamdown;
lastChange = "2021-08-26 07:34:26 +0000";
layers = (
{
layerId = master01;
shapes = (
{
closed = 1;
nodes = (
(103,-232,l),
(206,-232,l),
(195,273,l),
(117,273,l)
);
},
{
closed = 1;
nodes = (
(118,499,o),
(87,467,o),
(87,432,cs),
(87,394,o),
(118,362,o),
(156,362,cs),
(192,362,o),
(222,394,o),
(222,432,cs),
(222,467,o),
(192,499,o),
(156,499,cs)
);
}
);
width = 309;
}
);
unicode = 161;
},
{
glyphname = cent;
lastChange = "2021-08-26 07:34:26 +0000";
layers = (
{
layerId = master01;
shapes = (
{
closed = 1;
nodes = (
(54,195,o),
(166,95,o),
(292,95,c),
(378,95,o),
(455,143,o),
(490,226,c),
(414,256,l),
(393,205,o),
(350,171,o),
(290,171,c),
(189,171,o),
(138,255,o),
(138,359,cs),
(138,463,o),
(189,544,o),
(290,544,c),
(350,544,o),
(393,510,o),
(414,459,c),
(490,489,l),
(455,572,o),
(380,620,o),
(292,620,c),
(166,620,o),
(54,520,o),
(54,356,cs)
);
},
{
closed = 1;
nodes = (
(255,548,l),
(335,548,l),
(335,700,l),
(255,700,l)
);
},
{
closed = 1;
nodes = (
(261,0,l),
(341,0,l),
(341,152,l),
(261,152,l)
);
}
);
width = 563;
},
{
associatedMasterId = master01;
layerId = "67A10FD7-782D-4391-978E-3D650EA85A7F";
name = foreground;
width = 563;
}
);
unicode = 162;
},
{
glyphname = sterling;
lastChange = "2021-08-26 07:34:26 +0000";
layers = (
{
layerId = master01;
shapes = (
{
closed = 1;
nodes = (
(341,0,ls),
(463,0,o),
(520,74,o),
(545,158,c),
(468,179,l),
(453,124,o),
(414,80,o),
(337,80,cs),
(150,80,l),
(174,97,o),
(247,167,o),
(247,278,cs),
(247,399,o),
(146,440,o),
(146,528,cs),
(146,584,o),
(195,632,o),
(273,632,c),
(351,632,o),
(396,576,o),
(396,519,c),
(484,519,l),
(484,555,o),
(475,589,o),
(460,615,c),
(424,677,o),
(352,712,o),
(272,712,c),
(157,712,o),
(60,647,o),
(60,528,cs),
(60,413,o),
(157,381,o),
(157,289,cs),
(157,192,o),
(98,119,o),
(45,80,c),
(45,0,l)
);
},
{
closed = 1;
nodes = (
(395,281,l),
(395,361,l),
(61,361,l),
(61,281,l)
);
}
);
width = 568;
},
{
associatedMasterId = master01;
layerId = "39949623-1A73-454F-BBEA-2B76B8F5BB59";
name = foreground;
width = 614;
}
);
unicode = 163;
},
{
glyphname = yen;
lastChange = "2021-08-26 07:34:26 +0000";
layers = (
{
layerId = master01;
shapes = (
{
closed = 1;
nodes = (
(345,0,l),
(342,309,l),
(583,700,l),
(490,700,l),
(299,390,l),
(111,700,l),
(11,700,l),
(260,309,l),
(257,0,l)
);
},
{
closed = 1;
nodes = (
(81,308,l),
(513,308,l),
(513,388,l),
(81,388,l)
);
},
{
closed = 1;
nodes = (
(81,163,l),
(513,163,l),
(513,243,l),
(81,243,l)
);
}
);
width = 594;
}
);
unicode = 165;
},
{
glyphname = copyright;
lastChange = "2021-08-26 07:34:26 +0000";
layers = (
{
layerId = master01;
shapes = (
{
closed = 1;
nodes = (
(629,-12,o),
(757,164,o),
(757,353,cs),
(757,544,o),
(629,720,o),
(403,720,cs),
(177,720,o),
(49,544,o),
(49,353,cs),
(49,164,o),
(177,-12,o),
(403,-12,cs)
);
},
{
closed = 1;
nodes = (
(475,151,o),
(534,188,o),
(560,252,c),
(499,274,l),
(483,237,o),
(454,222,o),
(406,222,c),
(337,222,o),
(303,274,o),
(303,353,cs),
(303,428,o),
(332,483,o),
(406,483,c),
(454,483,o),
(483,468,o),
(499,430,c),
(560,453,l),
(534,517,o),
(476,554,o),
(408,554,c),
(312,554,o),
(227,477,o),
(227,351,cs),
(227,228,o),
(312,151,o),
(408,151,c)
);
},
{
closed = 1;
nodes = (
(247,64,o),
(129,184,o),
(129,353,cs),
(129,518,o),
(246,644,o),
(403,644,cs),
(560,644,o),
(677,518,o),
(677,353,cs),
(677,184,o),
(559,64,o),
(403,64,cs)
);
}
);
width = 806;
}
);
unicode = 169;
},
{
glyphname = registered;
lastChange = "2021-08-26 07:34:26 +0000";
layers = (
{
layerId = master01;
shapes = (
{
closed = 1;
nodes = (
(630,-12,o),
(758,164,o),
(758,353,cs),
(758,544,o),
(630,720,o),
(404,720,cs),
(178,720,o),
(50,544,o),
(50,353,cs),
(50,164,o),
(178,-12,o),
(404,-12,cs)
);
},
{
closed = 1;
nodes = (
(248,64,o),
(130,184,o),
(130,353,cs),
(130,518,o),
(247,644,o),
(404,644,cs),
(561,644,o),
(678,518,o),
(678,353,cs),
(678,184,o),
(560,64,o),
(404,64,cs)
);
},
{
closed = 1;
nodes = (
(391,486,ls),
(439,486,o),
(463,470,o),
(463,434,c),
(463,394,o),
(439,378,o),
(391,378,cs),
(340,378,l),
(340,486,l)
);
},
{
closed = 1;
nodes = (
(475,151,l),
(561,151,l),
(459,319,l),
(498,333,o),
(538,365,o),
(538,435,cs),
(538,501,o),
(498,551,o),
(415,551,cs),
(270,551,l),
(270,151,l),
(341,151,l),
(341,311,l),
(382,311,l)
);
}
);
width = 808;
}
);
unicode = 174;
},
{
glyphname = macron;
lastChange = "2021-08-26 07:34:26 +0000";
layers = (
{
layerId = master01;
shapes = (
{
closed = 1;
nodes = (
(497,640,l),
(497,720,l),
(149,720,l),
(149,640,l)
);
}
);
width = 600;
}
);
unicode = 175;
},
{
glyphname = degree;
lastChange = "2021-08-26 07:34:26 +0000";
layers = (
{
layerId = master01;
shapes = (
{
closed = 1;
nodes = (
(371,471,o),
(415,531,o),
(415,595,cs),
(415,661,o),
(371,720,o),
(294,720,cs),
(218,720,o),
(174,661,o),
(174,595,cs),
(174,531,o),
(218,471,o),
(294,471,cs)
);
},
{
closed = 1;
nodes = (
(261,535,o),
(236,560,o),
(236,595,cs),
(236,630,o),
(261,656,o),
(294,656,cs),
(328,656,o),
(353,630,o),
(353,595,cs),
(353,560,o),
(328,535,o),
(294,535,cs)
);
}
);
width = 600;
}
);
unicode = 176;
},
{
glyphname = periodcentered;
lastChange = "2021-08-26 07:34:26 +0000";
layers = (
{
layerId = master01;
shapes = (
{
closed = 1;
nodes = (
(188,241,o),
(216,270,o),
(216,304,cs),
(216,339,o),
(188,368,o),
(154,368,cs),
(119,368,o),
(90,339,o),
(90,304,cs),
(90,270,o),
(119,241,o),
(154,241,cs)
);
}
);
width = 306;
}
);
unicode = 183;
},
{
glyphname = questiondown;
lastChange = "2021-08-26 07:34:26 +0000";
layers = (
{
layerId = master01;
shapes = (
{
closed = 1;
nodes = (
(232,120,o),
(48,189,o),
(48,-30,cs),
(48,-149,o),
(140,-219,o),
(255,-219,cs),
(331,-219,o),
(403,-185,o),
(439,-123,c),
(454,-97,o),
(463,-66,o),
(463,-30,c),
(381,-30,l),
(381,-87,o),
(330,-139,o),
(256,-139,cs),
(178,-139,o),
(130,-92,o),
(130,-36,cs),
(130,128,o),
(323,63,o),
(323,284,cs),
(323,284,o),
(232,284,o),
(232,284,c)
);
},
{
closed = 1;
nodes = (
(253,512,o),
(225,483,o),
(225,449,cs),
(225,414,o),
(253,385,o),
(287,385,cs),
(322,385,o),
(351,414,o),
(351,449,cs),
(351,483,o),
(322,512,o),
(287,512,cs)
);
}
);
width = 511;
}
);
unicode = 191;
},
{
glyphname = AE;
lastChange = "2021-08-26 07:34:26 +0000";
layers = (
{
layerId = master01;
shapes = (
{
closed = 1;
nodes = (
(781,0,l),
(781,80,l),
(459,80,l),
(459,320,l),
(720,320,l),
(720,400,l),
(459,400,l),
(459,620,l),
(781,620,l),
(781,700,l),
(371,700,l),
(371,0,l)
);
},
{
closed = 1;
nodes = (
(401,195,l),
(401,275,l),
(155,275,l),
(155,195,l)
);
},
{
closed = 1;
nodes = (
(98,0,l),
(413,700,l),
(325,700,l),
(10,0,l)
);
}
);
width = 838;
}
);
unicode = 198;
},
{
glyphname = Eth;
lastChange = "2021-08-26 07:34:26 +0000";
layers = (
{
layerId = master01;
shapes = (
{
closed = 1;
nodes = (
(289,0,ls),
(519,0,o),
(626,141,o),
(626,349,cs),
(626,560,o),
(519,700,o),
(289,700,cs),
(97,700,l),
(97,0,l)
);
},
{
closed = 1;
nodes = (
(268,302,l),
(268,386,l),
(14,386,l),
(14,302,l)
);
},
{
closed = 1;
nodes = (
(183,620,l),
(292,620,ls),
(453,620,o),
(534,507,o),
(534,350,cs),
(534,192,o),
(453,80,o),
(292,80,cs),
(183,80,l)
);
}
);
width = 676;
}
);
unicode = 208;
},
{
glyphname = Oslash;
lastChange = "2021-08-26 07:34:26 +0000";
layers = (
{
layerId = master01;
shapes = (
{
ref = O;
},
{
closed = 1;
nodes = (
(53,12,l),
(107,-36,l),
(683,688,l),
(626,734,l)
);
}
);
width = 744;
}
);
unicode = 216;
},
{
glyphname = Thorn;
lastChange = "2021-08-26 07:34:26 +0000";
layers = (
{
hints = (
{
horizontal = 1;
origin = (1,9);
target = (0,7);
type = Stem;
},
{
horizontal = 1;
origin = (0,8);
target = (1,6);
type = Stem;
},
{
origin = (1,7);
target = (0,7);
type = Stem;
},
{
origin = (0,3);
target = (1,2);
type = Stem;
},
{
origin = (1,7);
target = (1,8);
type = Stem;
}
);
layerId = master01;
shapes = (
{
closed = 1;
nodes = (
(307,473,ls),
(392,473,o),
(440,445,o),
(440,360,cs),
(440,263,o),
(392,244,o),
(306,244,cs),
(183,244,l),
(183,473,l)
);
},
{
closed = 1;
nodes = (
(459,164,o),
(530,234,o),
(530,358,cs),
(530,487,o),
(459,553,o),
(309,553,cs),
(95,553,l),
(95,-1,l),
(185,-1,l),
(185,164,l),
(307,164,l)
);
},
{
closed = 1;
nodes = (
(95,464,l),
(183,464,l),
(183,700,l),
(95,700,l)
);
}
);
width = 565;
}
);
unicode = 222;
},
{
glyphname = germandbls;
lastChange = "2021-08-26 07:34:26 +0000";
layers = (
{
layerId = master01;
shapes = (
{
closed = 1;
nodes = (
(197,-9,l),
(209,-11,o),
(221,-12,o),
(235,-12,cs),
(363,-12,o),
(461,64,o),
(461,203,cs),
(461,286,o),
(418,348,o),
(355,384,c),
(397,416,o),
(425,465,o),
(425,530,cs),
(425,649,o),
(336,712,o),
(234,712,cs),
(123,712,o),
(40,649,o),
(40,530,cs),
(40,0,l),
(124,0,l),
(124,530,ls),
(124,586,o),
(157,636,o),
(233,636,cs),
(309,636,o),
(341,586,o),
(341,530,cs),
(341,465,o),
(309,418,o),
(235,418,cs),
(231,418,l),
(232,340,l),
(234,340,ls),
(314,340,o),
(373,278,o),
(373,203,cs),
(373,123,o),
(325,68,o),
(236,68,cs),
(221,68,o),
(208,68,o),
(197,70,c)
);
}
);
width = 505;
}
);
unicode = 223;
},
{
glyphname = ae;
lastChange = "2021-08-26 07:34:26 +0000";
layers = (
{
layerId = master01;
shapes = (
{
closed = 1;
nodes = (
(140,223,o),
(221,239,o),
(373,239,c),
(373,219,ls),
(373,120,o),
(283,64,o),
(221,64,cs),
(170,64,o),
(140,91,o),
(140,142,cs)
);
},
{
closed = 1;
nodes = (
(56,43,o),
(119,-12,o),
(200,-12,cs),
(345,-12,o),
(402,113,o),
(402,113,c),
(421,155,o),
(455,173,o),
(457,340,cs),
(458,429,o),
(388,512,o),
(270,512,cs),
(113,512,o),
(71,393,o),
(71,393,c),
(139,356,l),
(139,356,o),
(170,436,o),
(263,436,cs),
(331,436,o),
(373,390,o),
(373,336,cs),
(373,305,l),
(160,305,o),
(56,262,o),
(56,135,cs)
);
},
{
closed = 1;
nodes = (
(453,304,l),
(453,233,l),
(838,233,l),
(838,261,l),
(838,434,o),
(737,512,o),
(610,512,c),
(484,512,o),
(373,412,o),
(373,248,cs),
(373,87,o),
(484,-13,o),
(610,-13,c),
(711,-13,o),
(781,30,o),
(822,113,c),
(748,143,l),
(720,92,o),
(668,63,o),
(608,63,c),
(507,63,o),
(456,141,o),
(456,245,cs),
(456,349,o),
(507,436,o),
(608,436,c),
(705,436,o),
(754,360,o),
(754,304,c)
);
}
);
width = 888;
}
);
unicode = 230;
},
{
glyphname = eth;
lastChange = "2021-08-26 07:34:26 +0000";
layers = (
{
layerId = master01;
shapes = (
{
closed = 1;
nodes = (
(402,-12,o),
(511,78,o),
(515,250,cs),
(518,388,o),
(488,617,o),
(182,738,c),
(142,677,l),
(269,636,o),
(376,526,o),
(390,470,c),
(364,507,o),
(292,512,o),
(282,512,cs),
(162,512,o),
(54,422,o),
(54,250,cs),
(54,78,o),
(162,-12,o),
(282,-12,cs)
);
},
{
closed = 1;
nodes = (
(186,64,o),
(135,133,o),
(135,250,cs),
(135,367,o),
(186,436,o),
(282,436,cs),
(379,436,o),
(433,367,o),
(433,250,cs),
(433,133,o),
(379,64,o),
(282,64,cs)
);
},
{
closed = 1;
nodes = (
(358,712,l),
(308,748,l),
(181,584,l),
(229,545,l)
);
}
);
width = 569;
}
);
unicode = 240;
},
{
glyphname = divide;
lastChange = "2021-08-26 07:34:26 +0000";
layers = (
{
layerId = master01;
shapes = (
{
closed = 1;
nodes = (
(513,220,l),
(513,300,l),
(95,300,l),
(95,220,l)
);
},
{
closed = 1;
nodes = (
(339,385,o),
(367,414,o),
(367,448,cs),
(367,483,o),
(339,512,o),
(305,512,cs),
(270,512,o),
(241,483,o),
(241,448,cs),
(241,414,o),
(270,385,o),
(305,385,cs)
);
},
{
closed = 1;
nodes = (
(339,1,o),
(367,30,o),
(367,64,cs),
(367,99,o),
(339,128,o),
(305,128,cs),
(270,128,o),
(241,99,o),
(241,64,cs),
(241,30,o),
(270,1,o),
(305,1,cs)
);
}
);
width = 600;
}
);
unicode = 247;
},
{
glyphname = oslash;
lastChange = "2021-08-26 07:34:26 +0000";
layers = (
{
layerId = master01;
shapes = (
{
ref = o;
},
{
closed = 1;
nodes = (
(46,0,l),
(100,-48,l),
(533,500,l),
(476,546,l)
);
}
);
width = 580;
}
);
unicode = 248;
},
{
glyphname = thorn;
lastChange = "2021-08-26 07:34:26 +0000";
layers = (
{
layerId = master01;
shapes = (
{
closed = 1;
nodes = (
(231,65,o),
(177,148,o),
(177,250,cs),
(177,360,o),
(231,437,o),
(330,437,cs),
(428,437,o),
(476,356,o),
(476,252,cs),
(476,148,o),
(428,63,o),
(327,64,cs)
);
},
{
closed = 1;
nodes = (
(173,712,l),
(92,712,l),
(92,-230,l),
(176,-230,l),
(176,96,l),
(197,27,o),
(270,-12,o),
(339,-12,cs),
(470,-12,o),
(560,86,o),
(560,250,cs),
(560,419,o),
(465,512,o),
(334,512,cs),
(246,512,o),
(194,457,o),
(173,402,c)
);
}
);
width = 614;
}
);
unicode = 254;
},
{
glyphname = quoteleft;
lastChange = "2022-12-27 04:59:19 +0000";
layers = (
{
layerId = master01;
shapes = (
{
closed = 1;
nodes = (
(163,586,o),
(194,617,o),
(194,650,cs),
(194,685,o),
(164,720,o),
(128,720,cs),
(72,720,o),
(50,675,o),
(50,634,c),
(51,566,o),
(90,467,o),
(194,467,cs),
(195,467,o),
(194,500,o),
(194,500,c),
(194,500,o),
(120,515,o),
(120,587,c),
(122,586,o),
(127,586,o),
(130,586,cs)
);
}
);
width = 244;
}
);
unicode = 8216;
},
{
glyphname = quoteright;
lastChange = "2022-12-27 04:59:30 +0000";
layers = (
{
layerId = master01;
shapes = (
{
closed = 1;
nodes = (
(117,586,o),
(122,586,o),
(124,587,c),
(124,515,o),
(50,500,o),
(50,500,c),
(50,500,o),
(49,467,o),
(50,467,cs),
(154,467,o),
(193,566,o),
(194,634,c),
(194,675,o),
(172,720,o),
(116,720,cs),
(80,720,o),
(50,685,o),
(50,650,cs),
(50,617,o),
(81,586,o),
(114,586,cs)
);
}
);
width = 244;
}
);
unicode = 8217;
},
{
glyphname = g.ss01;
lastChange = "2021-08-26 07:34:26 +0000";
layers = (
{
layerId = master01;
shapes = (
{
closed = 1;
nodes = (
(131,-22,o),
(157,12,o),
(200,22,c),
(336,22,l),
(408,22,o),
(430,-2,o),
(431,-49,cs),
(432,-100,o),
(393,-154,o),
(275,-154,cs),
(178,-154,o),
(131,-122,o),
(131,-59,cs)
);
},
{
closed = 1;
nodes = (
(525,560,l),
(432,576,o),
(389,525,o),
(385,480,c),
(367,494,o),
(323,512,o),
(262,512,cs),
(135,512,o),
(72,427,o),
(72,340,cs),
(72,286,o),
(99,222,o),
(146,197,c),
(110,193,o),
(76,164,o),
(76,127,cs),
(76,86,o),
(102,61,o),
(135,52,c),
(76,31,o),
(53,-31,o),
(53,-73,cs),
(53,-172,o),
(150,-229,o),
(275,-229,cs),
(420,-229,o),
(509,-148,o),
(509,-46,cs),
(509,20,o),
(473,94,o),
(344,94,cs),
(207,94,ls),
(138,94,o),
(146,174,o),
(206,174,cs),
(217,174,o),
(257,174,o),
(269,174,cs),
(385,174,o),
(456,242,o),
(456,340,cs),
(456,375,o),
(444,417,o),
(421,447,c),
(434,476,o),
(487,478,o),
(525,472,c)
);
},
{
closed = 1;
nodes = (
(345,441,o),
(376,396,o),
(376,343,cs),
(376,285,o),
(345,243,o),
(261,243,c),
(184,243,o),
(152,287,o),
(152,342,cs),
(152,395,o),
(184,441,o),
(261,441,c)
);
}
);
width = 547;
},
{
associatedMasterId = master01;
layerId = "077287D2-C640-42BE-89DC-9237D68A85C4";
name = foreground;
shapes = (
{
closed = 1;
nodes = (
(183,240,o),
(147,288,o),
(147,343,cs),
(147,398,o),
(180,440,o),
(245,440,cs),
(312,440,o),
(344,398,o),
(344,343,cs),
(344,288,o),
(312,240,o),
(245,240,cs)
);
},
{
closed = 1;
nodes = (
(129,-46,o),
(148,-8,o),
(188,12,c),
(298,12,l),
(361,12,o),
(405,-12,o),
(403,-81,cs),
(401,-150,o),
(334,-171,o),
(248,-169,c),
(174,-167,o),
(129,-127,o),
(129,-82,c)
);
},
{
closed = 1;
nodes = (
(509,560,l),
(416,576,o),
(373,525,o),
(370,480,c),
(340,500,o),
(299,512,o),
(248,512,cs),
(119,512,o),
(57,434,o),
(57,337,cs),
(57,280,o),
(84,216,o),
(139,191,c),
(118,183,o),
(57,164,o),
(57,103,cs),
(57,61,o),
(101,37,o),
(142,28,c),
(79,12,o),
(42,-33,o),
(42,-89,cs),
(42,-161,o),
(108,-250,o),
(249,-250,c),
(419,-251,o),
(495,-174,o),
(494,-67,cs),
(493,13,o),
(425,99,o),
(306,99,cs),
(206,99,ls),
(137,99,o),
(147,168,o),
(207,168,cs),
(218,168,o),
(241,168,o),
(248,168,cs),
(380,168,o),
(441,242,o),
(440,337,cs),
(440,379,o),
(428,417,o),
(405,447,c),
(418,476,o),
(471,478,o),
(509,472,c)
);
}
);
width = 523;
},
{
associatedMasterId = master01;
layerId = "7A42339F-1245-461A-AC41-BAF96E1C6F90";
name = "22 Jul 21, 14:28";
shapes = (
{
closed = 1;
nodes = (
(195,246,o),
(151,292,o),
(151,344,cs),
(151,396,o),
(192,440,o),
(257,440,cs),
(324,440,o),
(370,396,o),
(370,344,cs),
(370,292,o),
(324,246,o),
(257,246,cs)
);
},
{
closed = 1;
nodes = (
(138,-22,o),
(163,10,o),
(209,30,c),
(307,30,l),
(365,30,o),
(410,-1,o),
(408,-70,cs),
(406,-139,o),
(345,-155,o),
(266,-155,c),
(192,-155,o),
(138,-120,o),
(138,-70,cs)
);
},
{
closed = 1;
nodes = (
(521,560,l),
(428,576,o),
(385,525,o),
(382,480,c),
(352,500,o),
(311,512,o),
(260,512,cs),
(148,512,o),
(69,427,o),
(69,340,cs),
(69,286,o),
(96,222,o),
(151,197,c),
(126,194,o),
(77,181,o),
(77,117,cs),
(77,75,o),
(113,50,o),
(154,41,c),
(91,25,o),
(54,-22,o),
(54,-78,cs),
(54,-150,o),
(120,-229,o),
(261,-229,c),
(418,-230,o),
(494,-163,o),
(493,-56,cs),
(492,24,o),
(440,102,o),
(315,102,cs),
(210,102,ls),
(141,102,o),
(151,174,o),
(211,174,cs),
(222,174,o),
(253,174,o),
(260,174,cs),
(392,174,o),
(452,269,o),
(452,340,cs),
(452,375,o),
(440,417,o),
(417,447,c),
(430,476,o),
(483,478,o),
(521,472,c)
);
},
{
closed = 1;
nodes = (
(423,-97,o),
(378,-146,o),
(254,-146,cs),
(180,-146,o),
(132,-102,o),
(107,-43,c),
(29,-86,l),
(74,-187,o),
(166,-229,o),
(253,-230,cs),
(369,-232,o),
(506,-180,o),
(506,-12,cs),
(507,500,l),
(426,500,l),
(426,402,l),
(405,457,o),
(348,512,o),
(260,512,cs),
(129,512,o),
(31,419,o),
(31,250,cs),
(31,86,o),
(124,-12,o),
(255,-12,cs),
(324,-12,o),
(402,27,o),
(423,96,c),
(423,-12,ls)
);
},
{
closed = 1;
nodes = (
(166,63,o),
(115,148,o),
(115,252,cs),
(115,356,o),
(166,437,o),
(264,437,cs),
(363,437,o),
(422,360,o),
(422,250,cs),
(422,148,o),
(363,65,o),
(267,64,cs)
);
}
);
width = 543;
}
);
},
{
glyphname = a.ss01;
lastChange = "2022-12-27 04:51:23 +0000";
layers = (
{
hints = (
{
horizontal = 1;
place = (-12,76);
type = Stem;
},
{
horizontal = 1;
place = (436,76);
type = Stem;
},
{
place = (457,83);
type = Stem;
},
{
place = (73,84);
type = Stem;
}
);
layerId = master01;
shapes = (
{
closed = 1;
nodes = (
(142,223,o),
(223,244,o),
(375,244,c),
(375,219,ls),
(375,120,o),
(285,64,o),
(223,64,cs),
(172,64,o),
(142,91,o),
(142,142,cs)
);
},
{
closed = 1;
nodes = (
(58,43,o),
(121,-12,o),
(202,-12,cs),
(336,-12,o),
(382,106,o),
(382,106,c),
(382,35,o),
(418,0,o),
(470,0,cs),
(495,0,o),
(508,4,o),
(522,12,c),
(522,80,l),
(473,69,o),
(459,87,o),
(459,127,cs),
(459,340,ls),
(459,429,o),
(390,512,o),
(272,512,cs),
(115,512,o),
(73,393,o),
(73,393,c),
(141,356,l),
(141,356,o),
(172,436,o),
(265,436,cs),
(333,436,o),
(375,390,o),
(375,336,cs),
(375,310,l),
(172,310,o),
(58,262,o),
(58,135,cs)
);
}
);
width = 590;
},
{
associatedMasterId = master01;
layerId = "9D365B9B-32C5-456F-91EC-EA0BDBFBA64C";
name = foreground;
shapes = (
{
closed = 1;
nodes = (
(383,426,o),
(426,339,o),
(426,252,cs),
(426,165,o),
(381,75,o),
(285,75,c),
(191,75,o),
(149,165,o),
(149,252,cs),
(149,339,o),
(189,426,o),
(285,426,c)
);
},
{
closed = 1;
nodes = (
(127,512,o),
(40,397,o),
(40,250,cs),
(40,123,o),
(108,-13,o),
(260,-12,c),
(335,-12,o),
(395,27,o),
(423,98,c),
(423,0,l),
(523,0,l),
(523,499,l),
(423,499,l),
(423,422,l),
(400,475,o),
(329,512,o),
(260,512,c)
);
}
);
width = 583;
},
{
associatedMasterId = master01;
layerId = "B723C8F9-18DA-486D-A68C-0EA6D66026F1";
name = "1 Aug 21, 12:43";
shapes = (
{
closed = 1;
nodes = (
(383,426,o),
(426,339,o),
(426,252,cs),
(426,165,o),
(381,75,o),
(285,75,c),
(191,75,o),
(149,165,o),
(149,252,cs),
(149,339,o),
(189,426,o),
(285,426,c)
);
},
{
closed = 1;
nodes = (
(196,63,o),
(148,148,o),
(148,252,cs),
(148,356,o),
(196,437,o),
(294,437,cs),
(393,437,o),
(447,360,o),
(447,250,cs),
(447,148,o),
(393,65,o),
(297,64,cs)
);
},
{
closed = 0;
nodes = (
(531,-103,l),
(532,500,l),
(451,500,l),
(451,402,l),
(430,457,o),
(378,512,o),
(290,512,cs),
(159,512,o),
(64,419,o),
(64,250,cs),
(64,86,o),
(154,-12,o),
(285,-12,cs),
(354,-12,o),
(427,27,o),
(448,96,c)
);
}
);
width = 583;
}
);
},
{
glyphname = Lslash;
lastChange = "2021-08-26 07:34:26 +0000";
layers = (
{
anchors = (
{
name = top;
pos = (139,712);
}
);
hints = (
{
horizontal = 1;
origin = (0,5);
target = (0,4);
type = Stem;
},
{
origin = (0,5);
target = (0,0);
type = Stem;
}
);
layerId = master01;
shapes = (
{
closed = 1;
nodes = (
(506,0,l),
(506,80,l),
(183,80,l),
(183,700,l),
(95,700,l),
(95,0,l)
);
},
{
closed = 1;
nodes = (
(336,398,l),
(301,462,l),
(-15,294,l),
(19,229,l)
);
}
);
width = 524;
}
);
unicode = 321;
},
{
glyphname = Eng;
lastChange = "2021-08-26 07:34:26 +0000";
layers = (
{
hints = (
{
horizontal = 1;
origin = (0,18);
target = (0,17);
type = Stem;
},
{
origin = (0,18);
target = (0,19);
type = Stem;
},
{
origin = (0,15);
target = (1,0);
type = Stem;
}
);
layerId = master01;
shapes = (
{
closed = 1;
nodes = (
(530,-97,o),
(502,-116,o),
(453,-116,cs),
(440,-116,o),
(423,-115,o),
(407,-112,c),
(406,-180,l),
(423,-185,o),
(446,-188,o),
(462,-188,cs),
(571,-188,o),
(618,-137,o),
(618,-44,cs),
(618,700,l),
(530,700,l),
(530,193,l),
(223,700,l),
(95,700,l),
(95,0,l),
(183,0,l),
(183,578,l),
(530,26,l),
(530,-43,l)
);
}
);
width = 713;
}
);
unicode = 330;
},
{
glyphname = Ohorn;
lastChange = "2021-11-06 23:25:46 +0000";
layers = (
{
layerId = master01;
shapes = (
{
closed = 1;
nodes = (
(367,674,o),
(372,641,o),
(498,641,cs),
(633,641,o),
(640,762,o),
(620,824,c),
(533,818,l),
(545,774,o),
(548,709,o),
(471,707,cs),
(399,704,o),
(383,713,o),
(307,713,c),
(336,674,l)
);
},
{
pos = (-71,0);
ref = O;
}
);
width = 600;
}
);
unicode = 416;
},
{
glyphname = OE;
lastChange = "2021-08-26 07:34:26 +0000";
layers = (
{
layerId = master01;
shapes = (
{
closed = 1;
nodes = (
(596,-11,o),
(689,158,o),
(689,351,cs),
(689,544,o),
(596,713,o),
(372,713,cs),
(148,713,o),
(55,544,o),
(55,351,cs),
(55,158,o),
(148,-11,o),
(372,-11,cs)
);
},
{
closed = 0;
nodes = (
(372,-11,l)
);
},
{
closed = 1;
nodes = (
(225,69,o),
(147,196,o),
(147,351,cs),
(147,506,o),
(225,633,o),
(372,633,cs),
(529,633,o),
(597,506,o),
(597,351,cs),
(597,196,o),
(529,69,o),
(372,69,cs)
);
},
{
closed = 0;
nodes = (
(372,713,l)
);
},
{
closed = 1;
nodes = (
(1009,0,l),
(1009,80,l),
(687,80,l),
(687,320,l),
(948,320,l),
(948,400,l),
(687,400,l),
(687,620,l),
(1009,620,l),
(1009,700,l),
(599,700,l),
(599,0,l)
);
}
);
width = 1066;
}
);
unicode = 338;
},
{
glyphname = Uhorn;
lastChange = "2021-11-06 23:33:22 +0000";
layers = (
{
layerId = master01;
shapes = (
{
pos = (0,-1);
ref = U;
},
{
closed = 1;
nodes = (
(492,697,o),
(490,634,o),
(591,634,cs),
(726,634,o),
(733,755,o),
(713,817,c),
(626,811,l),
(638,767,o),
(641,702,o),
(564,700,cs)
);
}
);
width = 674;
}
);
unicode = 431;
},
{
glyphname = dcroat;
lastChange = "2021-11-06 22:10:57 +0000";
layers = (
{
layerId = master01;
shapes = (
{
ref = d;
},
{
closed = 1;
nodes = (
(589,594,l),
(589,664,l),
(327,664,l),
(327,594,l)
);
}
);
width = 627;
}
);
unicode = 273;
},
{
glyphname = gcommaaccent;
lastChange = "2021-08-26 07:34:26 +0000";
layers = (
{
layerId = master01;
shapes = (
{
ref = g;
},
{
closed = 1;
nodes = (
(310,750,l),
(220,592,l),
(340,592,l),
(392,750,l)
);
}
);
width = 607;
}
);
unicode = 291;
},
{
glyphname = idotless;
lastChange = "2021-08-26 07:34:26 +0000";
layers = (
{
anchors = (
{
name = top;
pos = (130,512);
}
);
layerId = master01;
shapes = (
{
closed = 1;
nodes = (
(172,0,l),
(172,500,l),
(88,500,l),
(88,0,l)
);
}
);
width = 260;
}
);
unicode = 305;
},
{
glyphname = jdotless;
lastChange = "2021-08-26 07:34:26 +0000";
layers = (
{
anchors = (
{
name = top;
pos = (169,512);
}
);
hints = (
{
horizontal = 1;
place = (-249,94);
type = Stem;
},
{
horizontal = 1;
place = (720,-220);
target = (0,3);
type = Stem;
},
{
origin = (0,3);
target = (0,2);
type = Stem;
},
{
origin = (0,3);
target = (0,2);
type = Stem;
}
);
layerId = master01;
shapes = (
{
closed = 1;
nodes = (
(210,-86,o),
(211,0,o),
(211,500,c),
(127,500,l),
(127,-85,l),
(127,-139,o),
(100,-158,o),
(51,-158,cs),
(38,-158,o),
(21,-157,o),
(5,-154,c),
(4,-222,l),
(21,-227,o),
(44,-230,o),
(60,-230,cs),
(169,-230,o),
(210,-179,o),
(210,-86,cs)
);
}
);
width = 301;
}
);
unicode = 567;
},
{
glyphname = lslash;
lastChange = "2021-08-26 07:34:26 +0000";
layers = (
{
layerId = master01;
shapes = (
{
ref = l;
},
{
closed = 1;
nodes = (
(291,373,l),
(256,437,l),
(-15,294,l),
(19,229,l)
);
}
);
width = 258;
}
);
unicode = 322;
},
{
glyphname = nhookleft;
lastChange = "2021-08-26 07:34:26 +0000";
layers = (
{
layerId = master01;
shapes = (
{
closed = 1;
nodes = (
(176,270,ls),
(176,366,o),
(223,436,o),
(315,436,cs),
(382,436,o),
(427,403,o),
(427,316,cs),
(427,1,l),
(509,1,l),
(511,328,ls),
(512,448,o),
(440,512,o),
(343,512,cs),
(231,512,o),
(185,441,o),
(176,406,c),
(176,500,l),
(92,500,l),
(92,-43,ls),
(92,-97,o),
(64,-116,o),
(15,-116,cs),
(2,-116,o),
(-15,-115,o),
(-31,-112,c),
(-32,-180,l),
(-15,-185,o),
(8,-188,o),
(24,-188,cs),
(133,-188,o),
(176,-137,o),
(176,-44,cs)
);
}
);
width = 600;
}
);
unicode = 626;
},
{
glyphname = eng;
lastChange = "2021-08-26 07:34:26 +0000";
layers = (
{
layerId = master01;
shapes = (
{
closed = 1;
nodes = (
(427,-97,o),
(399,-116,o),
(350,-116,cs),
(337,-116,o),
(320,-115,o),
(304,-112,c),
(303,-180,l),
(320,-185,o),
(343,-188,o),
(359,-188,cs),
(468,-188,o),
(509,-137,o),
(509,-44,cs),
(511,328,ls),
(512,448,o),
(440,512,o),
(343,512,cs),
(231,512,o),
(185,441,o),
(176,406,c),
(176,500,l),
(92,500,l),
(92,0,l),
(176,0,l),
(176,270,ls),
(176,366,o),
(223,436,o),
(315,436,cs),
(382,436,o),
(427,403,o),
(427,316,cs),
(427,-43,ls)
);
}
);
width = 600;
}
);
unicode = 331;
},
{
glyphname = ohorn;
lastChange = "2021-11-06 22:01:16 +0000";
layers = (
{
anchors = (
{
name = top;
pos = (290,516);
}
);
hints = (
{
horizontal = 1;
origin = (0,11);
target = (1,11);
type = Stem;
},
{
horizontal = 1;
origin = (2,12);
target = (1,5);
type = Stem;
},
{
origin = (0,8);
target = (1,2);
type = Stem;
},
{
origin = (1,8);
target = (0,2);
type = Stem;
}
);
layerId = master01;
shapes = (
{
closed = 1;
nodes = (
(414,-12,o),
(526,78,o),
(526,250,cs),
(526,422,o),
(414,512,o),
(290,512,cs),
(166,512,o),
(54,422,o),
(54,250,cs),
(54,78,o),
(166,-12,o),
(290,-12,cs)
);
},
{
closed = 1;
nodes = (
(190,64,o),
(138,133,o),
(138,250,cs),
(138,367,o),
(190,436,o),
(290,436,cs),
(390,436,o),
(442,367,o),
(442,250,cs),
(442,133,o),
(390,64,o),
(290,64,cs)
);
},
{
closed = 1;
nodes = (
(334,480,o),
(338,453,o),
(442,453,cs),
(554,453,o),
(559,553,o),
(543,604,c),
(471,599,l),
(481,563,o),
(483,509,o),
(420,507,cs),
(360,505,o),
(346,515,o),
(284,512,c),
(308,480,l)
);
}
);
width = 580;
}
);
unicode = 417;
},
{
glyphname = ohornacute;
lastChange = "2021-11-06 22:04:43 +0000";
layers = (
{
layerId = master01;
shapes = (
{
closed = 1;
nodes = (
(414,-12,o),
(526,78,o),
(526,250,cs),
(526,422,o),
(414,512,o),
(290,512,cs),
(166,512,o),
(54,422,o),
(54,250,cs),
(54,78,o),
(166,-12,o),
(290,-12,cs)
);
},
{
closed = 1;
nodes = (
(190,64,o),
(138,133,o),
(138,250,cs),
(138,367,o),
(190,436,o),
(290,436,cs),
(390,436,o),
(442,367,o),
(442,250,cs),
(442,133,o),
(390,64,o),
(290,64,cs)
);
},
{
closed = 1;
nodes = (
(334,480,o),
(338,453,o),
(442,453,cs),
(554,453,o),
(559,553,o),
(543,604,c),
(471,599,l),
(481,563,o),
(483,509,o),
(420,507,cs),
(360,505,o),
(346,515,o),
(284,512,c),
(308,480,l)
);
},
{
pos = (223,0);
ref = acutecomb;
}
);
width = 600;
}
);
unicode = 7899;
},
{
glyphname = oe;
lastChange = "2021-08-26 07:34:26 +0000";
layers = (
{
layerId = master01;
shapes = (
{
closed = 1;
nodes = (
(414,-12,o),
(526,78,o),
(526,250,cs),
(526,422,o),
(414,512,o),
(290,512,cs),
(166,512,o),
(54,422,o),
(54,250,cs),
(54,78,o),
(166,-12,o),
(290,-12,cs)
);
},
{
closed = 1;
nodes = (
(190,64,o),
(138,133,o),
(138,250,cs),
(138,367,o),
(190,436,o),
(290,436,cs),
(390,436,o),
(442,367,o),
(442,250,cs),
(442,133,o),
(390,64,o),
(290,64,cs)
);
},
{
closed = 1;
nodes = (
(523,304,l),
(523,230,l),
(908,230,l),
(908,261,l),
(908,434,o),
(807,512,o),
(680,512,c),
(554,512,o),
(443,412,o),
(443,248,cs),
(443,87,o),
(554,-13,o),
(680,-13,c),
(781,-13,o),
(851,30,o),
(892,113,c),
(818,143,l),
(790,92,o),
(738,63,o),
(678,63,c),
(577,63,o),
(526,141,o),
(526,245,cs),
(526,349,o),
(577,436,o),
(678,436,c),
(775,436,o),
(824,360,o),
(824,304,c)
);
}
);
width = 958;
}
);
unicode = 339;
},
{
glyphname = uhorn;
lastChange = "2021-11-06 22:07:34 +0000";
layers = (
{
layerId = master01;
shapes = (
{
closed = 1;
nodes = (
(427,498,o),
(425,446,o),
(488,446,c),
(625,446,o),
(626,546,o),
(610,597,c),
(538,592,l),
(548,556,o),
(550,502,o),
(487,500,cs)
);
},
{
ref = u;
}
);
width = 600;
}
);
unicode = 432;
},
{
glyphname = uni0273;
lastChange = "2021-08-26 07:34:26 +0000";
layers = (
{
layerId = master01;
shapes = (
{
closed = 1;
nodes = (
(511,328,ls),
(511,448,o),
(440,512,o),
(343,512,cs),
(231,512,o),
(185,441,o),
(176,406,c),
(176,500,l),
(92,500,l),
(92,0,l),
(176,0,l),
(176,270,ls),
(176,366,o),
(223,436,o),
(315,436,cs),
(382,436,o),
(427,403,o),
(427,316,cs),
(427,-44,ls),
(427,-137,o),
(468,-188,o),
(577,-188,cs),
(593,-188,o),
(616,-185,o),
(633,-180,c),
(632,-112,l),
(616,-115,o),
(599,-116,o),
(586,-116,cs),
(537,-116,o),
(511,-97,o),
(511,-43,cs)
);
}
);
width = 600;
}
);
unicode = 627;
},
{
glyphname = uni1E49;
lastChange = "2021-08-26 07:34:26 +0000";
layers = (
{
anchors = (
{
name = bottom;
pos = (315,0);
}
);
layerId = master01;
shapes = (
{
closed = 1;
nodes = (
(176,500,l),
(92,500,l),
(92,0,l),
(176,0,l),
(176,270,ls),
(176,366,o),
(223,436,o),
(315,436,cs),
(382,436,o),
(427,403,o),
(427,316,cs),
(427,0,l),
(511,0,l),
(511,328,ls),
(511,448,o),
(440,512,o),
(343,512,cs),
(231,512,o),
(185,441,o),
(176,406,c)
);
},
{
ref = macronbelowcomb;
}
);
width = 600;
}
);
unicode = 7753;
},
{
glyphname = bullet;
lastChange = "2021-08-26 07:34:26 +0000";
layers = (
{
layerId = master01;
shapes = (
{
closed = 1;
nodes = (
(216,223,o),
(254,262,o),
(254,307,cs),
(254,354,o),
(216,393,o),
(171,393,cs),
(124,393,o),
(85,354,o),
(85,307,cs),
(85,262,o),
(124,223,o),
(171,223,cs)
);
}
);
width = 339;
}
);
unicode = 8226;
},
{
glyphname = endash;
lastChange = "2021-08-26 07:34:26 +0000";
layers = (
{
layerId = master01;
shapes = (
{
closed = 1;
nodes = (
(484,255,l),
(484,335,l),
(71,335,l),
(71,255,l)
);
}
);
width = 555;
}
);
unicode = 8211;
},
{
glyphname = emdash;
lastChange = "2021-08-26 07:34:26 +0000";
layers = (
{
layerId = master01;
shapes = (
{
closed = 1;
nodes = (
(816,253,l),
(816,333,l),
(71,333,l),
(71,253,l)
);
}
);
width = 887;
}
);
unicode = 8212;
},
{
glyphname = quotedblleft;
lastChange = "2021-11-02 21:25:39 +0000";
layers = (
{
layerId = master01;
shapes = (
{
closed = 1;
nodes = (
(163,591,o),
(189,618,o),
(189,655,cs),
(189,697,o),
(162,725,o),
(123,725,cs),
(67,725,o),
(45,680,o),
(45,639,c),
(46,571,o),
(85,472,o),
(189,472,cs),
(190,472,o),
(189,505,o),
(189,505,c),
(189,505,o),
(115,520,o),
(115,592,c),
(117,591,o),
(122,591,o),
(125,591,cs)
);
},
{
closed = 1;
nodes = (
(356,591,o),
(382,618,o),
(382,655,cs),
(382,697,o),
(355,725,o),
(316,725,cs),
(260,725,o),
(238,680,o),
(238,639,c),
(239,571,o),
(278,472,o),
(382,472,cs),
(383,472,o),
(382,505,o),
(382,505,c),
(382,505,o),
(308,520,o),
(308,592,c),
(310,591,o),
(315,591,o),
(318,591,cs)
);
}
);
width = 432;
}
);
unicode = 8220;
},
{
glyphname = quotedblright;
lastChange = "2021-11-02 21:25:55 +0000";
layers = (
{
layerId = master01;
shapes = (
{
closed = 1;
nodes = (
(310,591,o),
(315,591,o),
(317,592,c),
(317,520,o),
(243,505,o),
(243,505,c),
(243,505,o),
(242,472,o),
(243,472,cs),
(347,472,o),
(386,571,o),
(387,639,c),
(387,680,o),
(365,725,o),
(309,725,cs),
(270,725,o),
(243,697,o),
(243,655,cs),
(243,618,o),
(269,591,o),
(307,591,cs)
);
},
{
closed = 1;
nodes = (
(117,591,o),
(122,591,o),
(124,592,c),
(124,520,o),
(50,505,o),
(50,505,c),
(50,505,o),
(49,472,o),
(50,472,cs),
(154,472,o),
(193,571,o),
(194,639,c),
(194,680,o),
(172,725,o),
(116,725,cs),
(77,725,o),
(50,697,o),
(50,655,cs),
(50,618,o),
(76,591,o),
(114,591,cs)
);
}
);
width = 432;
}
);
unicode = 8221;
},
{
glyphname = apostrophe;
lastChange = "2022-12-27 05:00:18 +0000";
layers = (
{
layerId = master01;
shapes = (
{
closed = 1;
nodes = (
(117,586,o),
(122,586,o),
(124,587,c),
(124,515,o),
(50,500,o),
(50,500,c),
(50,500,o),
(49,467,o),
(50,467,cs),
(154,467,o),
(193,566,o),
(194,634,c),
(194,675,o),
(172,720,o),
(116,720,cs),
(80,720,o),
(50,685,o),
(50,650,cs),
(50,617,o),
(81,586,o),
(114,586,cs)
);
}
);
width = 244;
}
);
},
{
glyphname = trademark;
lastChange = "2021-08-26 07:34:26 +0000";
layers = (
{
hints = (
{
horizontal = 1;
origin = (0,3);
target = (0,4);
type = Stem;
},
{
origin = (0,6);
target = (0,7);
type = Stem;
},
{
horizontal = 1;
origin = (1,3);
target = (1,4);
type = Stem;
},
{
origin = (1,3);
target = (1,2);
type = Stem;
},
{
place = (1170,88);
type = Stem;
}
);
layerId = master01;
shapes = (
{
closed = 1;
nodes = (
(202,640,l),
(309,640,l),
(309,700,l),
(28,700,l),
(28,640,l),
(132,640,l),
(132,319,l),
(202,319,l)
);
},
{
closed = 1;
nodes = (
(534,353,l),
(434,573,l),
(434,319,l),
(364,319,l),
(364,700,l),
(449,700,l),
(555,471,l),
(660,700,l),
(745,700,l),
(745,319,l),
(675,319,l),
(675,573,l),
(575,353,l)
);
}
);
width = 773;
}
);
unicode = 8482;
},
{
glyphname = euro;
lastChange = "2021-08-26 07:34:26 +0000";
layers = (
{
layerId = master01;
shapes = (
{
closed = 1;
nodes = (
(439,-13,o),
(529,40,o),
(575,121,c),
(494,163,l),
(460,105,o),
(398,67,o),
(316,67,cs),
(172,67,o),
(97,193,o),
(97,356,cs),
(97,519,o),
(172,643,o),
(316,643,cs),
(398,643,o),
(460,605,o),
(494,547,c),
(575,589,l),
(529,670,o),
(439,723,o),
(316,723,cs),
(96,723,o),
(7,539,o),
(7,355,cs),
(7,171,o),
(96,-13,o),
(316,-13,cs)
);
},
{
closed = 1;
nodes = (
(431,225,l),
(451,305,l),
(-51,305,l),
(-71,225,l)
);
},
{
closed = 1;
nodes = (
(431,370,l),
(451,450,l),
(-51,450,l),
(-71,370,l)
);
}
);
width = 600;
}
);
unicode = 8364;
},
{
glyphname = dieresiscomb;
lastChange = "2021-08-26 07:34:26 +0000";
layers = (
{
anchors = (
{
name = _top;
pos = (161,512);
}
);
layerId = master01;
shapes = (
{
closed = 1;
nodes = (
(105,611,o),
(129,636,o),
(129,666,cs),
(129,696,o),
(105,721,o),
(75,721,cs),
(45,721,o),
(20,696,o),
(20,666,cs),
(20,636,o),
(45,611,o),
(75,611,cs)
);
},
{
closed = 1;
nodes = (
(280,611,o),
(304,636,o),
(304,666,cs),
(304,696,o),
(280,721,o),
(250,721,cs),
(220,721,o),
(195,696,o),
(195,666,cs),
(195,636,o),
(220,611,o),
(250,611,cs)
);
}
);
width = 324;
}
);
unicode = 776;
},
{
glyphname = dotaccentcomb;
lastChange = "2021-08-26 07:34:26 +0000";
layers = (
{
anchors = (
{
name = _top;
pos = (74,512);
}
);
layerId = master01;
shapes = (
{
closed = 1;
nodes = (
(104,602,o),
(128,627,o),
(128,657,cs),
(128,687,o),
(104,712,o),
(74,712,cs),
(44,712,o),
(19,687,o),
(19,657,cs),
(19,627,o),
(44,602,o),
(74,602,cs)
);
}
);
width = 147;
}
);
unicode = 775;
},
{
glyphname = gravecomb;
lastChange = "2021-11-06 23:37:26 +0000";
layers = (
{
anchors = (
{
name = _top;
pos = (178,512);
}
);
layerId = master01;
shapes = (
{
closed = 1;
nodes = (
(131,712,l),
(21,712,l),
(143,557,l),
(215,557,l)
);
}
);
width = 237;
}
);
unicode = 768;
},
{
glyphname = acutecomb;
lastChange = "2021-11-06 23:37:40 +0000";
layers = (
{
anchors = (
{
name = _top;
pos = (56,512);
}
);
layerId = master01;
shapes = (
{
closed = 1;
nodes = (
(96,557,l),
(218,712,l),
(108,712,l),
(24,557,l)
);
}
);
width = 237;
}
);
unicode = 769;
},
{
glyphname = hungarumlautcomb;
lastChange = "2021-08-26 07:34:26 +0000";
layers = (
{
anchors = (
{
name = _top;
pos = (253,512);
}
);
layerId = master01;
shapes = (
{
closed = 1;
nodes = (
(193,557,l),
(315,712,l),
(195,712,l),
(111,557,l)
);
},
{
closed = 1;
nodes = (
(385,557,l),
(507,712,l),
(387,712,l),
(303,557,l)
);
}
);
width = 600;
}
);
unicode = 779;
},
{
glyphname = caroncomb.alt;
lastChange = "2021-08-26 07:34:26 +0000";
layers = (
{
layerId = master01;
shapes = (
{
closed = 1;
nodes = (
(391,529,l),
(459,712,l),
(352,712,l),
(322,529,l)
);
}
);
width = 600;
}
);
},
{
glyphname = circumflexcomb;
lastChange = "2021-11-06 23:45:40 +0000";
layers = (
{
anchors = (
{
name = _top;
pos = (211,512);
}
);
layerId = master01;
shapes = (
{
closed = 1;
nodes = (
(195,745,l),
(226,745,l),
(390,557,l),
(301,557,l),
(211,664,l),
(120,557,l),
(30,557,l)
);
}
);
width = 420;
},
{
associatedMasterId = master01;
layerId = "20458CA3-7F03-4177-ABD8-708FA8DF63BB";
name = "3 Aug 21, 16:24";
shapes = (
{
closed = 1;
nodes = (
(104,557,l),
(190,557,l),
(353,745,l),
(267,745,l)
);
},
{
closed = 1;
nodes = (
(216,745,l),
(379,557,l),
(465,557,l),
(302,745,l)
);
},
{
closed = 1;
nodes = (
(104,557,l),
(190,557,l),
(353,745,l),
(267,745,l)
);
},
{
closed = 1;
nodes = (
(216,745,l),
(379,557,l),
(465,557,l),
(302,745,l)
);
}
);
width = 600;
}
);
unicode = 770;
},
{
glyphname = caroncomb;
lastChange = "2021-08-26 07:34:26 +0000";
layers = (
{
anchors = (
{
name = _top;
pos = (213,512);
}
);
layerId = master01;
shapes = (
{
closed = 1;
nodes = (
(116,745,l),
(211,635,l),
(305,745,l),
(390,745,l),
(226,557,l),
(195,557,l),
(30,745,l)
);
}
);
width = 420;
}
);
unicode = 780;
},
{
glyphname = brevecomb;
lastChange = "2021-08-26 07:34:26 +0000";
layers = (
{
anchors = (
{
name = _top;
pos = (306,512);
}
);
layerId = master01;
shapes = (
{
closed = 1;
nodes = (
(381,720,l),
(381,677,o),
(354,637,o),
(304,637,cs),
(256,637,o),
(228,677,o),
(228,720,c),
(157,720,l),
(157,641,o),
(211,568,o),
(304,568,cs),
(398,568,o),
(452,641,o),
(452,720,c)
);
}
);
width = 600;
}
);
unicode = 774;
},
{
glyphname = ringcomb;
lastChange = "2021-08-26 07:34:26 +0000";
layers = (
{
anchors = (
{
name = _top;
pos = (118,512);
}
);
layerId = master01;
shapes = (
{
closed = 1;
nodes = (
(182,570,o),
(219,620,o),
(219,673,cs),
(219,728,o),
(182,777,o),
(118,777,cs),
(55,777,o),
(18,728,o),
(18,673,cs),
(18,620,o),
(55,570,o),
(118,570,cs)
);
},
{
closed = 1;
nodes = (
(93,627,o),
(74,646,o),
(74,673,cs),
(74,700,o),
(93,720,o),
(118,720,cs),
(144,720,o),
(163,700,o),
(163,673,cs),
(163,646,o),
(144,627,o),
(118,627,cs)
);
}
);
width = 237;
}
);
unicode = 778;
},
{
glyphname = tildecomb;
lastChange = "2021-11-06 21:26:24 +0000";
layers = (
{
anchors = (
{
name = _top;
pos = (282,512);
}
);
layerId = master01;
shapes = (
{
closed = 1;
nodes = (
(315,609,o),
(331,599,o),
(357,599,cs),
(412,599,o),
(438,643,o),
(453,658,c),
(428,700,l),
(412,685,o),
(394,671,o),
(358,671,cs),
(336,671,o),
(317,682,o),
(298,693,c),
(282,702,o),
(265,712,o),
(240,712,cs),
(184,712,o),
(159,668,o),
(144,653,c),
(168,611,l),
(184,626,o),
(203,640,o),
(239,640,cs),
(260,640,o),
(280,629,o),
(298,618,c)
);
}
);
width = 600;
}
);
unicode = 771;
},
{
glyphname = macroncomb;
lastChange = "2021-08-26 07:34:26 +0000";
layers = (
{
anchors = (
{
name = _top;
pos = (301,512);
}
);
layerId = master01;
shapes = (
{
closed = 1;
nodes = (
(471,588,l),
(471,662,l),
(132,662,l),
(132,588,l)
);
}
);
width = 600;
}
);
unicode = 772;
},
{
glyphname = hookabovecomb;
lastChange = "2021-11-06 21:41:25 +0000";
layers = (
{
anchors = (
{
name = _top;
pos = (292,500);
}
);
layerId = master01;
shapes = (
{
closed = 1;
nodes = (
(258,667,l),
(301,671,o),
(344,660,o),
(344,633,cs),
(344,602,o),
(307,591,o),
(264,591,c),
(264,525,l),
(326,525,l),
(326,553,l),
(368,558,o),
(404,588,o),
(404,633,cs),
(404,704,o),
(335,725,o),
(258,720,c)
);
}
);
width = 600;
}
);
unicode = 777;
},
{
glyphname = commaturnedabovecomb;
lastChange = "2021-08-26 07:34:26 +0000";
layers = (
{
anchors = (
{
name = _top;
pos = (219,512);
}
);
layerId = master01;
shapes = (
{
closed = 1;
nodes = (
(345,512,l),
(419,712,l),
(299,712,l),
(263,512,l)
);
}
);
width = 600;
}
);
unicode = 786;
},
{
glyphname = dotbelowcomb;
lastChange = "2021-08-26 07:34:26 +0000";
layers = (
{
anchors = (
{
name = _bottom;
pos = (75,0);
}
);
layerId = master01;
shapes = (
{
closed = 1;
nodes = (
(105,-174,o),
(129,-149,o),
(129,-119,cs),
(129,-89,o),
(105,-64,o),
(75,-64,cs),
(45,-64,o),
(20,-89,o),
(20,-119,cs),
(20,-149,o),
(45,-174,o),
(75,-174,cs)
);
}
);
width = 149;
}
);
unicode = 803;
},
{
glyphname = commaaccentcomb;
lastChange = "2021-08-26 07:34:26 +0000";
layers = (
{
anchors = (
{
name = _bottom;
pos = (334,-12);
}
);
layerId = master01;
shapes = (
{
closed = 1;
nodes = (
(302,-244,l),
(392,-86,l),
(272,-86,l),
(220,-244,l)
);
}
);
width = 600;
}
);
unicode = 806;
},
{
glyphname = cedillacomb;
lastChange = "2021-08-26 07:34:26 +0000";
layers = (
{
anchors = (
{
name = _bottom;
pos = (290,2);
}
);
layerId = master01;
shapes = (
{
closed = 1;
nodes = (
(353,-207,o),
(398,-172,o),
(398,-123,cs),
(398,-66,o),
(337,-33,o),
(290,-46,c),
(325,8,l),
(270,8,l),
(225,-63,l),
(264,-100,l),
(268,-95,o),
(283,-86,o),
(301,-86,cs),
(329,-86,o),
(346,-99,o),
(346,-119,cs),
(346,-138,o),
(329,-153,o),
(295,-153,cs),
(264,-153,o),
(242,-131,o),
(232,-118,c),
(195,-157,l),
(216,-185,o),
(256,-207,o),
(301,-207,cs)
);
}
);
width = 600;
}
);
unicode = 807;
},
{
glyphname = ogonekcomb;
lastChange = "2021-08-26 07:34:26 +0000";
layers = (
{
anchors = (
{
name = _bottom;
pos = (356,0);
}
);
layerId = master01;
shapes = (
{
closed = 1;
nodes = (
(319,0,l),
(299,-12,o),
(268,-45,o),
(268,-95,cs),
(268,-152,o),
(320,-188,o),
(409,-188,c),
(427,-188,l),
(427,-118,l),
(384,-118,o),
(346,-107,o),
(346,-73,cs),
(346,-44,o),
(362,-24,o),
(401,0,c)
);
}
);
width = 600;
}
);
unicode = 808;
},
{
glyphname = macronbelowcomb;
lastChange = "2021-08-26 07:34:26 +0000";
layers = (
{
anchors = (
{
name = _bottom;
pos = (315,-12);
}
);
layerId = master01;
shapes = (
{
closed = 1;
nodes = (
(484,-159,l),
(484,-85,l),
(145,-85,l),
(145,-159,l)
);
}
);
width = 600;
}
);
unicode = 817;
},
{
glyphname = brevecomb_hookabovecomb;
lastChange = "2021-11-06 21:40:44 +0000";
layers = (
{
layerId = master01;
shapes = (
{
ref = brevecomb;
},
{
closed = 1;
nodes = (
(258,881,l),
(301,885,o),
(344,874,o),
(344,847,cs),
(344,816,o),
(307,805,o),
(264,805,c),
(264,739,l),
(326,739,l),
(326,767,l),
(368,772,o),
(404,802,o),
(404,847,cs),
(404,918,o),
(335,939,o),
(258,934,c)
);
}
);
width = 600;
}
);
},
